<?xml version="1.0" encoding="UTF-8" standalone="no"?><!DOCTYPE svg PUBLIC "-//W3C//DTD SVG 1.1//EN" "http://www.w3.org/Graphics/SVG/1.1/DTD/svg11.dtd"><svg width="100%" height="100%" viewBox="0 0 288 65" version="1.1" xmlns="http://www.w3.org/2000/svg" xmlns:xlink="http://www.w3.org/1999/xlink" xml:space="preserve" xmlns:serif="http://www.serif.com/" style="fill-rule:evenodd;clip-rule:evenodd;stroke-linejoin:round;stroke-miterlimit:2;"><g id="logo-full"><g><path d="M37.211,35.286l-24.989,-0l0,28.952l12.997,-0l-0,-19.977l13.026,0l0,-0.972l-13.026,0l-0,-7.031l11.992,-0l0,-0.972Z" style="fill:#ff98dc;"/><path d="M44.227,64.238l27.613,-0l-0,-1.004l-14.617,-0l-0,-27.948l-12.996,-0l-0,28.952Z" style="fill:#ff98dc;"/><path d="M77.852,60.276l15.797,-0l2.361,3.962l14.49,-0l-17.649,-30.581l-18.672,30.581l1.207,-0l2.466,-3.962Zm0.628,-1.008l14.568,0l-7.127,-11.955l-7.441,11.955Z" style="fill:#ff98dc;"/><path d="M155.35,64.233l-9.512,-29.31l-11.486,16.601l-11.792,-16.581l-9.339,29.295l1.207,-0l4.679,-14.45l9.089,12.182l9.457,-13.313l4.493,15.576l13.204,-0Z" style="fill:#ff98dc;"/><rect x="161.212" y="35.286" width="12.996" height="28.952" style="fill:#ff98dc;"/><path d="M209.229,50.043l-26.985,-15.232l0,29.427l0.989,-0l-0,-14.549l27.012,15.248l0,-29.651l-1.016,-0l-0,14.757Z" style="fill:#ff98dc;"/><path d="M248.67,49.269c0.005,0.164 0.008,0.329 0.008,0.493c0,8.375 -6.948,15.175 -15.505,15.175c-8.557,0 -15.505,-6.8 -15.505,-15.175c0,-8.376 6.948,-15.176 15.505,-15.176c5.251,0 9.896,2.561 12.701,6.474l-0.751,0.669c-2.618,-3.71 -6.997,-6.143 -11.95,-6.143c-0.821,0 -1.626,0.067 -2.409,0.195l-0,27.961c0.783,0.128 1.588,0.195 2.409,0.195c7.665,0 13.957,-5.825 14.471,-13.199l-13.431,0l-0,-1.469l14.457,0Z" style="fill:#ff98dc;"/><path d="M270.121,34.586c8.558,0 15.505,6.8 15.505,15.176c0,8.375 -6.947,15.175 -15.505,15.175c-8.557,0 -15.505,-6.8 -15.505,-15.175c0,-8.376 6.948,-15.176 15.505,-15.176Zm-2.409,29.156l0,-27.96c0.784,-0.129 1.589,-0.196 2.409,-0.196c8,0 14.505,6.346 14.505,14.176c0,7.829 -6.505,14.175 -14.505,14.175c-0.82,0 -1.625,-0.067 -2.409,-0.195Z" style="fill:#ff98dc;"/></g></g></svg>