<?xml version="1.0" encoding="UTF-8" standalone="no"?><!DOCTYPE svg PUBLIC "-//W3C//DTD SVG 1.1//EN" "http://www.w3.org/Graphics/SVG/1.1/DTD/svg11.dtd"><svg width="100%" height="100%" viewBox="0 0 252 47" version="1.1" xmlns="http://www.w3.org/2000/svg" xmlns:xlink="http://www.w3.org/1999/xlink" xml:space="preserve" xmlns:serif="http://www.serif.com/" style="fill-rule:evenodd;clip-rule:evenodd;stroke-linejoin:round;stroke-miterlimit:2;"><g id="SPD"><g><path d="M0.862,35.019l4.991,-7.261c3.176,3.404 6.806,4.992 11.117,4.992c2.269,-0 4.311,-0.908 4.311,-2.95c-0,-1.134 -1.134,-2.268 -3.176,-2.949l-3.404,-1.135c-2.268,-0.68 -3.857,-1.361 -4.991,-2.041c-4.311,-2.269 -6.353,-5.672 -6.353,-10.21c0,-3.403 1.362,-6.353 4.084,-8.622c2.723,-2.268 6.126,-3.403 10.437,-3.403c5.218,0 9.982,1.588 13.839,4.992l-4.537,7.487c-2.269,-1.815 -6.126,-3.177 -9.075,-3.177c-2.723,0 -4.084,1.135 -4.084,2.496c-0,1.134 1.134,2.042 3.176,2.95l3.403,1.361c2.042,0.68 3.403,1.361 4.538,1.588c4.991,2.042 7.487,5.445 7.487,10.21c-0,3.63 -1.361,6.579 -4.311,9.075c-3.176,2.269 -6.806,3.403 -11.571,3.403c-6.579,-0 -11.797,-2.269 -15.881,-6.806Z" style="fill:#47414d;fill-rule:nonzero;"/><path d="M50.322,2.121c4.991,-0 8.621,1.361 11.117,3.857c2.495,2.496 3.63,5.899 3.63,9.756c-0,3.857 -1.361,7.033 -3.857,9.529c-2.496,2.495 -6.353,3.63 -11.571,3.63l-4.991,-0l-0,12.251l-9.756,0l-0,-39.023l15.428,-0Zm-0.227,17.923c3.176,0 4.764,-2.041 4.764,-4.537c0,-2.496 -1.815,-4.538 -4.537,-4.538l-5.672,0l-0,8.849c-0,0.226 5.445,0.226 5.445,0.226Z" style="fill:#47414d;fill-rule:nonzero;"/><path d="M67.565,41.144l-0,-39.023l13.839,-0c6.126,-0 10.89,1.815 14.294,5.218c3.403,3.403 5.218,8.168 5.218,14.294c-0,6.125 -1.815,10.663 -5.218,14.293c-3.404,3.403 -8.168,5.218 -14.294,5.218l-13.839,0Zm9.755,-9.529l4.311,0c2.723,0 4.991,-0.907 6.58,-2.949c1.588,-2.042 2.268,-4.311 2.268,-7.26c0,-2.95 -0.68,-5.218 -2.268,-7.034c-1.589,-2.041 -3.63,-2.949 -6.58,-2.949l-4.311,0l0,20.192Z" style="fill:#47414d;fill-rule:nonzero;"/></g><g><g><g><g><path d="M181.912,18.003c-1.134,0.68 -2.269,0.907 -3.857,0.907c-2.949,0 -4.31,-1.588 -4.31,-4.991l-0,-4.538l-1.815,0l-0,-2.949l1.815,-0l-0,-4.311l3.403,-0l-0,4.311l3.63,-0l-0,2.949l-3.63,0l-0,4.311c-0,1.361 0.454,2.042 1.588,2.042c0.454,-0 1.134,-0.227 2.042,-0.681l1.134,2.95Z" style="fill:#47414d;fill-rule:nonzero;"/><g><g><path d="M120.655,18.683l-0,-16.562l11.344,-0l-0,3.403l-7.714,0l-0,3.403l6.125,0l0,3.404l-6.125,-0l-0,6.352l-3.63,0Z" style="fill:#47414d;fill-rule:nonzero;"/><path d="M152.872,6.432l3.403,-0l-0,12.251l-3.403,0l-0,-1.361c-1.135,1.134 -2.269,1.588 -3.857,1.588c-1.815,0 -3.177,-0.681 -4.311,-1.815c-1.135,-1.361 -1.815,-2.723 -1.815,-4.764c-0,-1.816 0.68,-3.404 1.815,-4.538c1.134,-1.134 2.722,-1.815 4.311,-1.815c1.588,0.227 2.722,0.681 3.857,1.815l-0,-1.361Zm-5.446,8.394c0.681,0.681 1.362,0.908 2.269,0.908c0.908,-0 1.588,-0.227 2.269,-0.908c0.681,-0.68 0.908,-1.361 0.908,-2.269c-0,-0.907 -0.227,-1.588 -0.908,-2.268c-0.681,-0.681 -1.361,-0.908 -2.269,-0.908c-0.907,0 -1.588,0.227 -2.269,0.908c-0.68,0.68 -0.907,1.361 -0.907,2.268c-0,0.908 0.227,1.815 0.907,2.269Z" style="fill:#47414d;fill-rule:nonzero;"/><path d="M166.938,18.683l-3.857,-5.218l-0.68,0.681l-0,4.537l-3.631,0l0,-16.562l3.631,-0l-0,8.168l4.083,-3.857l4.311,-0l-5.445,4.991l5.672,7.26l-4.084,0Z" style="fill:#47414d;fill-rule:nonzero;"/><path d="M190.761,17.095c-1.135,-1.361 -1.815,-2.723 -1.815,-4.538c-0,-1.815 0.68,-3.403 1.815,-4.537c1.134,-1.361 2.722,-1.815 4.764,-1.815c2.042,-0 3.63,0.68 4.765,1.815c1.134,1.134 1.815,2.722 1.815,4.537c-0,1.815 -0.681,3.404 -1.815,4.538c-1.135,1.134 -2.95,1.815 -4.765,1.815c-1.815,0.227 -3.403,-0.454 -4.764,-1.815Zm7.033,-6.806c-0.681,-0.681 -1.361,-0.908 -2.269,-0.908c-0.907,0 -1.588,0.227 -2.269,0.908c-0.68,0.68 -0.907,1.361 -0.907,2.268c-0,0.908 0.227,1.589 0.907,2.269c0.681,0.681 1.362,0.908 2.269,0.908c0.908,-0 1.588,-0.227 2.269,-0.908c0.681,-0.68 0.907,-1.361 0.907,-2.269c0,-0.907 -0.226,-1.588 -0.907,-2.268Z" style="fill:#47414d;fill-rule:nonzero;"/><path d="M204.147,18.683l-0,-12.251l3.403,-0l-0,1.815c0.68,-1.135 2.042,-2.042 3.857,-2.042c1.361,-0 2.495,0.454 3.403,1.361c0.907,0.908 1.361,2.269 1.361,3.857l0,7.487l-3.63,0l0,-6.806c0,-1.815 -0.907,-2.723 -2.496,-2.723c-1.588,0 -2.722,1.134 -2.722,2.95l-0,6.579l-3.176,-0.227Z" style="fill:#47414d;fill-rule:nonzero;"/><path d="M249.75,7.339c0.907,0.908 1.361,2.269 1.361,3.857l-0,7.487l-3.63,0l-0,-6.806c-0,-1.815 -0.908,-2.723 -2.269,-2.723c-1.361,0 -2.496,1.135 -2.496,2.723l0,6.806l-3.63,0l0,-6.806c0,-1.588 -0.907,-2.723 -2.269,-2.723c-1.361,0 -2.495,1.135 -2.495,2.723l-0,6.579l-3.63,0l-0,-12.024l3.403,-0l-0,1.815c0.68,-1.362 2.269,-2.042 3.857,-2.042c1.588,-0 2.949,0.68 3.63,2.042c0.907,-1.362 2.495,-2.042 4.311,-2.042c1.588,-0.227 2.722,0.227 3.857,1.134Z" style="fill:#47414d;fill-rule:nonzero;"/><path d="M133.814,36.153c-0,1.361 -0.454,2.496 -1.362,3.403c-0.907,0.908 -2.268,1.361 -3.857,1.361l-7.94,0l-0,-16.562l7.487,0c1.588,0 2.722,0.454 3.63,1.135c0.907,0.907 1.361,1.815 1.361,2.949c-0,1.588 -0.908,2.949 -2.269,3.403c1.815,0.681 2.95,2.269 2.95,4.311Zm-9.529,-8.395l-0,3.177l2.949,-0c1.361,-0 2.042,-0.681 2.042,-1.588c0,-0.908 -0.681,-1.589 -1.815,-1.589l-3.176,0Zm3.403,10.21c1.361,0 2.269,-0.907 2.269,-2.042c-0,-1.134 -0.681,-2.042 -2.269,-2.042l-3.403,0l-0,3.857c-0,0.227 3.403,0.227 3.403,0.227Z" style="fill:#47414d;fill-rule:nonzero;"/><path d="M135.629,35.699l-0,-7.033l3.63,-0l-0,7.033c-0,1.362 0.907,2.269 2.269,2.269c1.361,0 2.268,-0.907 2.268,-2.269l0,-7.033l3.63,-0l0,7.033c0,3.63 -2.268,5.672 -5.898,5.672c-3.631,0 -5.899,-2.042 -5.899,-5.672Z" style="fill:#47414d;fill-rule:nonzero;"/><path d="M149.695,41.144l0,-12.251l3.403,-0l0,1.588c0.681,-1.134 2.042,-2.042 3.857,-2.042c1.362,0 2.496,0.454 3.404,1.361c0.907,0.908 1.361,2.269 1.361,3.857l-0,7.487l-3.63,0l-0,-6.579c-0,-1.815 -0.908,-2.723 -2.496,-2.723c-1.588,0 -2.722,1.135 -2.722,2.95l-0,6.579l-3.177,-0.227Z" style="fill:#47414d;fill-rule:nonzero;"/><path d="M173.291,24.355l3.63,0l-0,16.562l-3.63,0l-0,-1.361c-0.908,1.135 -2.269,1.588 -3.63,1.588c-1.815,0 -3.177,-0.68 -4.311,-1.815c-1.134,-1.134 -1.815,-2.722 -1.815,-4.537c-0,-1.815 0.681,-3.404 1.815,-4.538c1.134,-1.134 2.723,-1.815 4.311,-1.815c1.361,0 2.495,0.454 3.63,1.588l-0,-5.672Zm-0.681,8.168c-0.68,-0.681 -1.361,-0.908 -2.269,-0.908c-0.907,0 -1.588,0.227 -2.268,0.908c-0.681,0.681 -0.908,1.361 -0.908,2.269c0,0.907 0.227,1.815 0.908,2.269c0.68,0.68 1.361,0.907 2.268,0.907c0.908,0 1.589,-0.227 2.269,-0.907c0.681,-0.681 0.908,-1.362 0.908,-2.269c-0,-0.681 -0.454,-1.588 -0.908,-2.269Z" style="fill:#47414d;fill-rule:nonzero;"/><path d="M191.214,36.153l-9.075,-0c0.454,1.588 1.588,2.269 3.403,2.269c1.362,-0 2.723,-0.454 3.857,-1.135l1.362,2.496c-1.589,1.134 -3.404,1.815 -5.446,1.815c-2.268,0 -3.856,-0.681 -4.991,-1.815c-1.134,-1.134 -1.815,-2.722 -1.815,-4.538c0,-1.815 0.681,-3.403 1.815,-4.537c1.135,-1.135 2.723,-1.815 4.765,-1.815c1.815,-0 3.403,0.454 4.537,1.588c1.135,1.134 1.815,2.723 1.815,4.538c0,-0 0,0.453 -0.227,1.134Zm-9.075,-2.496l5.899,0c-0.227,-1.361 -1.361,-2.269 -2.949,-2.269c-1.362,0 -2.496,0.681 -2.95,2.269Z" style="fill:#47414d;fill-rule:nonzero;"/><path d="M192.576,39.102l1.815,-2.268c1.134,1.134 2.268,1.588 3.63,1.588c0.907,-0 1.588,-0.454 1.588,-0.908c-0,-0.453 -0.227,-0.68 -0.681,-0.907c-0.227,-0 -0.68,-0.227 -1.361,-0.454c-0.681,-0.227 -1.361,-0.454 -1.588,-0.681c-1.361,-0.68 -2.269,-1.815 -2.269,-3.176c0,-1.134 0.454,-2.042 1.361,-2.723c0.908,-0.68 2.042,-1.134 3.404,-1.134c1.815,0 3.176,0.454 4.537,1.815l-1.588,2.269c-0.908,-0.681 -1.815,-1.135 -2.949,-1.135c-0.681,0 -1.362,0.454 -1.362,0.908c0,0.454 0.454,0.681 1.135,1.134c1.361,0.454 2.268,0.681 2.949,1.135c1.361,0.68 2.042,1.815 2.042,3.176c0,1.135 -0.454,2.042 -1.361,2.95c-0.908,0.68 -2.042,1.134 -3.63,1.134c-2.496,-0.454 -4.311,-1.134 -5.672,-2.723Z" style="fill:#47414d;fill-rule:nonzero;"/><path d="M224.793,28.666l3.403,-0l-0,12.251l-3.403,0l-0,-1.361c-1.135,1.135 -2.269,1.588 -3.857,1.588c-1.815,0 -3.177,-0.68 -4.311,-1.815c-1.134,-1.361 -1.815,-2.722 -1.815,-4.764c-0,-1.815 0.681,-3.403 1.815,-4.538c1.134,-1.134 2.723,-1.815 4.311,-1.815c1.588,0 2.722,0.454 3.857,1.588l-0,-1.134Zm-5.445,8.621c0.68,0.681 1.361,0.908 2.268,0.908c0.908,-0 1.588,-0.227 2.269,-0.908c0.681,-0.68 0.908,-1.361 0.908,-2.268c-0,-0.908 -0.227,-1.589 -0.908,-2.269c-0.681,-0.681 -1.361,-0.908 -2.269,-0.908c-0.907,0 -1.588,0.227 -2.268,0.908c-0.681,0.68 -0.908,1.361 -0.908,2.269c0,0.68 0.454,1.588 0.908,2.268Z" style="fill:#47414d;fill-rule:nonzero;"/><path d="M239.994,28.666l3.176,-0l-0,11.117c-0,2.042 -0.681,3.63 -2.042,4.765c-1.361,1.134 -2.949,1.815 -4.991,1.815c-2.042,-0 -4.084,-0.681 -5.672,-1.815l1.361,-2.723c1.361,0.908 2.949,1.361 4.311,1.361c2.268,0 3.63,-1.361 3.63,-3.176l-0,-0.454c-0.908,0.908 -2.042,1.361 -3.63,1.361c-1.815,0 -3.404,-0.68 -4.538,-1.815c-1.134,-1.134 -1.815,-2.722 -1.815,-4.537c0,-1.815 0.681,-3.403 1.815,-4.538c1.134,-1.134 2.723,-1.815 4.538,-1.815c1.361,0 2.722,0.454 3.63,1.588l0.227,-1.134Zm-3.177,2.949c-0.907,0 -1.588,0.227 -2.268,0.908c-0.681,0.681 -0.908,1.361 -0.908,2.269c-0,0.907 0.227,1.588 0.908,2.269c0.68,0.68 1.361,0.907 2.268,0.907c0.908,0 1.588,-0.227 2.269,-0.907c0.681,-0.681 0.908,-1.362 0.908,-2.269c-0,-1.815 -1.362,-3.177 -3.177,-3.177Z" style="fill:#47414d;fill-rule:nonzero;"/></g><g><path d="M140.62,5.978c-1.361,-0 -2.496,0.681 -3.403,2.042l-0,-1.588l-3.403,-0l-0,12.251l3.63,0l-0,-5.445c-0,-2.496 1.134,-3.63 2.949,-3.63c0.454,-0 1.135,-0 1.588,0.227l0,-3.63c-0.68,-0 -0.907,-0.227 -1.361,-0.227Z" style="fill:#47414d;fill-rule:nonzero;"/></g></g></g><path d="M214.129,40.237c-1.134,0.68 -2.269,0.907 -3.857,0.907c-2.949,0 -4.31,-1.588 -4.31,-4.991l-0,-4.765l-1.815,0l-0,-2.949l1.815,0l-0,-4.311l3.403,0l-0,4.311l3.63,0l-0,2.949l-3.63,0l-0,4.311c-0,1.362 0.454,2.042 1.588,2.042c0.454,0 1.134,-0.227 2.042,-0.68l1.134,3.176Z" style="fill:#47414d;fill-rule:nonzero;"/></g></g><g><rect x="183.5" y="6.432" width="3.63" height="12.252" style="fill:#47414d;fill-rule:nonzero;"/><path d="M183.274,2.802c-0,-1.135 0.907,-2.042 2.041,-2.042c1.135,-0 2.042,0.907 2.042,2.042c0,1.134 -0.907,2.041 -2.042,2.041c-1.134,0 -2.041,-0.907 -2.041,-2.041Z" style="fill:#47414d;fill-rule:nonzero;"/></g><g><rect x="224.566" y="6.432" width="3.63" height="12.252" style="fill:#47414d;fill-rule:nonzero;"/><path d="M224.566,2.802c-0,-1.135 0.907,-2.042 2.042,-2.042c1.134,-0 2.042,0.907 2.042,2.042c-0,1.134 -0.908,2.041 -2.042,2.041c-1.362,0 -2.042,-0.907 -2.042,-2.041Z" style="fill:#47414d;fill-rule:nonzero;"/></g></g></g></svg>