<?xml version="1.0" encoding="UTF-8" standalone="no"?><!DOCTYPE svg PUBLIC "-//W3C//DTD SVG 1.1//EN" "http://www.w3.org/Graphics/SVG/1.1/DTD/svg11.dtd"><svg width="100%" height="100%" viewBox="0 0 239 79" version="1.1" xmlns="http://www.w3.org/2000/svg" xmlns:xlink="http://www.w3.org/1999/xlink" xml:space="preserve" xmlns:serif="http://www.serif.com/" style="fill-rule:evenodd;clip-rule:evenodd;stroke-linejoin:round;stroke-miterlimit:2;"><g id="TC"><path d="M218.072,13.511c-1.305,1.45 -1.498,4.109 -0.532,7.299l0.871,2.852l-1.547,1.789c-0.87,0.967 -1.451,2.078 -1.306,2.465c0.145,0.387 0.097,0.532 -0.193,0.387c-0.242,-0.145 -0.58,0.532 -0.773,1.45c-0.387,2.175 0.87,5.656 2.562,7.009c1.45,1.112 5.559,1.354 7.638,0.387c0.918,-0.435 1.353,-0.435 1.788,0c0.677,0.677 3.094,0.774 3.529,0.145c0.145,-0.242 -0.193,-1.208 -0.725,-2.127c-0.919,-1.547 -0.967,-1.982 -0.435,-5.124c0.58,-3.964 0.145,-5.027 -1.934,-4.786c-0.967,0.097 -1.305,0.484 -1.498,1.547l-0.242,1.402l-0.822,-1.692c-0.773,-1.643 -0.773,-1.788 0.387,-4.012c1.837,-3.674 1.305,-8.701 -1.015,-9.62c-1.692,-0.628 -4.931,-0.29 -5.753,0.629Zm4.254,3.19c0.339,0.87 -0.145,3.529 -0.677,3.867c-0.58,0.339 -1.547,-2.852 -1.16,-3.77c0.387,-1.015 1.45,-1.064 1.837,-0.097Zm-4.882,10.152c-0.145,0.435 -0.387,0.676 -0.484,0.531c-0.145,-0.145 -0.096,-0.435 0.097,-0.725c0.435,-0.773 0.725,-0.628 0.387,0.194Zm4.93,3.238c1.644,2.804 1.692,3.046 0.919,3.626c-2.175,1.595 -5.027,0.145 -5.027,-2.514c-0,-1.257 1.498,-4.109 2.175,-4.109c0.048,0 0.918,1.354 1.933,2.997Zm3.384,4.641c-0.145,0.145 -0.531,0 -0.87,-0.338c-0.435,-0.484 -0.387,-0.532 0.29,-0.242c0.484,0.145 0.725,0.435 0.58,0.58Zm-131.051,-20.4c-0.386,1.596 0.097,2.031 2.369,2.224l1.885,0.145l-0.096,9.717c-0,5.317 0.096,10.054 0.29,10.489c0.193,0.532 0.821,0.822 1.691,0.822l1.402,0l0.097,-10.538l0.145,-10.49l2.03,-0.145c2.127,-0.145 2.901,-1.063 2.272,-2.707c-0.241,-0.677 -1.16,-0.773 -6.042,-0.773l-5.753,-0l-0.29,1.256Zm17.161,-0.145c-2.32,1.547 -2.804,3.433 -2.804,10.974c-0.048,10.151 1.064,12.568 5.85,12.568c5.269,0 6.187,-1.837 6.187,-12.375c0,-6.043 -0.145,-7.879 -0.822,-9.233c-1.402,-2.997 -5.462,-3.916 -8.411,-1.934Zm4.689,2.949c0.822,0.629 0.919,1.402 1.064,7.638c0.145,7.686 -0.242,9.233 -2.369,9.475c-1.982,0.241 -2.514,-0.919 -2.755,-6.14c-0.436,-9.523 0.918,-13.245 4.06,-10.973Zm7.783,-3.722c-0.193,0.145 -0.338,4.834 -0.338,10.393c-0,13.004 0.386,13.922 5.945,13.922c2.079,0 2.853,-0.241 3.868,-1.16c0.676,-0.628 1.402,-1.692 1.547,-2.32c0.145,-0.58 0.193,-5.559 0.145,-11.022l-0.145,-9.91l-2.901,0l-0.145,9.862c-0.048,6.284 -0.29,10.103 -0.628,10.538c-0.677,0.773 -2.949,0.822 -3.723,0.048c-0.435,-0.435 -0.58,-3.287 -0.58,-9.861c0,-5.124 -0.145,-9.62 -0.29,-10.055c-0.29,-0.773 -2.175,-1.063 -2.755,-0.435Zm14.986,-0c-0.194,0.145 -0.339,5.704 -0.339,12.327l0,12.037l1.595,-0.145l1.547,-0.145l0.29,-9.959l1.789,0.145c2.369,0.194 2.997,1.499 2.997,6.285l0,3.77l3.384,0l-0,-4.399c-0,-2.997 -0.242,-4.882 -0.774,-6.042c-0.676,-1.451 -0.676,-1.692 0,-2.707c0.919,-1.306 1.064,-6.961 0.242,-8.798c-0.822,-1.789 -3.239,-2.707 -7.058,-2.707c-1.837,-0 -3.528,0.145 -3.673,0.338Zm7.106,3.819c0.821,0.773 1.063,4.302 0.386,5.366c-0.386,0.628 -2.658,1.595 -3.77,1.595c-0.532,-0 -0.677,-0.822 -0.677,-3.867l-0,-3.868l1.644,0c0.918,0 2.03,0.339 2.417,0.774Zm7.396,-3.867c-0.194,0.193 -0.339,5.752 -0.339,12.375l0,12.037l1.596,-0.145l1.546,-0.145l0,-24.171l-1.208,-0.145c-0.677,-0.096 -1.402,0 -1.595,0.194Zm8.604,0.435c-1.885,0.966 -2.658,2.223 -2.949,4.979c-0.338,2.997 0.774,4.979 4.448,7.976c3.432,2.755 4.495,4.592 3.674,6.381c-0.435,0.87 -0.919,1.208 -1.982,1.208c-1.741,0 -2.321,-0.725 -2.756,-3.287c-0.29,-1.837 -0.435,-2.03 -1.74,-2.03c-1.692,-0 -2.03,0.773 -1.595,3.722c0.483,3.287 2.32,4.979 5.414,4.979c3.335,0 4.157,-0.338 5.366,-2.127c1.16,-1.692 1.45,-4.931 0.532,-6.719c-0.291,-0.58 -2.176,-2.61 -4.158,-4.496c-3.19,-2.9 -3.674,-3.625 -3.674,-5.027c0,-1.547 1.064,-2.901 2.321,-2.901c1.208,0 2.272,1.354 2.513,3.288c0.29,1.981 0.339,2.078 1.789,1.933c1.354,-0.145 1.499,-0.338 1.644,-1.933c0.435,-5.028 -4.303,-8.17 -8.847,-5.946Zm10.587,-0.049c-0.629,1.644 -0,2.466 2.078,2.611l2.079,0.145l0.097,10.49l0.145,10.49l1.595,0.145l1.547,0.145l-0,-21.319l2.224,0c2.175,0 2.175,0 2.03,-1.595l-0.145,-1.547l-5.704,-0.145c-4.641,-0.096 -5.704,0 -5.946,0.58Zm15.13,-0.386c-0.193,0.193 -0.338,5.752 -0.338,12.375l0,12.037l1.595,-0.145l1.547,-0.145l0,-24.171l-1.208,-0.145c-0.677,-0.096 -1.402,0 -1.596,0.194Zm7.251,-0c-0.193,0.193 -0.338,5.752 -0.338,12.375l0,12.037l1.595,-0.145l1.547,-0.145l0.145,-4.109c0.097,-2.272 0.339,-4.303 0.58,-4.544c0.339,-0.339 0.484,-0.29 0.484,0.048c-0,0.29 1.112,2.417 2.465,4.689c2.32,3.964 2.514,4.157 4.109,4.157c1.015,0 1.644,-0.241 1.644,-0.628c-0,-0.339 -1.402,-3.094 -3.142,-6.139c-1.741,-3.046 -3.143,-5.656 -3.143,-5.898c0,-0.193 0.967,-1.934 2.176,-3.771c1.208,-1.885 2.03,-3.673 1.885,-3.963c-0.193,-0.291 -0.145,-0.387 0.145,-0.242c0.628,0.387 2.224,-2.417 1.885,-3.336c-0.145,-0.338 -0.822,-0.676 -1.498,-0.676c-1.305,-0 -2.852,1.836 -5.704,6.767l-1.547,2.659l-0.242,-4.592c-0.242,-4.496 -0.29,-4.593 -1.45,-4.738c-0.677,-0.096 -1.402,0 -1.596,0.194Zm-97.599,31.373c-2.465,1.401 -2.804,2.803 -2.804,11.601c0,8.315 0.194,9.475 2.127,10.974c1.209,1.015 4.496,1.16 6.333,0.29c2.272,-1.016 4.012,-6.333 2.465,-7.59c-1.402,-1.16 -2.417,-0.435 -2.9,2.03c-0.339,1.886 -0.629,2.321 -1.644,2.611c-2.513,0.628 -2.755,-0 -2.9,-8.315c-0.145,-8.073 0.048,-8.943 2.078,-8.943c1.451,0 2.079,0.822 2.466,3.287c0.29,1.837 0.435,2.031 1.692,2.031c1.74,-0 2.03,-0.484 1.595,-3.191c-0.483,-3.19 -2.272,-5.075 -5.027,-5.317c-1.402,-0.145 -2.659,0.048 -3.481,0.532Zm16.146,0.821c-1.354,4.254 -4.979,21.27 -4.738,21.947c0.194,0.483 0.725,0.677 1.596,0.58c1.208,-0.145 1.401,-0.435 2.078,-3.287l0.774,-3.142l3.77,-0l0.774,3.142c0.676,2.997 0.773,3.142 2.32,3.287c1.354,0.145 1.547,0 1.547,-0.967c-0.048,-0.628 -1.16,-5.994 -2.562,-11.988c-2.514,-10.587 -2.61,-10.877 -3.819,-11.022c-1.063,-0.145 -1.354,0.097 -1.74,1.45Zm2.417,10.78c0.145,1.644 -0,1.934 -0.822,1.934c-1.015,-0 -1.015,-0.145 -0.483,-3.384c0.386,-2.272 1.015,-1.547 1.305,1.45Zm8.943,-11.988c-0.194,0.145 -0.339,5.607 -0.339,12.085l0,11.747l2.901,-0l-0,-10.152l1.402,0c2.658,0 3.384,1.209 3.529,5.801l0.145,4.109l2.9,0l0.145,-4.544c0.097,-3.432 -0.048,-4.786 -0.628,-5.656c-0.677,-1.063 -0.677,-1.257 0.096,-2.465c0.58,-0.919 0.87,-2.272 0.87,-4.302c0,-5.27 -1.788,-6.962 -7.396,-6.962c-1.837,0 -3.48,0.145 -3.625,0.339Zm6.961,3.867c0.387,0.435 0.677,1.74 0.677,2.901c-0,2.513 -1.016,3.528 -3.481,3.528l-1.595,0l-0,-3.287c-0,-1.837 0.145,-3.48 0.338,-3.625c0.629,-0.629 3.432,-0.339 4.061,0.483Zm12.085,-3.529c-0.58,0.677 -5.366,20.835 -5.366,22.527c0,0.773 0.29,0.918 1.547,0.822c1.499,-0.097 1.595,-0.242 2.32,-3.239l0.774,-3.142l3.722,-0l0.773,3.142c0.726,2.997 0.822,3.142 2.369,3.287c1.16,0.145 1.547,-0.048 1.547,-0.628c0,-1.499 -4.931,-22.237 -5.414,-22.865c-0.677,-0.774 -1.595,-0.726 -2.272,0.096Zm1.837,11.989c0.048,1.305 -0.145,1.837 -0.629,1.837c-1.111,-0 -1.208,-0.532 -0.628,-3.626c0.483,-2.61 0.532,-2.755 0.87,-1.45c0.194,0.773 0.339,2.272 0.387,3.239Zm5.027,-11.892c-0.145,0.435 0.629,4.737 1.741,9.571c3.335,14.406 3.045,13.584 4.64,13.584l1.354,0l2.562,-10.635c1.402,-5.849 2.562,-11.118 2.61,-11.698c0,-1.305 -0.677,-1.789 -2.078,-1.402c-0.967,0.242 -1.257,1.015 -2.466,6.429c-2.03,8.943 -1.933,8.846 -3.384,2.562c-2.272,-9.571 -2.127,-9.185 -3.48,-9.185c-0.677,0 -1.305,0.339 -1.499,0.774Zm18.225,0.29c-0.822,1.885 -5.318,22.188 -5.028,22.672c0.387,0.628 2.417,0.531 2.949,-0.145c0.242,-0.339 0.725,-1.886 1.063,-3.433l0.581,-2.755l1.885,0c1.692,0 1.885,0.145 2.175,1.547c0.967,4.834 1.16,5.221 2.659,5.221c0.773,-0 1.498,-0.145 1.643,-0.387c0.242,-0.387 -4.689,-22.382 -5.22,-23.252c-0.58,-0.918 -2.224,-0.58 -2.707,0.532Zm1.933,8.943c0,0.483 0.145,1.692 0.29,2.659c0.29,1.643 0.194,1.837 -0.725,1.837c-1.112,-0 -1.208,-0.484 -0.725,-3.529c0.338,-1.789 1.16,-2.514 1.16,-0.967Zm8.895,-9.378c-0.097,0.338 -0.145,5.704 -0.097,11.94l0.145,11.36l2.901,0l0.29,-6.284c0.145,-3.674 0.386,-5.898 0.628,-5.318c2.127,5.559 4.641,11.167 5.221,11.554c0.435,0.241 1.112,0.29 1.547,0.145c0.725,-0.29 0.773,-1.499 0.677,-12.037l-0.145,-11.747l-1.161,-0.145c-0.628,-0.097 -1.353,0.097 -1.546,0.484c-0.242,0.338 -0.436,3.335 -0.436,6.671l-0.048,6.042l-2.417,-6.042c-1.353,-3.336 -2.659,-6.333 -2.949,-6.671c-0.676,-0.774 -2.272,-0.774 -2.61,0.048Zm15.469,-0c-0.097,0.338 -0.145,5.704 -0.097,11.94l0.145,11.36l2.901,0l0.145,-11.312c0.096,-7.928 -0.049,-11.505 -0.435,-11.94c-0.677,-0.87 -2.321,-0.87 -2.659,-0.048Zm8.121,-0.242c-0.435,0.339 -0.58,3.046 -0.483,11.989l0.145,11.553l1.595,0.145l1.547,0.145l-0,-6.381c-0,-3.577 0.193,-6.236 0.387,-5.994c0.241,0.29 1.353,2.852 2.513,5.801c2.417,6.187 2.659,6.526 4.158,6.526c1.45,-0 1.45,-0.242 1.16,-13.294l-0.242,-10.635l-1.305,-0.145c-1.644,-0.193 -1.789,0.339 -1.982,7.396l-0.097,5.318l-2.078,-5.318c-2.901,-7.348 -3.529,-8.218 -5.318,-7.106Zm17.934,0.58c-0.821,0.484 -1.788,1.354 -2.03,1.886c-0.822,1.498 -0.677,17.209 0.145,18.852c0.87,1.644 2.611,2.466 5.318,2.466c3.867,-0 5.607,-2.562 5.607,-8.218c0,-1.499 -0.242,-2.949 -0.58,-3.287c-0.822,-0.822 -4.496,-0.725 -5.221,0.145c-0.87,1.015 -0.387,2.32 0.967,2.658c2.417,0.581 1.402,5.318 -1.112,5.318c-2.078,-0 -2.272,-0.725 -2.272,-8.508c0,-6.043 0.145,-7.493 0.774,-8.121c1.74,-1.741 3.48,-0.58 3.915,2.61c0.242,1.74 0.387,1.934 1.644,1.934c0.725,-0 1.498,-0.242 1.643,-0.532c0.532,-0.822 -0.241,-4.834 -0.821,-4.496c-0.29,0.194 -0.387,0.097 -0.242,-0.193c0.58,-0.87 -0.145,-1.934 -1.837,-2.707c-2.127,-1.015 -4.012,-0.967 -5.898,0.193Zm-0.145,1.16c0,0.097 -0.386,0.484 -0.821,0.822c-0.774,0.629 -0.822,0.58 -0.194,-0.193c0.629,-0.774 1.015,-1.015 1.015,-0.629Zm-174.45,32.156c21.399,-0 38.746,-17.342 38.746,-38.735c-0,-21.392 -17.347,-38.734 -38.746,-38.734c-21.399,-0 -38.746,17.342 -38.746,38.734c0,21.393 17.347,38.735 38.746,38.735Z" style="fill:#47414d;fill-rule:nonzero;"/><path d="M27.69,15.814c-1.547,-0.778 -5.145,-1.209 -6.85,2.622c-1.159,3.219 1.157,5.375 2.679,6.188c2,1.069 5.303,0.479 6.465,-1.957c1.596,-3.344 -0.748,-6.074 -2.294,-6.853Zm-6.398,6.378c-0.06,0.08 -0.186,-0.072 -0.156,-0.114c0.005,-0.007 0.012,-0.01 0.017,-0.014l-0.039,-0.256l0.269,-0.041l0.041,0.27l-0.201,0.031c0.047,0.029 0.089,0.097 0.069,0.124Zm-0.126,-1.072l-0.088,-0.282l0.281,-0.088l0.088,0.282l-0.281,0.088Zm8.498,-2.014c0.059,-0.081 0.187,0.071 0.155,0.114c-0.058,0.08 -0.186,-0.071 -0.155,-0.114Zm-1.041,2.504c0.102,0.034 -0.012,0.216 -0.068,0.198c-0.101,-0.035 0.012,-0.216 0.068,-0.198Zm-0.478,-4.223l-0.265,0.131c-0.857,-0.478 0.534,-0.93 0.265,-0.131Zm-2.657,-0.263c0.043,-0.059 0.121,0.003 0.148,0.059c0.272,-0.046 0.4,0.573 -0.264,0.263c0.054,-0.109 0.109,-0.175 0.164,-0.215c-0.038,-0.034 -0.064,-0.085 -0.048,-0.107Zm-0.17,0.57c-0.001,0.158 -0.123,0.096 -0.135,0.021c0.003,-0.157 0.124,-0.096 0.135,-0.021Zm0.459,1.21c0.028,0.29 -0.642,0.214 -0.247,0.695l-0.281,0.09c-0.01,-0.129 -0.097,-0.117 -0.184,-0.098c0.116,-0.308 0.37,-0.852 0.712,-0.687Zm-0.684,2.963c-0.162,0.049 -0.139,-0.096 -0.066,-0.132c0.163,-0.049 0.14,0.097 0.066,0.132Zm-0.055,-1.492c0.016,0.131 -0.15,0.129 -0.249,0.176c-0.016,-0.133 0.149,-0.131 0.249,-0.176Zm-0.719,-4.386l0.197,0.397l-0.264,0.132c-0.176,-0.243 -0.178,-0.427 0.067,-0.529Zm-0.181,1.342c0.175,0.006 0.177,0.249 0.041,0.27c-0.101,-0.106 -0.2,-0.215 -0.041,-0.27Zm-0.81,-0.683l0.131,0.263l-0.265,0.132l-0.132,-0.264l0.266,-0.131Zm-0.072,1.517l0.131,0.265l-0.264,0.13l-0.131,-0.264l0.264,-0.131Zm-1.102,3.029c-0.414,-0.463 0.081,-0.856 0.464,-0.726c-0.006,0.293 -0.018,0.583 -0.464,0.726Zm1.156,1.064c-0.135,-0.228 0.023,-0.359 -0.131,-0.595c0.248,-0.083 0.415,0.079 0.528,0.398l-0.397,0.197Zm1.074,-1.645c-0.284,0.006 -0.205,-0.484 -0.489,-0.477c-0.537,0.059 0.076,0.201 -0.207,0.445c-0.333,-0.199 -0.665,-0.399 -0.706,-0.996c0.692,-0.651 1.022,0.402 1.702,0.291c0.174,0.446 -0.521,0.255 -0.3,0.737Zm0.425,0.074c0.081,0.059 -0.071,0.186 -0.113,0.156c-0.081,-0.061 0.071,-0.189 0.113,-0.156Zm0.144,3.885l-0.196,-0.394c0.193,-0.145 0.289,0.011 0.461,-0.066l0.132,0.266l-0.397,0.194Zm0.594,-0.128c0.035,-0.104 0.216,0.011 0.198,0.065c-0.034,0.103 -0.216,-0.011 -0.198,-0.065Zm0.16,-0.411c-0.101,-0.035 0.013,-0.217 0.068,-0.198c0.102,0.034 -0.012,0.215 -0.068,0.198Zm0.073,-4.52c-0.488,-0.365 0.581,0.192 0,0Zm0.817,1.993c0.072,0.212 -0.092,0.251 -0.073,0.427c-0.164,-0.02 -0.242,-0.07 -0.259,-0.149c-0.016,0.006 -0.029,0.015 -0.048,0.021l-0.263,-0.53c0.482,0.011 0.506,-0.493 0.857,0.069c-0.178,0.032 -0.25,0.099 -0.299,0.175l0.085,-0.013Zm0.324,-2.254c-0.56,0.568 -0.648,-0.597 0,0Zm-0.139,-1.028l-0.133,-0.263l0.265,-0.132l0.132,0.266l-0.264,0.129Zm0.423,3.913c0.035,-0.1 0.217,0.012 0.198,0.068c-0.035,0.101 -0.215,-0.013 -0.198,-0.068Zm0.3,-0.902l-0.043,-0.27l0.27,-0.042l0.042,0.27l-0.269,0.042Zm0.782,-2.19c0.201,0.15 0.25,0.47 0.104,0.675c-0.412,0.128 -0.619,-0.025 -0.623,-0.457c0.245,-0.021 0.259,-0.209 0.519,-0.218Zm-0.332,3.873c-0.102,-0.035 0.012,-0.217 0.068,-0.2c0.102,0.036 -0.013,0.217 -0.068,0.2Zm0.038,0.476l-0.13,-0.265l0.265,-0.13l0.131,0.264l-0.266,0.131Zm0.508,-1.069c0.396,0.402 -0.503,-0.256 0,-0Zm0.021,1.137c0.131,-0.061 0.183,0.111 0.264,0.198c-0.131,0.062 -0.184,-0.111 -0.264,-0.198Zm0.483,-0.657c-0.03,0.205 -0.121,0.004 -0.27,0.042c0.007,-0.176 0.246,-0.179 0.27,-0.042Zm5.553,10.642c3.564,-0.739 6.578,-1.452 9.206,-2.127c-0.013,-0.068 0.086,-0.169 0.128,-0.148c0.043,0.024 0.037,0.07 0.012,0.112c12.528,-3.231 16.342,-5.592 30.041,-5.761c1.822,-0.022 -4.838,-2.231 -12.501,-2.42c-0.002,0.13 -0.06,0.281 -0.061,0.428c-0.197,0.041 -0.323,-0.129 -0.526,-0.067c0.008,-0.126 0.007,-0.255 0.045,-0.371c-3.307,-0.04 -6.764,0.312 -9.786,1.384c-4.995,1.774 -9.051,3.177 -12.436,4.307c0.015,0.036 -0.006,0.088 -0.048,0.107c-0.094,0.03 -0.121,-0.009 -0.117,-0.052c-1.042,0.348 -2.019,0.67 -2.94,0.967c0.01,0.018 0.015,0.035 0.009,0.047c-0.029,0.054 -0.092,0.033 -0.136,-0.006c-1.916,0.618 -3.585,1.136 -5.081,1.58l0.07,0.14c-0.215,0.094 -0.399,0.095 -0.553,0.001c-1.24,0.363 -2.361,0.674 -3.405,0.949c0.002,0.026 0.007,0.052 0.021,0.083l-0.264,0.131c-0.041,-0.051 -0.058,-0.094 -0.065,-0.133c-3.777,0.982 -6.583,1.502 -10.583,2.354c-0,-0 0.064,0.001 0.175,0.005c0.013,-0.01 0.026,-0.019 0.036,-0.015c0.009,0.004 0.008,0.011 0.014,0.016c1.08,0.032 5.923,0.14 10.764,-0.262c0.016,-0.125 0.109,-0.223 0.285,-0.292l0.128,0.257c1.602,-0.143 3.193,-0.344 4.634,-0.624c0.951,-0.186 1.9,-0.376 2.848,-0.572c-0.004,-0.009 -0.006,-0.019 -0.013,-0.029c0.037,-0.01 0.069,-0.003 0.099,0.011Zm36.692,-8.656c-0.488,-0.367 0.58,0.193 0,-0Zm-3.56,-0.591c0.002,0.225 -0.128,0.025 -0.282,0.089c-0.021,-0.188 0.234,-0.231 0.282,-0.089Zm-4.2,1.009c-0.122,0.009 -0.182,-0.098 -0.325,-0.053l-0.089,-0.283c0.28,-0.159 0.332,0.118 0.414,0.336Zm-0.748,0.079c0.051,-0.095 0.213,0.046 0.185,0.097c-0.05,0.096 -0.212,-0.046 -0.185,-0.097Zm-0.38,-0.812c0.096,0.049 -0.044,0.211 -0.096,0.186c-0.096,-0.052 0.045,-0.213 0.096,-0.186Zm-0.854,0.96c0.101,0.035 -0.013,0.216 -0.066,0.198c-0.103,-0.035 0.011,-0.216 0.066,-0.198Zm-1.254,-1.267c0.028,-0.073 0.139,-0.118 0.205,-0.178c0.053,0.116 -0.077,0.171 -0.168,0.239c0.026,0.056 0.048,0.137 0.064,0.255c-0.506,0.106 -0.271,-0.511 -0.101,-0.316Zm-11.983,5.802c-0.167,0.025 -0.121,-0.116 -0.043,-0.14c0.168,-0.023 0.122,0.117 0.043,0.14Zm2.044,-1.876c-0.169,0.023 -0.124,-0.117 -0.044,-0.141c0.168,-0.023 0.122,0.117 0.044,0.141Zm0.431,-0.599c-0.167,0.023 -0.123,-0.117 -0.043,-0.141c0.167,-0.023 0.122,0.118 0.043,0.141Zm1.983,-1.812c-0.05,-0.183 0.196,-0.265 0.265,-0.131c0.036,0.221 -0.123,0.043 -0.265,0.131Zm3.874,-0.106c-0.54,-0.286 0.603,0.099 0,0Zm-1.831,1.431c0.049,0.205 0.101,0.407 0.273,0.378c-0.147,0.293 -0.43,0.822 -0.899,0.591c0.033,-0.414 0.21,-0.754 0.626,-0.969Zm-1.611,-2.296c0.094,0.049 -0.046,0.212 -0.099,0.185c-0.094,-0.05 0.048,-0.212 0.099,-0.185Zm-0.179,0.535c-0.167,0.025 -0.121,-0.115 -0.043,-0.14c0.167,-0.024 0.122,0.118 0.043,0.14Zm-0.266,-0.793c0.014,-0.034 0.007,-0.078 -0.003,-0.125c0.172,-0.03 0.197,0.22 0.272,0.379c-0.111,0.063 -0.187,0.056 -0.241,0.013c-0.208,0.463 -0.848,-0.563 -0.028,-0.267Zm-0.445,-0.026c0.115,0.323 -0.202,0.478 -0.462,0.393c-0.116,-0.325 0.201,-0.479 0.462,-0.393Zm-0.034,3.645l0.13,0.265l-0.527,0.262l-0.133,-0.265l0.53,-0.262Zm-0.652,-1.475c-0.197,0.593 -0.94,0.555 -1.119,-0.115c0.251,-0.411 1.009,-0.431 1.119,0.115Zm-1.614,-0.098c0.136,0.04 0.274,0.076 0.467,0.01c0.043,0.258 -0.141,0.396 -0.477,0.456c-0.11,-0.214 0.059,-0.284 0.01,-0.466Zm-1.427,0.438c0.084,-0.067 0.151,-0.079 0.205,-0.06c0.067,-0.029 0.145,-0.052 0.236,-0.069c0.017,0.106 -0.004,0.189 -0.057,0.258c0.026,0.045 0.051,0.093 0.076,0.138c-0.083,0.02 -0.148,-0.021 -0.225,-0.023c-0.073,0.037 -0.162,0.066 -0.269,0.085c-0.019,-0.11 0.006,-0.196 0.064,-0.266l-0.03,-0.063Zm-0.068,0.529c-0.035,0.104 -0.217,-0.012 -0.199,-0.066c0.036,-0.101 0.217,0.012 0.199,0.066Zm-0.272,0.201c-0.192,0.174 0.249,0.679 -0.246,0.696c0.168,-0.317 -0.38,-0.49 0.246,-0.696Zm-0.428,-1.01c0.102,0.034 -0.013,0.215 -0.067,0.198c-0.103,-0.036 0.011,-0.217 0.067,-0.198Zm0.373,2.423c0.204,-0.016 0.227,0.316 0.315,0.522c-0.31,0.145 -0.546,0.145 -0.748,0.077c-0.399,-0.483 0.594,-0.239 0.433,-0.599Zm-1.995,0.919c0.038,0.138 -0.138,0.163 -0.238,0.228c-0.038,-0.137 0.138,-0.163 0.238,-0.228Zm-0.36,-3.019c-0.038,0.015 -0.072,0.025 -0.103,0.029c0.081,0.216 -0.02,0.337 -0.004,0.518c-0.381,0.275 -0.347,-0.236 -0.459,-0.476l0.282,-0.089c-0.148,-0.16 0.102,-0.614 0.284,0.018Zm-1.681,0.58c0.013,0.127 0.097,0.114 0.186,0.097c0.029,0.171 -0.22,0.198 -0.379,0.272c-0.127,-0.224 0.026,-0.3 0.193,-0.369Zm-0.406,1.205c-0.674,0.107 -0.153,-0.889 0,-0Zm-2.157,0.912l0.089,0.283c-0.269,0.136 -0.452,0.108 -0.513,-0.15l0.424,-0.133Zm-0.782,-0.45c0.121,-0.012 0.184,0.096 0.324,0.051c0.009,0.123 -0.097,0.184 -0.052,0.327c-0.123,0.008 -0.185,-0.098 -0.325,-0.053c-0.01,-0.124 0.096,-0.185 0.053,-0.325Zm0.235,1.452c-0.012,0.041 -0.026,0.081 -0.04,0.121c0.044,0.041 0.067,0.106 0.051,0.205l-0.158,0.048c-0.125,0.244 -0.32,0.451 -0.647,0.35c-0.032,-0.413 0.089,-0.778 0.466,-1.054c0.082,0.194 0.164,0.385 0.328,0.33Zm-0.509,-1.832l0.133,0.423l-0.423,0.132c-0.123,-0.299 -0.026,-0.485 0.29,-0.555Zm-0.396,1.207c0.049,-0.097 0.21,0.045 0.184,0.096c-0.049,0.096 -0.211,-0.045 -0.184,-0.096Zm-0.475,-0.011c0.038,0.14 -0.139,0.163 -0.238,0.229c-0.039,-0.138 0.137,-0.163 0.238,-0.229Zm-3.18,2.076c-0.162,0.049 -0.14,-0.096 -0.065,-0.132c0.163,-0.05 0.139,0.096 0.065,0.132Zm0.332,-0.66c-0.161,0.049 -0.138,-0.095 -0.065,-0.132c0.163,-0.049 0.14,0.098 0.065,0.132Zm0.688,-1.017c-0.101,0.616 -0.842,0.696 -1.122,0.062c0.183,-0.446 0.929,-0.584 1.122,-0.062Zm-1.609,0.157c0.141,0.017 0.284,0.031 0.463,-0.065c0.083,0.248 -0.078,0.415 -0.399,0.527c-0.143,-0.195 0.014,-0.291 -0.064,-0.462Zm-1.278,1.952c-0.096,-0.051 0.045,-0.212 0.096,-0.185c0.096,0.051 -0.045,0.212 -0.096,0.185Zm0.352,-1.493c0.083,0.249 -0.078,0.414 -0.398,0.527c-0.083,-0.247 0.078,-0.414 0.398,-0.527Zm-9.746,3.131c-0.05,0.096 -0.212,-0.047 -0.185,-0.097c0.05,-0.095 0.212,0.046 0.185,0.097Zm0.995,-1.246c0.258,-0.062 0.242,-0.267 0.518,-0.318l0.177,0.565c-0.356,0.154 -0.623,0.137 -0.695,-0.247Zm0.85,0.053c-0.102,-0.035 0.012,-0.218 0.068,-0.197c0.102,0.033 -0.012,0.216 -0.068,0.197Zm0.303,0.667c-0.095,-0.049 0.045,-0.21 0.097,-0.183c0.096,0.05 -0.046,0.211 -0.097,0.183Zm2.693,0.154c-0.65,0.213 -0.291,-0.853 -0,-0Zm0.573,-0.64c-0.816,0.233 -0.701,-1.037 -0.027,-1.074c0.151,0.432 0.18,0.803 0.027,1.074Zm0.414,0.336c-0.096,-0.051 0.045,-0.211 0.097,-0.186c0.096,0.051 -0.046,0.212 -0.097,0.186Zm0.247,-1.627l0.271,-0.135c-0.026,-0.065 0.08,-0.175 0.123,-0.153c0.044,0.023 0.037,0.069 0.014,0.109c0.173,0.238 0.071,0.383 0.118,0.578c-0.332,0.33 -0.379,-0.178 -0.526,-0.399Zm2.902,0.868c0.115,-0.339 -0.453,-0.424 0.133,-0.726c-0.162,0.202 0.352,0.633 -0.133,0.726Z" style="fill:#0a060d;fill-rule:nonzero;"/><path d="M40.516,18.558c-15.097,12.023 -27.126,14.708 -27.126,14.708c4.88,0.512 10.409,-1.052 16.307,-3.201c0.003,-0.021 0.003,-0.044 -0.001,-0.067c0.027,0.015 0.045,0.029 0.066,0.044c0.773,-0.283 1.545,-0.571 2.314,-0.863c0.056,-0.145 0.171,-0.242 0.357,-0.203c0.006,0.023 0.005,0.043 0.009,0.063c4.38,-1.673 8.932,-3.535 13.547,-5.008c-0.025,-0.069 0.105,-0.171 0.145,-0.141c0.034,0.023 0.029,0.06 0.011,0.092c0.086,-0.027 0.172,-0.055 0.258,-0.081c-0.01,-0.015 -0.017,-0.032 -0.021,-0.049c0.118,-0.111 0.235,-0.217 0.292,-0.045c-0.001,0.003 -0.002,0.005 -0.001,0.008c1.003,-0.311 2.008,-0.601 3.016,-0.867l-0.073,-0.48c0.208,-0.019 0.416,-0.037 0.413,-0.212c0.126,-0.01 0.147,0.356 0.022,0.596c4.839,-1.245 9.714,-1.886 14.498,-1.261l6.689,1.001c-0,0 -16.558,-15.312 -30.722,-4.034Zm-21.852,13.148c-0.087,-0.064 0.076,-0.202 0.124,-0.168c0.087,0.064 -0.078,0.203 -0.124,0.168Zm5.341,-2.167c0.52,-0.24 0.471,0.299 0.92,0.156c0.046,0.463 -0.907,0.344 -0.92,-0.156Zm3.29,0.976c-0.1,-0.376 -0.044,-0.636 0.348,-0.651c0.094,0.106 0.188,0.213 0.212,0.415c-0.112,0.133 -0.305,0.208 -0.56,0.236Zm3.051,-1.504c-0.452,0.042 -0.427,-0.739 0.033,-0.753c0.232,0.434 0.129,0.376 -0.033,0.753Zm8.628,-7.006c0.086,0.063 -0.077,0.202 -0.123,0.167c-0.087,-0.062 0.077,-0.202 0.123,-0.167Zm-6.351,5.311l-0.045,-0.293l0.292,-0.045l0.045,0.292l-0.292,0.046Zm1.179,0.864c-0.087,-0.065 0.077,-0.202 0.124,-0.168c0.087,0.063 -0.078,0.202 -0.124,0.168Zm0.832,-4.93c-0.087,-0.064 0.076,-0.203 0.123,-0.168c0.088,0.063 -0.077,0.202 -0.123,0.168Zm1.268,1.46c-0.274,0.101 -0.317,-0.633 0.079,-0.461l0.044,0.292c-0.128,-0.007 -0.129,0.078 -0.123,0.169Zm0.785,1.223c-0.086,-0.064 0.077,-0.201 0.125,-0.168c0.085,0.064 -0.079,0.203 -0.125,0.168Zm0.728,0.496c-0.087,-0.065 0.077,-0.204 0.124,-0.169c0.086,0.063 -0.078,0.202 -0.124,0.169Zm0.829,-3.726c-0.064,0.089 -0.203,-0.077 -0.168,-0.123c0.065,-0.087 0.202,0.077 0.168,0.123Zm0.359,-1.549c0.065,-0.086 0.202,0.078 0.168,0.125c-0.063,0.087 -0.202,-0.078 -0.168,-0.125Zm0.206,4.303c-0.001,-0.175 0.248,-0.165 0.416,-0.215c0.003,0.176 -0.247,0.166 -0.416,0.215Zm0.929,-2.982c-0.173,0.002 -0.163,-0.248 -0.213,-0.415l0.439,-0.068c0.13,0.312 -0.247,0.251 -0.226,0.483Zm0.338,1.746c-0.064,0.087 -0.203,-0.077 -0.169,-0.123c0.064,-0.087 0.203,0.077 0.169,0.123Zm5.251,-6.941c0.092,0.243 -0.07,0.294 -0.246,0.339c-0.267,0.062 -0.014,0.507 -0.202,0.628c-0.602,-0.075 -0.297,-1.088 0.448,-0.967Zm-0.964,0.598c-0.002,0.169 -0.133,0.104 -0.146,0.022c0.004,-0.168 0.135,-0.103 0.146,-0.022Zm0.045,3.877c0.087,0.066 -0.077,0.204 -0.123,0.169c-0.088,-0.064 0.076,-0.202 0.123,-0.169Zm-3.528,0.268c0.171,0.002 0.105,0.134 0.022,0.146c-0.168,-0.004 -0.104,-0.136 -0.022,-0.146Zm-0.3,-1.91c0.003,-0.169 0.134,-0.103 0.147,-0.022c-0.002,0.169 -0.134,0.103 -0.147,0.022Zm0.146,3.565l-0.046,-0.293l0.291,-0.045l0.046,0.292l-0.291,0.046Zm0.414,-3.8c-0.086,-0.065 0.078,-0.203 0.123,-0.168c0.089,0.064 -0.075,0.201 -0.123,0.168Zm0.144,0.889c-0.166,-0.383 0.246,-0.339 0.202,-0.629c0.206,0.013 0.178,0.345 0.237,0.561l-0.439,0.068Zm0.656,4.358c-0.088,-0.065 0.077,-0.203 0.123,-0.17c0.086,0.065 -0.076,0.204 -0.123,0.17Zm0.617,-0.843c0.002,-0.169 0.133,-0.103 0.145,-0.023c-0.002,0.171 -0.133,0.105 -0.145,0.023Zm-0.259,-3.397c0.416,-0.215 0.307,0.286 0.381,0.539c-0.262,0.003 -0.373,-0.2 -0.381,-0.539Zm0.896,-0.576c-0.263,0.004 -0.372,-0.2 -0.383,-0.539c0.445,-0.138 0.58,0.286 0.383,0.539Zm0.138,-1.374c-0.593,-0.062 -0.101,-0.501 -0.305,-1c0.893,-0.287 0.672,0.795 0.305,1Zm0.66,4.848c0.141,-0.018 0.139,0.161 0.19,0.27c-0.143,0.018 -0.14,-0.161 -0.19,-0.27Zm-0.057,-6.128c-0.087,-0.065 0.078,-0.203 0.123,-0.169c0.088,0.064 -0.076,0.203 -0.123,0.169Zm0.302,4.586l-0.044,-0.293l0.292,-0.045l0.045,0.292l-0.293,0.046Zm1.023,-3.455l-0.291,0.045l-0.015,-0.101c-0.148,0.027 -0.297,0.002 -0.413,-0.108c-0.165,-0.362 0.228,-0.23 0.393,-0.359c0.14,-0.112 0.095,-0.365 0.392,-0.362c0.324,0.198 0.176,0.53 -0.092,0.712l0.026,0.173Zm0.403,5.188c-0.063,0.088 -0.203,-0.077 -0.168,-0.123c0.064,-0.087 0.203,0.076 0.168,0.123Zm3.154,-6.623l-0.292,0.045l-0.044,-0.292l0.291,-0.045l0.045,0.292Zm-0.235,-0.561c0.086,0.064 -0.078,0.203 -0.125,0.168c-0.086,-0.064 0.077,-0.204 0.125,-0.168Zm-1.067,1.807c-0.435,0.429 0.278,-0.544 -0,-0Zm-1.582,1.304c0.066,-0.277 0.262,-0.064 0.437,-0.067c-0.066,0.276 -0.262,0.061 -0.437,0.067Zm0.472,-1.442c-0.063,0.087 -0.202,-0.076 -0.169,-0.123c0.064,-0.087 0.204,0.078 0.169,0.123Zm-0.078,-2.688c-0.088,-0.064 0.076,-0.202 0.123,-0.167c0.088,0.062 -0.077,0.203 -0.123,0.167Zm0.301,7.433c-0.085,-0.064 0.077,-0.202 0.125,-0.168c0.086,0.064 -0.078,0.203 -0.125,0.168Zm0.607,-2.608c-0.078,-0.23 0.1,-0.272 0.078,-0.46c0.124,0.01 0.169,0.124 0.316,0.101l0.044,0.292l-0.438,0.067Zm0.181,-0.66l0.437,-0.067l0.045,0.292c-0.285,0.094 -0.46,0.041 -0.482,-0.225Zm1.905,-0.572c-0.331,0.178 -0.372,0.155 -1,0.305c-0.448,-0.55 -0.468,-1.339 -0.028,-1.809l-0.002,0c0.159,-0.27 0.288,-0.227 0.332,-0.13c0.227,0.101 0.245,0.499 0.102,0.681c0.25,0.252 0.869,0.53 0.596,0.953Zm10.362,-2.329c0.171,0.003 0.105,0.134 0.024,0.146c-0.171,-0.002 -0.104,-0.135 -0.024,-0.146Zm-1.716,-1.103c0.065,-0.086 0.203,0.078 0.169,0.124c-0.064,0.086 -0.201,-0.077 -0.169,-0.124Zm-1.398,2.017c0.088,0.065 -0.076,0.204 -0.123,0.168c-0.087,-0.063 0.078,-0.202 0.123,-0.168Zm-1.881,-1.338c0.111,0.116 0.218,0.234 0.046,0.291c-0.19,-0.008 -0.192,-0.267 -0.046,-0.291Zm-0.09,1.484c-0.004,0.17 -0.135,0.104 -0.147,0.023c0.001,-0.17 0.134,-0.104 0.147,-0.023Zm-4.132,0.337c0.088,0.065 -0.077,0.203 -0.123,0.167c-0.087,-0.063 0.078,-0.201 0.123,-0.167Zm0.071,1.938c-0.1,0.011 -0.127,-0.072 -0.153,-0.159c-0.156,-0.048 -0.27,-0.152 -0.298,-0.376c0.457,-0.192 0.524,0.105 0.386,0.346c0.026,0.057 0.039,0.132 0.065,0.189Zm0.02,-0.448c-0.087,-0.065 0.077,-0.202 0.123,-0.169c0.087,0.064 -0.077,0.203 -0.123,0.169Zm-0.075,-4.77l-0.047,-0.291l0.292,-0.046l0.047,0.292l-0.292,0.045Zm1.031,7.025c-0.063,0.087 -0.204,-0.077 -0.169,-0.123c0.064,-0.086 0.202,0.076 0.169,0.123Zm0.099,-3.475c-0.088,-0.064 0.076,-0.202 0.124,-0.167c0.085,0.062 -0.078,0.201 -0.124,0.167Zm0.089,0.894c-0.085,-0.064 0.077,-0.203 0.123,-0.169c0.088,0.064 -0.078,0.203 -0.123,0.169Zm0.305,1.908c0.143,-0.018 0.141,0.161 0.192,0.269c-0.142,0.017 -0.141,-0.16 -0.192,-0.269Zm2.544,-0.916c0.005,0.025 0.01,0.049 0.015,0.073c-0.122,-0.009 -0.168,-0.124 -0.313,-0.101l-0.044,-0.291c0.129,-0.051 0.204,-0.023 0.251,0.04c0.132,-0.113 0.436,-0.101 0.406,0.145c-0.016,0.127 -0.189,0.162 -0.315,0.134Zm0.035,-0.689l-0.045,-0.292l0.292,-0.045l0.045,0.292l-0.292,0.045Zm0.532,-1.138c0.009,-0.01 -0.295,-0.09 -0.314,-0.101c-0.011,-0.008 -0.144,0.032 -0.145,0.022c-0.173,-0.504 0.644,-0.113 0.459,0.079Zm0.416,0.092c-0.109,-0.117 -0.217,-0.232 -0.045,-0.291c0.189,0.008 0.193,0.267 0.045,0.291Zm0.77,0.622c-0.264,0.023 -0.28,0.227 -0.561,0.236l-0.067,-0.437c0.263,-0.006 0.708,-0.26 0.628,0.201Zm0.124,1.774c-0.078,-0.228 0.099,-0.272 0.079,-0.459l0.29,-0.046l0.068,0.437l-0.437,0.068Zm0.895,-5.208l-0.291,0.045l-0.068,-0.439l0.436,-0.067c0.079,0.231 -0.099,0.274 -0.077,0.461Zm0.829,2.424c0.057,0.07 -0.089,0.191 -0.133,0.159c-0.064,-0.047 0.007,-0.134 0.067,-0.165c-0.011,0.001 -0.017,-0.002 -0.029,-0.001c-0.001,-0.176 0.249,-0.164 0.417,-0.214c0.242,0.314 0.024,0.274 0.257,0.707c-0.339,0.039 -0.309,-0.427 -0.579,-0.486Zm-0.009,-0.618c0.189,-0.387 0.287,-0.748 0.808,-0.572c0.195,0.709 -0.43,0.959 -0.808,0.572Zm1.327,0.831l-0.047,-0.293l0.292,-0.044l0.047,0.292l-0.292,0.045Zm-0.042,-1.028c0.149,0.093 0.354,0.104 0.607,0.055l0.112,0.729c-0.296,-0.184 -0.768,-0.128 -0.719,-0.784Zm3.177,0.877c0.141,-0.017 0.14,0.16 0.19,0.269c-0.142,0.018 -0.141,-0.161 -0.19,-0.269Zm1.391,1.278c-0.064,0.088 -0.202,-0.075 -0.169,-0.122c0.066,-0.087 0.204,0.077 0.169,0.122Zm0.304,1.001c-0.064,0.086 -0.203,-0.077 -0.168,-0.125c0.064,-0.086 0.203,0.078 0.168,0.125Zm1.336,-1.999l0.044,0.292l-0.292,0.045l-0.045,-0.292l0.293,-0.045Zm-0.354,2.722c-0.088,-0.065 0.077,-0.202 0.124,-0.168c0.086,0.063 -0.076,0.203 -0.124,0.168Zm0.274,-2.162c0.522,0.272 -0.422,0.668 -0,-0Zm0.868,2.443c-0.015,-0.143 0.162,-0.139 0.269,-0.19c0.019,0.142 -0.16,0.141 -0.269,0.19Zm-44.349,20.49c0.008,0.194 -0.049,0.338 -0.175,0.434c0.136,-0.042 0.263,-0.054 0.382,-0.042c0.117,0.014 0.23,0.024 0.34,0.031c0.109,0.007 0.221,0.009 0.334,0c0.114,-0.007 0.233,-0.059 0.358,-0.157c-0.211,-0.49 -0.582,-0.733 -1.114,-0.732c-0.092,0.118 -0.134,0.274 -0.125,0.466m2.247,0.675l0.065,0.225c0.076,0.015 0.138,-0.012 0.189,-0.079c0.053,-0.067 0.098,-0.128 0.138,-0.178c0.041,-0.051 0.08,-0.072 0.118,-0.066c0.036,0.006 0.076,0.078 0.117,0.214l0.174,-0.099l0.1,0.176c0.266,-0.037 0.346,-0.219 0.24,-0.543c-0.087,0.002 -0.153,-0.024 -0.2,-0.08c-0.046,-0.056 -0.094,-0.111 -0.14,-0.167c-0.047,-0.056 -0.096,-0.108 -0.149,-0.154c-0.053,-0.049 -0.12,-0.064 -0.203,-0.049c-0.189,0.067 -0.319,0.18 -0.388,0.336c-0.071,0.157 -0.169,0.284 -0.294,0.38l0.233,0.084Zm0.652,0.242c-0.194,0.051 -0.317,0.151 -0.375,0.298c-0.057,0.149 -0.062,0.292 -0.013,0.434c0.049,0.142 0.148,0.256 0.295,0.343c0.145,0.088 0.332,0.087 0.56,-0.002c0.097,-0.161 0.097,-0.328 0,-0.495c-0.097,-0.168 -0.163,-0.342 -0.198,-0.524l-0.175,0.1l-0.094,-0.154Zm-1.089,-0.156c-0.196,0.024 -0.343,0.088 -0.438,0.193l0.113,0.583c0.355,-0.027 0.514,-0.215 0.474,-0.567l-0.178,-0.031l0.029,-0.178Zm2.57,1.67c0.067,0.052 0.144,0.077 0.231,0.073c0.085,-0.001 0.155,-0.029 0.209,-0.083c0.054,-0.054 0.056,-0.132 0.008,-0.241c-0.031,-0.078 -0.096,-0.101 -0.197,-0.068c-0.101,0.034 -0.195,0.052 -0.281,0.055c-0.047,0.125 -0.039,0.212 0.03,0.264m7.835,11.935c0.053,0.092 0.082,0.078 0.09,-0.039c-0.003,-0.085 -0.029,-0.174 -0.073,-0.265c-0.048,-0.093 -0.074,-0.081 -0.081,0.036c-0.011,0.089 0.01,0.178 0.064,0.268m-11.431,-13.276c-0.068,0.056 -0.12,0.12 -0.157,0.191c-0.036,0.073 -0.052,0.141 -0.047,0.204c0.005,0.065 0.029,0.093 0.07,0.083c-0.002,-0.086 0.051,-0.131 0.157,-0.138c0.107,-0.006 0.2,-0.024 0.281,-0.054l-0.069,-0.353c-0.089,-0.012 -0.167,0.01 -0.235,0.067m0.189,-3.08l-0.03,0.178c0.191,0.092 0.382,0.145 0.57,0.159c0.191,0.013 0.377,0.017 0.564,0.009c0.185,-0.007 0.368,-0.007 0.551,0.001c0.18,0.008 0.358,0.046 0.528,0.113c0.078,-0.043 0.11,-0.083 0.096,-0.116c-0.014,-0.033 -0.035,-0.068 -0.063,-0.106c-0.029,-0.036 -0.055,-0.075 -0.076,-0.116c-0.023,-0.038 -0.003,-0.084 0.059,-0.14c0.25,-0.121 0.521,-0.201 0.815,-0.245c0.295,-0.043 0.502,0.068 0.625,0.332c-0.132,-0.018 -0.235,-0.008 -0.306,0.027c-0.074,0.036 -0.124,0.086 -0.155,0.149c-0.032,0.066 -0.055,0.135 -0.068,0.207c-0.014,0.076 -0.036,0.144 -0.068,0.208c0.091,0.097 0.184,0.185 0.278,0.26c0.093,0.075 0.19,0.146 0.289,0.212c0.03,0.081 0.041,0.154 0.032,0.221c-0.008,0.065 -0.017,0.126 -0.03,0.178c-0.011,0.054 -0.017,0.115 -0.017,0.187c-0.001,0.072 0.023,0.154 0.069,0.245c-0.077,0.046 -0.129,0.058 -0.154,0.043c-0.025,-0.017 -0.045,-0.047 -0.06,-0.087c-0.016,-0.043 -0.028,-0.087 -0.036,-0.133c-0.01,-0.046 -0.025,-0.09 -0.047,-0.131c-0.196,-0.192 -0.437,-0.303 -0.724,-0.334c-0.286,-0.031 -0.556,-0.102 -0.807,-0.21c-0.046,0.138 -0.045,0.27 0.002,0.399c0.046,0.127 0.125,0.238 0.237,0.331c0.112,0.094 0.242,0.154 0.392,0.183c0.149,0.03 0.311,0.012 0.486,-0.051c-0.049,0.131 -0.088,0.264 -0.117,0.401c-0.03,0.142 -0.038,0.28 -0.026,0.414c0.012,0.136 0.052,0.268 0.118,0.387c0.067,0.124 0.173,0.223 0.317,0.295c0.144,0.002 0.245,-0.029 0.305,-0.091c0.06,-0.063 0.096,-0.137 0.108,-0.226c0.011,-0.089 0.023,-0.181 0.032,-0.277c0.01,-0.094 0.046,-0.171 0.106,-0.226c0.148,0.015 0.223,0.069 0.227,0.162c0.003,0.093 -0.007,0.189 -0.03,0.286c-0.025,0.098 -0.025,0.189 -0.002,0.269c0.023,0.084 0.129,0.128 0.317,0.134c-0.04,0.166 -0.073,0.382 -0.101,0.647c-0.028,0.263 0.054,0.477 0.244,0.641c0.143,0.001 0.262,-0.017 0.356,-0.058c0.088,-0.037 0.173,-0.082 0.254,-0.135c0.073,-0.049 0.146,-0.099 0.218,-0.151c0.069,-0.048 0.159,-0.091 0.267,-0.127c-0.062,0.343 -0.198,0.557 -0.405,0.641c-0.206,0.082 -0.446,0.126 -0.718,0.128c-0.274,0.003 -0.553,-0.007 -0.839,-0.031c-0.284,-0.025 -0.53,0.027 -0.736,0.154c-0.048,-0.178 -0.048,-0.326 0,-0.443c0.05,-0.118 0.032,-0.283 -0.052,-0.497c-0.458,0.016 -0.698,0.185 -0.722,0.507c-0.167,-0.27 -0.378,-0.476 -0.627,-0.623c-0.252,-0.145 -0.479,-0.328 -0.68,-0.547c-0.133,-0.019 -0.22,-0.001 -0.259,0.05c-0.042,0.051 -0.07,0.108 -0.088,0.168c-0.015,0.06 -0.036,0.118 -0.063,0.174c-0.024,0.055 -0.095,0.081 -0.212,0.074l0.103,0.195l-0.163,0.161l0.025,0.125c0.049,0.106 0.043,0.184 -0.021,0.232c-0.062,0.047 -0.146,0.078 -0.252,0.091c-0.103,0.014 -0.207,0.016 -0.31,0.007c-0.104,-0.009 -0.172,-0.025 -0.205,-0.046c0.026,0.281 0.1,0.476 0.222,0.582c0.121,0.105 0.257,0.155 0.407,0.148c0.149,-0.008 0.305,-0.056 0.467,-0.145c0.162,-0.089 0.3,-0.189 0.408,-0.295c0.029,0.081 0.042,0.146 0.038,0.198c-0.005,0.05 -0.013,0.096 -0.029,0.134c-0.013,0.04 -0.026,0.078 -0.041,0.116c-0.014,0.039 -0.007,0.092 0.02,0.158c-0.253,-0.037 -0.471,-0.016 -0.658,0.064c-0.181,0.077 -0.358,0.162 -0.532,0.254c-0.17,0.09 -0.336,0.147 -0.496,0.173c-0.161,0.023 -0.336,-0.04 -0.522,-0.191c-0.067,-0.116 -0.073,-0.19 -0.022,-0.222c0.051,-0.031 0.12,-0.052 0.204,-0.061c0.085,-0.01 0.165,-0.023 0.241,-0.037c0.076,-0.014 0.108,-0.063 0.091,-0.147c-0.02,-0.096 -0.067,-0.156 -0.143,-0.177c-0.076,-0.021 -0.153,-0.043 -0.229,-0.064c-0.075,-0.021 -0.14,-0.059 -0.194,-0.113c-0.054,-0.054 -0.069,-0.171 -0.045,-0.347c0.157,-0.002 0.277,-0.012 0.36,-0.026c0.085,-0.019 0.154,-0.046 0.211,-0.085c0.06,-0.042 0.116,-0.089 0.167,-0.141c0.054,-0.054 0.14,-0.113 0.257,-0.179c-0.201,-0.056 -0.403,-0.11 -0.604,-0.163c-0.189,-0.05 -0.372,-0.115 -0.546,-0.197c0.083,-0.246 0.089,-0.503 0.024,-0.77c-0.067,-0.268 -0.156,-0.539 -0.266,-0.813c-0.11,-0.272 -0.211,-0.547 -0.301,-0.826c-0.091,-0.277 -0.118,-0.549 -0.083,-0.815c0.144,0.002 0.326,-0.002 0.549,-0.008c0.221,-0.007 0.435,-0.036 0.642,-0.083c0.206,-0.047 0.379,-0.117 0.521,-0.208c0.14,-0.093 0.198,-0.238 0.174,-0.434l0.105,-0.02l-0.105,-0.197l0.164,-0.16c-0.079,-0.114 -0.213,-0.193 -0.401,-0.235c-0.189,-0.042 -0.393,-0.061 -0.616,-0.054c-0.216,0.006 -0.431,0.034 -0.642,0.082c-0.206,0.047 -0.369,0.096 -0.489,0.149c-0.383,0.175 -0.638,0.419 -0.764,0.732c-0.126,0.313 -0.18,0.664 -0.162,1.056c0.018,0.393 0.081,0.823 0.187,1.292c0.105,0.468 0.203,0.938 0.295,1.409c0.103,0.529 0.198,1.057 0.287,1.586c0.088,0.53 0.255,0.943 0.5,1.24c0.48,0.181 1.051,0.228 1.712,0.143c0.659,-0.084 1.347,-0.208 2.065,-0.369c0.716,-0.161 1.434,-0.322 2.151,-0.483c0.716,-0.161 1.378,-0.235 1.985,-0.222c0.574,3.096 1.156,6.077 1.749,8.94c0.592,2.864 1.13,5.652 1.615,8.363c0.095,0.49 0.179,0.981 0.254,1.473c0.074,0.493 0.162,0.983 0.264,1.47c0.102,0.485 0.226,0.957 0.372,1.418c0.146,0.457 0.34,0.897 0.579,1.312c0.501,0.061 1.092,0.056 1.769,-0.009c0.678,-0.067 1.369,-0.171 2.077,-0.307c0.698,-0.135 1.39,-0.299 2.074,-0.49c0.675,-0.189 1.268,-0.376 1.779,-0.562c0.102,-0.436 0.144,-0.884 0.129,-1.341c-0.018,-0.458 -0.066,-0.919 -0.141,-1.387c-0.078,-0.477 -0.174,-0.952 -0.287,-1.423c-0.115,-0.481 -0.22,-0.964 -0.315,-1.45c-0.291,-1.497 -0.585,-2.993 -0.882,-4.489c-0.301,-1.507 -0.598,-3.015 -0.891,-4.523c-0.289,-1.488 -0.571,-2.976 -0.847,-4.466c-0.271,-1.472 -0.516,-2.914 -0.734,-4.326c0.333,-0.15 0.712,-0.267 1.141,-0.351c0.455,-0.087 0.914,-0.154 1.374,-0.201c0.489,-0.053 0.978,-0.101 1.473,-0.147c0.495,-0.045 0.962,-0.103 1.402,-0.176c0.439,-0.069 0.837,-0.17 1.194,-0.297c0.356,-0.125 0.637,-0.295 0.84,-0.508c0.228,-0.23 0.347,-0.505 0.357,-0.824c0.01,-0.319 -0.028,-0.649 -0.117,-0.993c-0.089,-0.345 -0.198,-0.683 -0.326,-1.014c-0.13,-0.334 -0.223,-0.642 -0.276,-0.92c-0.068,-0.273 -0.103,-0.561 -0.103,-0.864c-0.002,-0.302 -0.043,-0.588 -0.125,-0.861c-0.088,-0.321 -0.179,-0.641 -0.273,-0.961c-0.084,-0.286 -0.257,-0.511 -0.52,-0.677c-0.629,0.023 -1.289,0.083 -1.982,0.181c-0.714,0.103 -1.425,0.22 -2.135,0.351c-0.746,0.138 -1.491,0.286 -2.233,0.445c-0.76,0.162 -1.521,0.317 -2.283,0.465c-1.547,0.301 -3.094,0.594 -4.643,0.88c-1.542,0.286 -2.983,0.574 -4.322,0.863c-0.277,0.053 -0.556,0.104 -0.834,0.151c-0.286,0.048 -0.569,0.113 -0.847,0.196c-0.272,0.083 -0.525,0.189 -0.758,0.322c-0.233,0.131 -0.416,0.302 -0.547,0.515l0.094,0.155Zm4.594,-0.128c-0.04,0.017 -0.087,0.013 -0.14,-0.005c-0.055,-0.018 -0.104,-0.055 -0.151,-0.11c-0.047,-0.057 -0.062,-0.113 -0.045,-0.175c0.088,0.012 0.155,0.041 0.2,0.091c0.046,0.049 0.113,0.072 0.198,0.07c-0.001,0.072 -0.021,0.115 -0.062,0.129m1.92,1.106l-0.174,0.099l0.045,0.228l-0.46,0.089l0.096,0.155l-0.153,0.095c0.012,0.069 0.004,0.117 -0.027,0.144c-0.03,0.029 -0.05,0.067 -0.054,0.108c-0.071,0.014 -0.115,0.009 -0.134,-0.016c-0.019,-0.026 -0.057,-0.04 -0.115,-0.042c-0.013,-0.07 -0.007,-0.118 0.026,-0.147c0.031,-0.027 0.041,-0.062 0.033,-0.103l0.03,-0.178l0.196,0.005l-0.065,-0.334l0.458,-0.088l0.009,-0.174c0.027,-0.005 0.049,-0.038 0.066,-0.1c0.018,-0.061 0.022,-0.151 0.012,-0.272c-0.008,-0.12 -0.037,-0.298 -0.081,-0.535c0.066,-0.027 0.122,-0.034 0.167,-0.022c0.042,0.012 0.085,0.026 0.126,0.04c0.04,0.014 0.082,0.028 0.128,0.041c0.045,0.013 0.107,-0.004 0.185,-0.046c-0.012,0.088 -0.003,0.155 0.027,0.199c0.029,0.043 0.063,0.083 0.1,0.12c0.038,0.039 0.068,0.085 0.09,0.135c0.025,0.052 0.039,0.121 0.041,0.207c-0.085,0.002 -0.155,0.017 -0.207,0.041c-0.054,0.025 -0.098,0.05 -0.136,0.079c-0.04,0.03 -0.081,0.06 -0.123,0.089c-0.045,0.031 -0.119,0.043 -0.221,0.032l0.115,0.151Zm12.573,-2.671c-0.15,-0.063 -0.302,-0.131 -0.461,-0.202c0.04,-0.166 0.137,-0.248 0.287,-0.248c0.151,-0.002 0.222,0.128 0.216,0.388c0.195,-0.023 0.379,-0.027 0.549,-0.009c0.168,0.017 0.374,-0.018 0.615,-0.109c-0.025,0.091 -0.032,0.172 -0.018,0.242c0.015,0.073 0.04,0.145 0.074,0.212c0.037,0.077 0.067,0.158 0.09,0.241c0.025,0.089 0.043,0.204 0.055,0.346c-0.146,-0.016 -0.279,-0 -0.401,0.045c-0.114,0.042 -0.227,0.086 -0.34,0.131c-0.113,0.043 -0.231,0.073 -0.35,0.09c-0.126,0.016 -0.27,-0.016 -0.43,-0.1c0.054,-0.096 0.082,-0.207 0.087,-0.331c0.004,-0.122 0.099,-0.195 0.281,-0.217c-0.02,-0.255 -0.106,-0.413 -0.254,-0.479m-14.689,2.942c-0.066,-0.081 -0.1,-0.2 -0.102,-0.358l0.333,-0.064l0.089,0.456c-0.147,0.058 -0.253,0.048 -0.32,-0.034m8.666,-1.393c-0.063,0.013 -0.126,0.004 -0.19,-0.027c-0.062,-0.032 -0.113,-0.086 -0.151,-0.166c-0.036,-0.079 -0.052,-0.177 -0.046,-0.294c0.311,-0.03 0.492,0.091 0.547,0.37c-0.045,0.066 -0.098,0.105 -0.16,0.117m-6.729,2.474c0.007,-0.071 0.026,-0.141 0.057,-0.206c0.031,-0.063 0.066,-0.124 0.105,-0.182c0.039,-0.058 0.066,-0.124 0.08,-0.2c0.098,-0.017 0.171,-0.01 0.219,0.022c0.051,0.034 0.095,0.08 0.136,0.136c0.04,0.059 0.077,0.121 0.11,0.184c0.035,0.066 0.077,0.115 0.128,0.15c0.084,-0.004 0.148,-0.024 0.192,-0.06c0.043,-0.037 0.086,-0.075 0.13,-0.113c0.043,-0.036 0.086,-0.073 0.129,-0.111c0.043,-0.037 0.107,-0.063 0.19,-0.08c-0.001,0.144 -0.056,0.252 -0.165,0.324c-0.108,0.072 -0.233,0.128 -0.376,0.17c-0.143,0.043 -0.295,0.078 -0.454,0.11c-0.158,0.03 -0.298,0.08 -0.414,0.145c-0.053,-0.119 -0.074,-0.217 -0.067,-0.289m9.111,-0.876c0.017,-0.097 0.068,-0.204 0.153,-0.32c0.086,-0.118 0.182,-0.233 0.289,-0.349c0.107,-0.113 0.181,-0.211 0.225,-0.291c0.07,0.072 0.09,0.159 0.061,0.258c-0.032,0.1 -0.081,0.202 -0.147,0.308c-0.065,0.108 -0.137,0.215 -0.217,0.324c-0.079,0.108 -0.14,0.204 -0.182,0.282c-0.139,-0.043 -0.199,-0.114 -0.182,-0.212m-2.533,-0.209l0.249,-0.048l0.04,0.209l-0.248,0.047l-0.041,-0.208Zm5.009,-0.769c0.077,-0.122 0.21,-0.216 0.398,-0.282c-0,0.072 0.01,0.143 0.03,0.21c0.021,0.069 0.067,0.103 0.138,0.103c-0.06,0.213 -0.182,0.338 -0.368,0.373c-0.188,0.038 -0.362,0.014 -0.523,-0.07c0.14,-0.1 0.248,-0.211 0.325,-0.334m-12.619,2.595c0.228,-0.088 0.36,-0.034 0.398,0.159l-0.355,0.069l-0.043,-0.228Zm5.246,-0.546c-0.069,-0.059 -0.122,-0.11 -0.158,-0.153c-0.038,-0.043 -0.069,-0.079 -0.098,-0.109c-0.028,-0.031 -0.039,-0.041 -0.037,-0.026c-0.002,-0.086 0.019,-0.13 0.061,-0.131c0.042,-0.001 0.09,0.021 0.143,0.069c0.053,0.048 0.088,0.105 0.109,0.173c0.02,0.069 0.014,0.127 -0.02,0.177m6.94,-0.831c0.063,0.031 0.101,0.078 0.113,0.14c0.014,0.062 -0.014,0.11 -0.079,0.144c-0.065,0.034 -0.167,-0.012 -0.309,-0.144c0.119,-0.125 0.211,-0.171 0.275,-0.14m-11.101,3.301l0.23,-0.043l0.044,0.228l-0.228,0.044l-0.046,-0.229Zm2.559,0.335c-0.02,-0.062 -0.025,-0.127 -0.016,-0.192c0.009,-0.066 0.02,-0.137 0.035,-0.211c0.014,-0.076 0.015,-0.14 0.005,-0.196c0.081,-0.029 0.143,-0.024 0.187,0.018c0.043,0.041 0.1,0.056 0.171,0.041c-0.007,0.117 -0.04,0.225 -0.1,0.322c-0.061,0.099 -0.1,0.208 -0.12,0.328c-0.089,-0.013 -0.143,-0.049 -0.162,-0.11m2.232,0.213c0.035,-0.043 0.052,-0.1 0.052,-0.172l0.23,-0.045l0.064,0.335l-0.353,0.067c-0.031,-0.08 -0.027,-0.141 0.007,-0.185m-1.191,0.2l0.228,-0.045l0.041,0.208l-0.229,0.044l-0.04,-0.207Zm2.87,-0.558c-0.012,0.16 0.02,0.255 0.099,0.283c0.077,0.027 0.121,0.113 0.134,0.254c-0.093,0.033 -0.167,0.04 -0.221,0.023c-0.055,-0.019 -0.099,-0.051 -0.137,-0.094c-0.037,-0.042 -0.077,-0.081 -0.12,-0.116c-0.042,-0.036 -0.101,-0.053 -0.172,-0.053c-0.022,-0.183 0.117,-0.284 0.417,-0.297m-2.808,2.542c0.181,-0.028 0.321,-0.087 0.419,-0.179c0.035,0.11 0.028,0.183 -0.023,0.22c-0.049,0.039 -0.119,0.067 -0.21,0.085c-0.094,0.018 -0.189,0.029 -0.285,0.033c-0.099,0.006 -0.182,0.022 -0.25,0.049c0.051,-0.111 0.167,-0.18 0.349,-0.208m-1.43,1.972c0.083,-0.087 0.187,-0.146 0.31,-0.179c0.124,-0.03 0.25,-0.027 0.379,0.013c0.132,0.039 0.221,0.112 0.27,0.218c-0.014,0.075 -0.062,0.123 -0.144,0.147c-0.092,0.025 -0.186,0.043 -0.281,0.054c-0.105,0.013 -0.21,0.026 -0.315,0.039c-0.105,0.013 -0.199,0.036 -0.279,0.066c-0.044,-0.15 -0.023,-0.269 0.06,-0.358m4.184,-0.575c-0.055,0.025 -0.106,0.028 -0.16,0.01c-0.055,-0.019 -0.101,-0.053 -0.139,-0.103c-0.04,-0.05 -0.046,-0.12 -0.02,-0.212c0.053,-0.024 0.095,-0.029 0.127,-0.014c0.032,0.016 0.061,0.038 0.089,0.069c0.025,0.029 0.052,0.056 0.081,0.082c0.025,0.023 0.06,0.031 0.101,0.022c0,0.073 -0.027,0.12 -0.079,0.146m-5.114,1.339l0.228,-0.044l0.045,0.228l-0.229,0.045l-0.044,-0.229Zm2.059,0.82c0.05,-0.032 0.127,-0.064 0.228,-0.099c0.101,-0.034 0.206,-0.068 0.315,-0.104c0.107,-0.036 0.188,-0.065 0.241,-0.09c0.016,0.083 -0,0.148 -0.049,0.193c-0.049,0.046 -0.114,0.08 -0.196,0.102c-0.082,0.024 -0.168,0.04 -0.261,0.052c-0.087,0.01 -0.174,0.023 -0.261,0.039c-0.064,-0.03 -0.07,-0.062 -0.017,-0.093m3.547,-0.184c-0.014,-0.067 -0.014,-0.144 -0.002,-0.225c0.014,-0.081 0.035,-0.162 0.063,-0.24c0.027,-0.075 0.043,-0.143 0.046,-0.202c0.131,0.004 0.209,0.038 0.237,0.106c0.027,0.066 0.026,0.141 -0,0.225c-0.027,0.085 -0.064,0.171 -0.112,0.26c-0.047,0.087 -0.079,0.163 -0.096,0.224c-0.078,-0.028 -0.123,-0.077 -0.136,-0.148m-2.114,2.009c-0.016,-0.01 -0.022,-0.002 -0.016,0.025c0.005,0.028 0.018,0.062 0.04,0.1l0.104,0.196l-0.143,0.157c0.065,0.118 0.156,0.2 0.275,0.249c0.117,0.05 0.271,0.042 0.459,-0.025l0.134,0.687c-0.095,0.032 -0.162,0.025 -0.2,-0.026c-0.04,-0.053 -0.08,-0.106 -0.117,-0.161c-0.04,-0.056 -0.087,-0.094 -0.141,-0.113c-0.054,-0.017 -0.145,0.015 -0.273,0.096c0.218,0.304 0.321,0.596 0.312,0.878c-0.01,0.283 -0.037,0.61 -0.08,0.977c0.152,0.345 0.382,0.566 0.69,0.664c0.307,0.1 0.65,0.162 1.03,0.189c-0.012,0.161 -0.059,0.296 -0.137,0.405c-0.081,0.111 -0.165,0.221 -0.25,0.329c-0.086,0.111 -0.161,0.23 -0.222,0.357c-0.062,0.126 -0.075,0.28 -0.039,0.461c-0.27,0.039 -0.54,0.077 -0.81,0.112c-0.246,0.034 -0.474,0.043 -0.686,0.025c-0.212,-0.016 -0.405,-0.067 -0.58,-0.156c-0.176,-0.088 -0.348,-0.23 -0.515,-0.429c0.122,-0.037 0.23,-0.09 0.325,-0.16c0.093,-0.067 0.243,-0.101 0.445,-0.096l0.03,-0.179l0.174,0.008c-0.002,-0.085 0.066,-0.141 0.205,-0.169l0.183,0.051l-0.01,0.175l0.457,-0.09c-0.064,-0.331 -0.176,-0.574 -0.334,-0.723c-0.159,-0.147 -0.349,-0.236 -0.571,-0.266c-0.221,-0.029 -0.469,-0.012 -0.745,0.049c-0.277,0.059 -0.565,0.134 -0.863,0.221c0.067,-0.1 0.154,-0.189 0.261,-0.266c0.103,-0.076 0.203,-0.157 0.299,-0.241c0.091,-0.084 0.162,-0.18 0.213,-0.291c0.05,-0.11 0.065,-0.25 0.048,-0.418l-0.117,-0.043l0.092,-0.083c-0.03,-0.082 -0.059,-0.12 -0.087,-0.113c-0.028,0.006 -0.058,0.026 -0.095,0.062c-0.038,0.037 -0.078,0.074 -0.12,0.108c-0.043,0.039 -0.095,0.048 -0.156,0.031c-0.024,-0.051 -0.054,-0.096 -0.091,-0.134c-0.037,-0.038 -0.074,-0.077 -0.108,-0.118c-0.039,-0.043 -0.072,-0.094 -0.106,-0.153c-0.033,-0.058 -0.051,-0.137 -0.057,-0.236c0.155,-0.015 0.292,-0.038 0.408,-0.068c0.117,-0.03 0.203,-0.088 0.258,-0.17c-0.01,-0.127 0.022,-0.224 0.095,-0.288c0.075,-0.064 0.148,-0.129 0.222,-0.195c0.074,-0.064 0.136,-0.142 0.182,-0.229c0.048,-0.088 0.049,-0.208 0.006,-0.357l0.707,-0.138l-0.103,-0.196c0.008,-0.03 -0.012,-0.054 -0.057,-0.074c-0.047,-0.02 -0.122,-0.035 -0.225,-0.044c-0.102,-0.009 -0.274,-0.003 -0.516,0.015c-0.174,-0.239 -0.167,-0.457 0.025,-0.654c0.192,-0.194 0.473,-0.305 0.842,-0.335c0.023,0.125 0.05,0.221 0.077,0.287c0.025,0.064 0.052,0.127 0.08,0.189c0.026,0.059 0.045,0.121 0.057,0.184c0.012,0.062 -0,0.147 -0.036,0.255c-0.07,-0.057 -0.112,-0.093 -0.129,-0.105m1.728,0.949c-0.063,-0.283 -0.088,-0.62 -0.078,-1.009c0.141,-0.014 0.228,0.008 0.262,0.067c0.033,0.058 0.04,0.132 0.021,0.222c-0.021,0.1 -0.037,0.2 -0.049,0.302c-0.015,0.111 0.008,0.21 0.068,0.298c0.133,0.09 0.271,0.156 0.418,0.2c0.144,0.044 0.332,0.03 0.563,-0.045c0.021,0.112 0.002,0.198 -0.057,0.26c-0.061,0.062 -0.141,0.11 -0.243,0.144c-0.101,0.034 -0.211,0.062 -0.328,0.086c-0.119,0.023 -0.233,0.045 -0.344,0.067c-0.072,0 -0.107,0.024 -0.104,0.074c0.002,0.049 0.009,0.103 0.02,0.157c0.011,0.057 0.01,0.103 -0.004,0.143c-0.014,0.037 -0.075,0.045 -0.179,0.024c0.085,-0.377 0.096,-0.707 0.034,-0.99m1.671,-1.232c0.067,-0.02 0.095,-0.065 0.081,-0.133c0.086,-0.002 0.136,0.047 0.149,0.154c0.013,0.105 0.035,0.198 0.065,0.279c-0.15,0.043 -0.274,0.049 -0.375,0.018c-0.098,-0.031 -0.149,-0.124 -0.151,-0.284c0.086,-0.001 0.163,-0.012 0.231,-0.034m0.209,1.245c-0.042,-0.108 -0.089,-0.214 -0.137,-0.32c0.261,-0.064 0.401,0.067 0.421,0.394c-0.147,0.057 -0.242,0.033 -0.284,-0.074m-0.396,1.566c0.091,-0.119 0.192,-0.232 0.301,-0.34l0.108,0.562l-0.686,0.134c0.092,-0.119 0.185,-0.238 0.277,-0.356m-0.537,2.349c-0.041,-0.064 -0.063,-0.138 -0.066,-0.224c-0.002,-0.086 -0.001,-0.18 -0.001,-0.281c0.002,-0.101 -0.008,-0.215 -0.032,-0.339c0.383,-0.031 0.649,0.119 0.799,0.449c0.002,0.158 -0.048,0.276 -0.147,0.353c-0.1,0.077 -0.215,0.148 -0.346,0.217c-0.097,-0.052 -0.166,-0.111 -0.207,-0.175m-3.181,1.622c-0.088,-0.004 -0.165,-0.029 -0.23,-0.074c-0.067,-0.044 -0.118,-0.106 -0.155,-0.185c-0.037,-0.08 -0.027,-0.153 0.032,-0.223c0.085,0.07 0.193,0.107 0.323,0.11c0.13,0.003 0.204,0.09 0.222,0.259c-0.042,0.08 -0.105,0.117 -0.192,0.113m3.492,-0.582l-0.055,-0.053c-0.023,0.105 -0.09,0.161 -0.204,0.168c-0.022,-0.039 -0.038,-0.067 -0.049,-0.087c-0.012,-0.019 -0.045,-0.024 -0.1,-0.012c-0,-0.072 0.034,-0.118 0.102,-0.141c0.069,-0.02 0.146,-0.03 0.231,-0.033l0.004,-0.195l0.1,0.175c0.006,-0.044 0.038,-0.079 0.098,-0.106c0.059,-0.026 0.125,-0.045 0.194,-0.058c0.07,-0.014 0.13,-0.033 0.183,-0.058c0.054,-0.025 0.075,-0.064 0.063,-0.12c0.061,0.018 0.11,0.05 0.149,0.1c0.039,0.052 0.075,0.107 0.107,0.163c0.033,0.058 0.073,0.112 0.118,0.161c0.045,0.049 0.111,0.072 0.197,0.071c0.116,0.004 0.188,-0.016 0.215,-0.064c0.025,-0.048 0.044,-0.104 0.054,-0.163c0.01,-0.058 0.024,-0.112 0.045,-0.159c0.018,-0.048 0.078,-0.073 0.178,-0.079c0.066,0.046 0.107,0.088 0.122,0.128c0.015,0.04 0.017,0.087 0.006,0.14c-0.012,0.059 -0.022,0.118 -0.03,0.178c-0.01,0.066 0.003,0.148 0.036,0.241c-0.19,0.067 -0.356,0.094 -0.502,0.088c-0.144,-0.009 -0.281,-0.025 -0.408,-0.052c-0.13,-0.026 -0.259,-0.058 -0.386,-0.097c-0.129,-0.04 -0.261,-0.068 -0.395,-0.084l-0.073,-0.052Zm-1.585,1.626l-0.009,0.174c0.128,0.435 0.02,0.694 -0.324,0.774c0.007,-0.186 -0.027,-0.31 -0.104,-0.368c-0.076,-0.055 -0.127,-0.155 -0.155,-0.293c0.14,-0.027 0.241,-0.09 0.31,-0.19l-0.083,-0.199l0.142,-0.159c-0.022,-0.037 -0.037,-0.085 -0.049,-0.14c-0.01,-0.055 -0.051,-0.077 -0.12,-0.064c0.078,-0.188 0.258,-0.301 0.538,-0.342c0.043,0.151 0.036,0.263 -0.021,0.339c-0.057,0.077 -0.088,0.173 -0.094,0.288l-0.105,0.021l0.074,0.159Zm1.161,-0.357l-0.216,0l0.09,0.458c0.112,-0.008 0.186,-0.041 0.218,-0.096c0.032,-0.058 0.104,-0.097 0.215,-0.118c0.098,0.21 0.17,0.413 0.215,0.606c0.044,0.194 0.047,0.371 0.007,0.538c-0.128,0.01 -0.203,-0.007 -0.227,-0.054c-0.022,-0.046 -0.034,-0.104 -0.034,-0.176c0.001,-0.072 0.001,-0.144 0.001,-0.216c0.001,-0.072 -0.034,-0.137 -0.102,-0.197c-0.113,0.009 -0.187,0.041 -0.219,0.097c-0.032,0.058 -0.104,0.095 -0.214,0.118c-0.028,-0.067 -0.057,-0.155 -0.084,-0.264c-0.029,-0.113 -0.052,-0.228 -0.067,-0.345c-0.016,-0.115 -0.013,-0.231 0.008,-0.346c0.022,-0.112 0.069,-0.196 0.145,-0.255l0.113,-0.195l0.22,0.022c-0.01,-0.055 -0.004,-0.099 0.019,-0.132c0.022,-0.034 0.035,-0.073 0.042,-0.116c0.088,-0.061 0.149,-0.077 0.185,-0.048c0.034,0.03 0.058,0.068 0.075,0.115c0.017,0.047 0.042,0.085 0.077,0.114c0.034,0.03 0.089,0.017 0.164,-0.042c-0.006,0.116 -0.028,0.186 -0.068,0.208c-0.038,0.023 -0.087,0.035 -0.143,0.038c-0.057,0.004 -0.115,0.004 -0.173,0.001c-0.059,-0.003 -0.102,0.028 -0.133,0.092l-0.114,0.193Zm-3.691,1.388c-0.057,-0.045 -0.119,-0.083 -0.184,-0.115c-0.064,-0.031 -0.111,-0.07 -0.14,-0.113c-0.031,-0.045 -0.012,-0.116 0.055,-0.216c0.086,-0.003 0.157,0.016 0.216,0.055c0.058,0.039 0.113,0.082 0.164,0.128c0.054,0.049 0.108,0.088 0.164,0.12c0.057,0.032 0.134,0.04 0.231,0.021c0.208,-0.113 0.367,-0.202 0.477,-0.267c0.11,-0.064 0.248,-0.067 0.417,-0.014c0.044,0.149 0.022,0.258 -0.065,0.325c-0.088,0.067 -0.204,0.115 -0.35,0.142c-0.146,0.03 -0.302,0.048 -0.464,0.059c-0.164,0.01 -0.304,0.043 -0.425,0.093c-0.004,-0.099 -0.036,-0.172 -0.096,-0.218m5.808,-0.72l-0.031,0.18c0.078,-0.044 0.136,-0.058 0.175,-0.045c0.039,0.014 0.066,0.048 0.085,0.102c0.017,0.055 0.029,0.113 0.034,0.176c0.004,0.061 0.019,0.12 0.045,0.176c-0.222,0.043 -0.367,0.115 -0.434,0.213c-0.088,-0.012 -0.123,-0.026 -0.106,-0.044c0.019,-0.018 0.05,-0.045 0.092,-0.083c0.045,-0.038 0.08,-0.085 0.103,-0.138c0.026,-0.055 0.001,-0.126 -0.073,-0.212l-0.2,-0.027l0.05,-0.181c-0.087,-0.012 -0.155,-0.006 -0.2,0.017c-0.046,0.024 -0.085,0.048 -0.115,0.076c-0.031,0.027 -0.062,0.054 -0.092,0.082c-0.031,0.028 -0.083,0.041 -0.154,0.041c-0.005,-0.1 -0.026,-0.19 -0.063,-0.268c-0.034,-0.073 -0.069,-0.145 -0.107,-0.216c-0.033,-0.064 -0.057,-0.133 -0.071,-0.203c-0.014,-0.069 0.006,-0.146 0.063,-0.228c0.209,-0.04 0.357,0.01 0.45,0.149c0.092,0.141 0.209,0.242 0.35,0.3l0.021,0.104l0.178,0.029Zm-3.632,1.526l0.099,0.177c0.066,-0.028 0.118,-0.035 0.157,-0.021c0.039,0.014 0.078,0.028 0.116,0.043c0.038,0.014 0.084,0.022 0.136,0.027c0.051,0.005 0.115,-0.015 0.192,-0.058c-0.042,0.151 -0.082,0.295 -0.121,0.434c-0.036,0.136 -0.104,0.256 -0.198,0.361c-0.117,-0.006 -0.175,-0.049 -0.176,-0.127c-0.001,-0.081 0.005,-0.162 0.018,-0.242c0.013,-0.082 0.02,-0.154 0.022,-0.219c0.002,-0.066 -0.041,-0.097 -0.127,-0.095l-0.1,0.149l-0.128,-0.104c-0.114,0.008 -0.19,0.04 -0.23,0.098c-0.038,0.059 -0.107,0.096 -0.203,0.115l0.102,0.196c-0.049,0.039 -0.12,0.088 -0.208,0.148c-0.128,0.084 -0.438,0.237 -0.924,0.461c-0.079,0.045 -0.127,0.038 -0.145,-0.015c-0.017,-0.053 -0.026,-0.117 -0.026,-0.19c0,-0.07 -0.008,-0.13 -0.024,-0.179c-0.017,-0.046 -0.064,-0.054 -0.145,-0.025c0.078,-0.116 0.166,-0.166 0.264,-0.147c0.096,0.016 0.195,0.048 0.298,0.092c0.102,0.045 0.214,0.084 0.335,0.118c0.122,0.034 0.26,0 0.413,-0.101l-0.104,-0.196l0.164,-0.162c-0.005,-0.099 -0.03,-0.167 -0.073,-0.202c-0.042,-0.035 -0.087,-0.066 -0.135,-0.093c-0.049,-0.024 -0.088,-0.061 -0.118,-0.106c-0.031,-0.044 -0.043,-0.124 -0.037,-0.24c0.402,-0.151 0.653,-0.083 0.751,0.199l0.155,-0.096Zm2.175,1.09c0.07,-0.014 0.114,-0.002 0.137,0.037c0.022,0.039 0.03,0.084 0.026,0.135c-0.004,0.053 -0.015,0.109 -0.031,0.168c-0.018,0.062 -0.033,0.1 -0.043,0.117c-0.048,-0.019 -0.087,-0.041 -0.12,-0.063c-0.034,-0.023 -0.078,-0.028 -0.134,-0.018l-0.043,-0.228c0.128,-0.011 0.196,-0.06 0.208,-0.148m-2.061,1.394l-0.174,-0.01c-0.011,0.089 -0.081,0.138 -0.208,0.149l-0.045,-0.23l0.229,-0.045l0.03,-0.178l0.175,0.009c-0.011,-0.127 0.037,-0.209 0.147,-0.243c0.107,-0.036 0.24,-0.063 0.395,-0.078c0.05,0.107 0.051,0.173 0.008,0.204c-0.045,0.03 -0.107,0.052 -0.182,0.067c-0.076,0.015 -0.152,0.034 -0.227,0.055c-0.075,0.021 -0.114,0.062 -0.117,0.121l-0.031,0.179Zm3.154,0.067c-0.002,-0.122 0.02,-0.232 0.067,-0.327c0.045,-0.096 0.108,-0.179 0.188,-0.252c0.079,-0.073 0.147,-0.151 0.203,-0.235c0.146,0.015 0.231,0.06 0.253,0.135c0.021,0.076 0.012,0.153 -0.031,0.233c-0.041,0.079 -0.107,0.158 -0.193,0.232c-0.085,0.074 -0.162,0.124 -0.228,0.152c-0.005,0.045 -0,0.101 0.022,0.168c0.02,0.068 0.031,0.128 0.034,0.176c0.002,0.051 -0.007,0.092 -0.03,0.126c-0.023,0.034 -0.078,0.044 -0.167,0.033c-0.076,-0.173 -0.116,-0.321 -0.118,-0.441m-5.239,-9.355c0.039,0.123 0.112,0.185 0.219,0.185c0.108,-0 0.236,-0.022 0.387,-0.065c0.024,-0.106 0.004,-0.187 -0.059,-0.248c-0.063,-0.059 -0.133,-0.095 -0.216,-0.11c-0.078,-0.011 -0.157,-0.007 -0.234,0.013c-0.076,0.022 -0.116,0.056 -0.121,0.1l0.116,0.043l-0.092,0.082Zm0.902,2.199l-0.124,0.024l-0.026,0.2l-0.178,-0.031c-0.027,0.091 -0.012,0.15 0.043,0.175c0.056,0.026 0.12,0.035 0.191,0.029c0.069,-0.007 0.133,-0.026 0.193,-0.06c0.057,-0.033 0.075,-0.074 0.05,-0.128l-0.174,-0.011l0.025,-0.198Zm-9.085,-15.201c-0.016,0.059 -0.025,0.119 -0.029,0.18c-0.003,0.058 -0.012,0.123 -0.026,0.199l0.055,-0.379Zm-0.801,-0.017c-0.103,0.064 -0.258,0.151 -0.466,0.264l0.466,-0.264Zm-1.661,-2.764c0.076,0.015 0.147,0.029 0.215,0.045c0.068,0.016 0.125,0.034 0.172,0.054l-0.387,-0.099Zm-0.033,4.044c0.101,0.08 0.197,0.165 0.287,0.257c0.09,0.091 0.216,0.113 0.38,0.066l-0.667,-0.323Zm6.441,-2.396c-0.179,-0.037 -0.311,-0.083 -0.394,-0.139l0.394,0.139Zm0.204,-0.73c0.049,0.033 0.094,0.065 0.136,0.09c0.041,0.03 0.092,0.052 0.153,0.069l-0.289,-0.159Zm5.085,12.61c-0.118,-0.006 -0.198,-0.018 -0.246,-0.039l0.246,0.039Zm-0.493,4.241c0.041,0.064 0.073,0.134 0.094,0.208c0.021,0.075 0.055,0.151 0.1,0.229l-0.194,-0.437Zm0.562,-0.11c-0.055,0.08 -0.097,0.168 -0.123,0.261c-0.025,0.091 -0.066,0.178 -0.121,0.26l0.244,-0.521Zm1.204,3.091c-0.105,-0.024 -0.226,-0.057 -0.365,-0.102l0.365,0.102Zm1.01,-0.802c0.03,0.081 0.057,0.158 0.078,0.233c0.022,0.075 0.046,0.146 0.073,0.212l-0.151,-0.445Zm1.958,1.411c0.048,-0.051 0.095,-0.104 0.143,-0.156c0.049,-0.054 0.106,-0.102 0.167,-0.142l-0.31,0.298Zm-3.763,1.962c-0.117,-0.006 -0.205,-0.016 -0.266,-0.034l0.266,0.034Zm0.441,-0.734c-0.001,0.069 -0.002,0.139 -0.004,0.208c-0.001,0.065 0.005,0.138 0.022,0.22l-0.018,-0.428Zm-0.054,2.17c0.042,0.065 0.074,0.118 0.097,0.165c0.024,0.046 0.047,0.096 0.071,0.149l-0.168,-0.314Zm23.168,-30.643c-0.012,-0.071 -0.003,-0.133 0.03,-0.19c0.032,-0.057 0.089,-0.092 0.173,-0.11l0.083,-0.015c0.02,0.111 0.015,0.192 -0.019,0.24c-0.032,0.05 -0.04,0.131 -0.017,0.242c-0.138,0.027 -0.221,-0.029 -0.25,-0.167m2.119,0.18c0.031,-0.027 0.041,-0.068 0.03,-0.124c0.042,-0.007 0.076,0.003 0.104,0.034c0.027,0.03 0.069,0.041 0.125,0.03c0.01,0.056 -0.001,0.095 -0.033,0.114c-0.032,0.021 -0.041,0.066 -0.028,0.135c-0.057,-0.003 -0.096,-0.02 -0.117,-0.053c-0.02,-0.031 -0.067,-0.04 -0.135,-0.028c0.006,-0.043 0.023,-0.08 0.054,-0.108m3.979,-0.136c-0.14,0.028 -0.22,-0.015 -0.242,-0.126c-0.007,-0.041 0.01,-0.066 0.052,-0.073c0.069,-0.014 0.19,0.02 0.364,0.101c-0.061,0.055 -0.12,0.088 -0.174,0.098m-6.71,1.132c0.156,-0.015 0.29,-0.017 0.41,-0.004c0.117,0.013 0.191,0.096 0.221,0.248c0.015,0.084 -0.049,0.136 -0.198,0.158c-0.145,0.021 -0.261,0.04 -0.344,0.055l-0.089,-0.457Zm3.707,0.186c-0.015,-0.069 -0.005,-0.146 0.029,-0.232c0.035,-0.085 0.04,-0.184 0.019,-0.295c-0.014,-0.07 -0.031,-0.116 -0.049,-0.141c0.209,0.118 0.364,0.324 0.466,0.621c-0.069,0.013 -0.138,0.031 -0.206,0.05c-0.069,0.021 -0.104,0.067 -0.104,0.14c-0.09,-0.026 -0.143,-0.073 -0.155,-0.143m5.785,-1.212l-0.041,0.009c-0.042,0.009 -0.125,0.006 -0.249,-0.005c-0.125,-0.012 -0.229,-0.01 -0.311,0.007l-0.044,0.008c-0.042,-0.295 0.082,-0.476 0.37,-0.547c0.019,0.097 0.013,0.163 -0.016,0.197c-0.029,0.035 -0.045,0.089 -0.044,0.16c0.027,0.067 0.065,0.096 0.114,0.086c0.046,-0.009 0.093,-0.011 0.14,-0.006c0.048,0.033 0.076,0.064 0.081,0.091m-11.426,2.794c-0.017,-0.046 0.025,-0.08 0.121,-0.099c0.141,-0.026 0.221,0.022 0.245,0.148c0.005,0.026 -0.038,0.05 -0.127,0.067c-0.091,0.017 -0.155,0.03 -0.198,0.038c-0.011,-0.055 -0.024,-0.107 -0.041,-0.154m4.946,-0.044c-0.028,0.005 -0.039,0.022 -0.034,0.051c0.005,0.027 0.039,0.088 0.101,0.184c0.062,0.097 0.186,0.248 0.37,0.457c-0.134,-0.016 -0.267,-0.037 -0.4,-0.062c-0.136,-0.025 -0.259,-0.068 -0.372,-0.133c-0.021,-0.111 -0.013,-0.191 0.028,-0.242c0.04,-0.052 0.084,-0.139 0.133,-0.264l-0.15,-0.101c-0.03,-0.152 0.033,-0.243 0.185,-0.273l0.104,-0.02c0.014,0.07 0.008,0.116 -0.016,0.143c-0.023,0.027 -0.038,0.062 -0.044,0.106l0.095,0.154Zm2.82,-0.483c-0.011,-0.056 -0.001,-0.111 0.032,-0.168c0.033,-0.057 0.089,-0.093 0.173,-0.109c0.055,-0.011 0.089,-0.003 0.102,0.022c0.011,0.027 0.02,0.054 0.026,0.082c0.014,0.07 0.007,0.129 -0.019,0.176c-0.027,0.049 -0.04,0.11 -0.042,0.182c-0.152,0.028 -0.242,-0.033 -0.272,-0.185m-5.153,1.638c-0.105,-0.13 -0.171,-0.264 -0.198,-0.403c-0.018,-0.097 -0.003,-0.202 0.047,-0.312c0.101,-0.004 0.172,0.031 0.216,0.109c0.045,0.078 0.077,0.172 0.097,0.284l0.094,0.478l0.025,0.124c-0.084,-0.055 -0.176,-0.148 -0.281,-0.28m8.232,-2.345c0.193,-0.037 0.346,0.002 0.454,0.118c0.11,0.116 0.225,0.227 0.345,0.332l-0.686,0.134l-0.113,-0.584Zm-1.624,1.417c-0.098,0.019 -0.159,-0.041 -0.187,-0.179c-0.011,-0.056 -0.018,-0.113 -0.021,-0.17c-0.005,-0.055 -0.011,-0.112 -0.023,-0.167l-0.011,-0.063c0.099,-0.005 0.17,0.024 0.211,0.09c0.041,0.063 0.072,0.149 0.094,0.261l0.036,0.186c-0.025,0.021 -0.059,0.034 -0.099,0.042m2.863,-0.708c0.027,-0.004 0.046,-0.052 0.058,-0.14c0.097,-0.019 0.157,0.027 0.178,0.137c0.011,0.055 0.007,0.112 -0.012,0.165c-0.017,0.053 -0.048,0.085 -0.089,0.092c-0.07,0.014 -0.11,-0.01 -0.123,-0.072c-0.011,-0.06 -0.022,-0.119 -0.034,-0.178l0.022,-0.004Zm-10.556,2.333c-0.013,-0.069 -0.015,-0.119 -0.008,-0.15c0.156,-0.016 0.255,0.088 0.298,0.308l0.021,0.106c-0.169,0.019 -0.274,-0.071 -0.311,-0.264m-2.316,1.238c0.106,-0.013 0.163,-0.064 0.175,-0.152c0.147,0.014 0.238,0.111 0.272,0.291c0.019,0.098 -0.014,0.169 -0.099,0.214c-0.085,0.046 -0.175,0.077 -0.272,0.096c-0.18,0.036 -0.288,-0.037 -0.323,-0.218c-0.013,-0.069 -0.017,-0.125 -0.011,-0.17c0.067,-0.026 0.151,-0.048 0.258,-0.061m5.464,-3.145c0.058,0.003 0.147,0.021 0.27,0.055l-0.27,-0.055Zm-2.787,21.977c-0.082,0.015 -0.165,-0.004 -0.249,-0.06c-0.083,-0.056 -0.133,-0.132 -0.152,-0.23c-0.018,-0.097 0.008,-0.182 0.08,-0.252c0.264,-0.053 0.41,-0.059 0.439,-0.022c0.029,0.038 0.065,0.168 0.109,0.39c-0.069,0.098 -0.143,0.157 -0.227,0.174m0.525,-1.744c0.042,0.209 -0.088,0.398 -0.386,0.572c-0.296,0.173 -0.507,0.127 -0.629,-0.136c-0.012,-0.2 0.049,-0.352 0.18,-0.458c0.132,-0.103 0.273,-0.171 0.424,-0.201c0.115,-0.021 0.232,-0.021 0.346,-0.001c0.023,0.053 0.047,0.127 0.065,0.224m12.278,-1.457c-0.091,0.118 -0.226,0.209 -0.399,0.271c-0.084,0.016 -0.14,-0.019 -0.171,-0.106c-0.036,-0.097 -0.066,-0.195 -0.091,-0.295c-0.028,-0.112 -0.066,-0.211 -0.113,-0.302c-0.047,-0.092 -0.11,-0.124 -0.189,-0.093c-0.068,0.026 -0.125,0.062 -0.175,0.109c-0.048,0.046 -0.092,0.071 -0.134,0.08c-0.057,0.01 -0.089,-0.011 -0.1,-0.067c-0.058,-0.148 -0.032,-0.239 0.077,-0.273c0.051,-0.025 0.107,-0.04 0.164,-0.044c0.056,-0.003 0.112,-0.019 0.164,-0.042c0.042,-0.009 0.068,-0.021 0.078,-0.038c0.051,0.108 0.119,0.183 0.208,0.231c0.087,0.047 0.176,0.091 0.262,0.132c0.087,0.041 0.174,0.081 0.261,0.122c0.088,0.04 0.167,0.097 0.239,0.169l0.072,-0.079l0.153,0.014c0.051,-0.025 0.117,-0.049 0.191,-0.07c0.074,-0.022 0.122,-0.02 0.141,0.005c0.034,0.094 0.035,0.166 0.01,0.214c-0.028,0.049 -0.023,0.121 0.008,0.214c-0.146,0.057 -0.282,0.02 -0.41,-0.115l-0.129,0.112l-0.117,-0.149Zm-2.957,2.215l-0.058,0.032c-0.123,0.039 -0.249,0.107 -0.382,0.204c-0.132,0.098 -0.259,0.166 -0.38,0.203c-0.162,0.06 -0.3,0.016 -0.415,-0.135c0.005,-0.043 0.026,-0.08 0.065,-0.108c0.037,-0.029 0.089,-0.058 0.155,-0.086l0.125,-0.023c0.188,-0.066 0.261,-0.173 0.218,-0.324c-0.026,-0.052 -0.057,-0.087 -0.094,-0.101c-0.04,-0.012 -0.088,-0.022 -0.146,-0.025c-0.059,-0.003 -0.107,-0.011 -0.146,-0.025c-0.039,-0.014 -0.071,-0.055 -0.099,-0.121c-0.01,-0.055 -0.012,-0.142 -0.007,-0.258c0.007,-0.118 0.028,-0.234 0.062,-0.347c0.036,-0.115 0.075,-0.223 0.122,-0.325c0.043,-0.102 0.107,-0.168 0.186,-0.199c0.095,-0.033 0.188,-0 0.278,0.097c-0.109,0.18 -0.131,0.396 -0.068,0.649c0.064,0.256 0.13,0.518 0.199,0.794c0.148,0.029 0.263,0.042 0.342,0.042c0.078,-0.001 0.13,-0.012 0.155,-0.03l0.042,-0.009l0.116,0.151c0.08,0.041 0.16,0.068 0.242,0.082c0.082,0.012 0.151,0.049 0.205,0.111c-0.133,0.054 -0.229,0.077 -0.288,0.067c-0.06,-0.01 -0.099,-0.031 -0.12,-0.063c-0.02,-0.03 -0.04,-0.058 -0.062,-0.086c-0.018,-0.024 -0.048,-0.034 -0.09,-0.025l-0.038,0.029l-0.119,-0.171Zm-2.615,-0.463c-0.044,-0.15 0.016,-0.249 0.18,-0.294c0.067,-0.026 0.104,-0.025 0.109,0.009c0.007,0.032 0.013,0.063 0.019,0.095c0.065,0.188 0.025,0.311 -0.122,0.369c-0.095,-0.039 -0.157,-0.099 -0.186,-0.179m3.233,-0.802c0.033,-0.05 0.083,-0.088 0.15,-0.115c0.108,-0.036 0.177,-0.013 0.207,0.068c0.012,0.054 -0.006,0.102 -0.048,0.138c-0.044,0.038 -0.099,0.071 -0.166,0.098c-0.065,0.026 -0.124,0.039 -0.176,0.034c-0.052,-0.005 -0.089,-0.033 -0.114,-0.086c0.064,-0.042 0.113,-0.086 0.147,-0.137m-5.175,2.583c-0.122,0.038 -0.258,0.103 -0.404,0.197c-0.148,0.093 -0.276,0.158 -0.384,0.192c-0.067,0.029 -0.112,0.015 -0.137,-0.038c-0.044,-0.149 -0.03,-0.277 0.044,-0.386c0.073,-0.107 0.17,-0.18 0.292,-0.219c0.122,-0.038 0.244,-0.04 0.366,-0.006c0.121,0.035 0.222,0.108 0.301,0.222l-0.078,0.038Zm7.303,-1.96l-0.083,0.016c-0.202,0.069 -0.353,0.033 -0.453,-0.106c0.178,0.022 0.316,0.029 0.413,0.017c0.099,-0.012 0.176,-0.024 0.232,-0.034l0.057,-0.033l0.196,0.113l0.145,-0.028c0.12,-0.052 0.2,-0.047 0.24,0.018c-0.049,0.038 -0.073,0.082 -0.072,0.132c0.004,0.05 0.007,0.103 0.012,0.161c0.004,0.056 0.006,0.106 0.007,0.149c0,0.043 -0.025,0.077 -0.077,0.101c-0.015,0.003 -0.044,-0.016 -0.087,-0.058c-0.045,-0.043 -0.09,-0.095 -0.139,-0.158c-0.049,-0.061 -0.091,-0.114 -0.127,-0.157c-0.038,-0.043 -0.061,-0.05 -0.069,-0.021l-0.195,-0.112Zm-6.397,1.957c0.05,0.104 0.101,0.188 0.156,0.25c0.054,0.06 0.128,0.104 0.22,0.13c0.111,-0.166 0.25,-0.273 0.413,-0.319c0.133,-0.054 0.269,-0.077 0.407,-0.068c0.139,0.009 0.271,0.001 0.396,-0.024c0.059,0.234 0.035,0.404 -0.074,0.512c-0.103,-0.081 -0.196,-0.121 -0.283,-0.118c-0.085,0.003 -0.182,0.022 -0.29,0.056l-0.263,0.094c-0.104,0.036 -0.213,0.056 -0.322,0.062c-0.106,0.009 -0.21,-0.023 -0.309,-0.09l-0.02,-0.105c-0.055,-0.131 -0.11,-0.25 -0.166,-0.355c-0.057,-0.104 -0.101,-0.203 -0.134,-0.298c-0.033,-0.094 -0.026,-0.188 0.02,-0.284c0.047,-0.096 0.172,-0.177 0.373,-0.246l0.012,0.063c0.031,0.08 0.036,0.148 0.019,0.201c-0.021,0.057 -0.051,0.111 -0.089,0.158c-0.041,0.051 -0.072,0.097 -0.092,0.138c-0.021,0.039 -0.017,0.099 0.013,0.179l0.013,0.064Zm-2.045,1.584c-0.142,0.085 -0.254,0.175 -0.337,0.269c-0.082,0.095 -0.196,0.173 -0.343,0.23l-0.008,-0.042c-0.028,-0.066 -0.071,-0.127 -0.133,-0.18c-0.06,-0.053 -0.095,-0.107 -0.106,-0.162c-0.027,-0.067 -0.003,-0.129 0.07,-0.187c0.411,0.036 0.679,0.041 0.803,0.017c0.125,-0.025 0.193,-0.038 0.209,-0.041l0.115,0.151l-0.129,0.111l-0.141,-0.166Zm7.671,-2.182c-0.136,-0.164 -0.275,-0.324 -0.418,-0.481l0.57,-0.175c-0.006,0.044 0.006,0.108 0.037,0.186c0.034,0.096 0.071,0.186 0.117,0.269c0.045,0.086 0.083,0.176 0.116,0.269c0.052,0.192 0.043,0.331 -0.026,0.416c-0.132,-0.162 -0.265,-0.323 -0.396,-0.484m-8.032,1.324l0.012,0.061c0.038,0.196 -0.068,0.316 -0.318,0.365c-0.055,0.011 -0.088,-0.012 -0.1,-0.068c-0.034,-0.18 0.065,-0.293 0.302,-0.338l0.104,-0.02Zm6.032,0.834c-0.232,-0.096 -0.449,-0.225 -0.645,-0.382c-0.196,-0.156 -0.427,-0.252 -0.693,-0.286c0.056,-0.01 0.107,-0.024 0.154,-0.04c0.047,-0.016 0.092,-0.029 0.135,-0.037c0.121,-0.039 0.21,-0.081 0.265,-0.127c0.057,-0.046 0.103,-0.1 0.142,-0.159c0.039,-0.057 0.076,-0.122 0.113,-0.194c0.037,-0.072 0.095,-0.158 0.177,-0.26c0.04,0.207 0.086,0.389 0.138,0.545c0.052,0.155 0.096,0.288 0.131,0.396c0.041,0.134 0.08,0.246 0.119,0.332c0.037,0.086 0.068,0.149 0.09,0.188c0.038,0.05 0.066,0.08 0.084,0.092l0.018,0.213l0.079,-0.038c0.231,-0.074 0.415,-0.051 0.552,0.065c-0.157,0.002 -0.289,-0.009 -0.394,-0.031c-0.105,-0.024 -0.194,-0.034 -0.267,-0.034l-0.178,-0.031l-0.02,-0.212Zm1.784,-0.822c-0.067,0.028 -0.142,0.028 -0.227,0.002c-0.091,-0.03 -0.179,-0.063 -0.267,-0.1c-0.096,-0.04 -0.196,-0.071 -0.299,-0.092c-0.105,-0.023 -0.218,-0.016 -0.34,0.023l-0.1,0.04c0.016,-0.061 0.013,-0.117 -0.011,-0.17c-0.036,-0.108 -0.105,-0.184 -0.207,-0.231c-0.103,-0.044 -0.158,-0.085 -0.166,-0.129c-0.022,-0.039 0.027,-0.083 0.146,-0.134c0.091,0.168 0.205,0.275 0.343,0.321c0.142,0.046 0.289,0.071 0.437,0.076c0.152,0.007 0.303,0.024 0.452,0.053c0.148,0.027 0.274,0.112 0.372,0.25c-0.022,0.034 -0.068,0.065 -0.133,0.091m2.343,-0.713c-0.082,0.015 -0.117,0.058 -0.104,0.127c0.023,0.031 0.043,0.063 0.062,0.096c0.022,0.039 0.042,0.07 0.061,0.096c0.035,0.109 -0.021,0.185 -0.17,0.227c-0.067,0.028 -0.123,0.024 -0.165,-0.011c-0.043,-0.035 -0.067,-0.066 -0.074,-0.094c-0.026,-0.066 -0.033,-0.133 -0.016,-0.201c0.015,-0.068 0.005,-0.156 -0.03,-0.264l-0.033,-0.058c0.075,0.015 0.146,0.008 0.213,-0.02c0.094,-0.032 0.111,-0.129 0.05,-0.291c-0.004,-0.027 -0.011,-0.044 -0.019,-0.05c-0.009,-0.005 -0.023,-0.02 -0.042,-0.046c-0.047,-0.163 -0.016,-0.269 0.089,-0.319c0.07,-0.014 0.122,-0.002 0.158,0.034c0.035,0.036 0.063,0.066 0.083,0.093c0.013,0.068 0.013,0.145 -0,0.226c-0.013,0.082 -0.001,0.176 0.035,0.285c0.013,0.069 0.035,0.114 0.069,0.136c-0.045,-0.005 -0.099,0.006 -0.167,0.034m-6.547,2.178c0.162,-0.045 0.292,-0.117 0.389,-0.215c0.096,-0.098 0.207,-0.225 0.337,-0.379c0.062,0.175 0.152,0.287 0.269,0.336c0.119,0.05 0.243,0.079 0.374,0.089c0.133,0.011 0.259,0.026 0.387,0.044c0.126,0.02 0.222,0.086 0.288,0.203c-0.206,0.055 -0.446,0.068 -0.716,0.043c-0.27,-0.028 -0.515,-0.005 -0.731,0.065c-0.096,0.034 -0.185,0.09 -0.269,0.171c-0.086,0.081 -0.14,0.204 -0.167,0.367c-0.222,-0.186 -0.383,-0.295 -0.484,-0.327c-0.1,-0.03 -0.17,-0.042 -0.212,-0.034l-0.033,0.051l-0.212,0.017c0.041,0.439 0.069,0.747 0.083,0.924c0.012,0.178 -0.043,0.286 -0.165,0.324c-0.052,0.024 -0.094,0.033 -0.124,0.024c-0.175,-0.527 -0.161,-0.976 0.04,-1.347c0.033,0.023 0.069,0.023 0.109,0.002c0.041,-0.009 0.072,-0.037 0.09,-0.083c0.012,-0.016 0.015,-0.038 0.009,-0.067l0.237,-0.002l0.058,0.075c-0.003,-0.013 -0.006,-0.034 -0.012,-0.063c-0.006,-0.027 -0.036,-0.072 -0.09,-0.133c0.27,-0.01 0.452,-0.038 0.545,-0.085m-4.354,-3.017c0.05,-0.084 0.103,-0.166 0.157,-0.247c0.023,0.053 0.082,0.089 0.171,0.106c0.091,0.019 0.187,0.03 0.288,0.031c0.092,0.002 0.183,0.01 0.273,0.023c0.083,0.013 0.129,0.048 0.14,0.102c0.008,0.041 -0.016,0.105 -0.072,0.186c-0.097,-0.123 -0.228,-0.17 -0.394,-0.138c-0.088,0.018 -0.173,0.045 -0.255,0.081c-0.081,0.038 -0.165,0.066 -0.253,0.083c-0.111,0.021 -0.209,0.004 -0.291,-0.052c0.108,-0.035 0.188,-0.094 0.236,-0.175m11.514,1.993c-0.028,0.004 -0.068,-0.059 -0.124,-0.193c0.095,-0.032 0.157,-0.048 0.185,-0.046c0.029,0.001 0.064,0.063 0.102,0.186c-0.081,0.028 -0.135,0.047 -0.163,0.053m-18.005,-2.188c0.014,-0.038 0.048,-0.063 0.104,-0.074c-0.001,0.071 0.003,0.147 0.011,0.223c0.008,0.078 -0.037,0.127 -0.134,0.145c-0.055,0.011 -0.085,-0.015 -0.091,-0.079c-0.005,-0.063 -0.01,-0.109 -0.017,-0.136c0.07,-0.015 0.112,-0.042 0.127,-0.079m9.352,-0.577c0.033,0.094 0.012,0.174 -0.061,0.239c-0.074,0.064 -0.164,0.114 -0.273,0.149c-0.07,0.014 -0.125,0.025 -0.167,0.033c0.035,-0.266 0.021,-0.482 -0.04,-0.651c-0.062,-0.166 -0.097,-0.351 -0.107,-0.55c0.038,0.05 0.078,0.089 0.119,0.117c0.041,0.027 0.099,0.042 0.171,0.041l0.151,-0.115l0.01,0.172c0.048,0.018 0.093,0.031 0.137,0.036c0.044,0.006 0.095,0.004 0.15,-0.007l0.059,-0.033c0.028,0.077 0.05,0.156 0.067,0.236c0.014,0.076 -0.038,0.133 -0.161,0.171l0.119,0.171l-0.174,-0.009Zm-7.254,-1.785c0.069,-0.012 0.137,-0.015 0.203,-0.007c0.067,0.009 0.138,0.021 0.213,0.034c0.008,0.114 -0.015,0.202 -0.069,0.261c-0.053,0.061 -0.114,0.098 -0.183,0.111c-0.066,0.015 -0.134,0.021 -0.201,0.018c-0.066,0 -0.136,-0.009 -0.211,-0.023c-0.028,-0.225 0.054,-0.356 0.248,-0.394m3.789,5.61c-0.07,-0.059 -0.156,-0.098 -0.261,-0.123c-0.12,-0.018 -0.25,0.01 -0.394,0.088c-0.143,0.079 -0.221,0.192 -0.236,0.337c-0.02,0.12 -0.008,0.201 0.036,0.241c0.044,0.043 0.088,0.07 0.135,0.083c0.046,0.012 0.089,0.033 0.13,0.06c0.041,0.029 0.053,0.074 0.037,0.134c-0.001,0.072 -0.046,0.114 -0.137,0.124c-0.092,0.011 -0.183,0.011 -0.271,-0.002c-0.12,-0.02 -0.225,-0.045 -0.318,-0.078c-0.092,-0.032 -0.158,-0.074 -0.196,-0.125c0.088,-0.059 0.17,-0.14 0.243,-0.241c0.074,-0.101 0.123,-0.211 0.143,-0.329c0.017,-0.134 -0.003,-0.266 -0.057,-0.399c0.202,0.003 0.346,-0.068 0.434,-0.214c0.086,-0.146 0.145,-0.323 0.177,-0.531c0.002,-0.058 0.01,-0.121 0.018,-0.187c0.008,-0.067 0.013,-0.129 0.017,-0.187c-0.047,-0.019 -0.12,-0.063 -0.219,-0.13c-0.1,-0.068 -0.146,-0.115 -0.136,-0.147c0.016,-0.059 0.059,-0.097 0.128,-0.112c0.053,0.048 0.101,0.076 0.145,0.081c0.06,0.003 0.104,-0.024 0.136,-0.081c0.033,-0.056 0.07,-0.121 0.114,-0.195c0.043,-0.073 0.095,-0.141 0.154,-0.202c0.06,-0.062 0.127,-0.086 0.203,-0.072c0.115,0.006 0.163,0.087 0.143,0.242c-0.02,0.156 -0.034,0.291 -0.04,0.407c-0.037,0.252 -0.09,0.529 -0.162,0.831c0.046,0.236 0.093,0.418 0.139,0.545c0.046,0.128 0.086,0.224 0.12,0.289c0.034,0.066 0.069,0.11 0.102,0.132l0.048,0.141c0.034,0.022 0.067,0.063 0.1,0.122c0.033,0.057 0.041,0.117 0.023,0.178c-0.003,0.059 -0.032,0.086 -0.091,0.083c-0.016,-0.156 -0.042,-0.254 -0.079,-0.298c-0.038,-0.042 -0.07,-0.063 -0.099,-0.056l-0.023,-0.017l-0.029,-0.146l0.054,-0.053c0.008,-0.031 0.025,-0.056 0.051,-0.076c-0.031,-0.007 -0.095,0.033 -0.193,0.125c0.01,-0.102 -0.021,-0.183 -0.089,-0.242m-4.932,-7.935c0.11,-0.022 0.195,-0.03 0.254,-0.027c0.016,0.082 0.008,0.149 -0.026,0.199c-0.034,0.05 -0.072,0.097 -0.113,0.14c-0.041,0.044 -0.079,0.091 -0.112,0.141c-0.035,0.05 -0.042,0.116 -0.027,0.199c0.03,0.153 0.104,0.275 0.223,0.368c0.119,0.092 0.246,0.125 0.386,0.097c0.097,-0.019 0.144,-0.068 0.144,-0.147c-0.002,-0.079 0.053,-0.129 0.164,-0.15c0.003,0.014 0.001,0.024 -0.004,0.032c-0.005,0.009 -0.007,0.02 -0.004,0.034c0.025,0.124 0.1,0.237 0.227,0.334c0.126,0.097 0.197,0.18 0.21,0.25c0.011,0.055 -0.039,0.094 -0.15,0.115c-0.384,-0.054 -0.746,-0.157 -1.085,-0.307c-0.338,-0.148 -0.572,-0.448 -0.704,-0.899c0.135,-0.198 0.34,-0.325 0.617,-0.379m-3.442,0.724c-0.042,0.072 -0.142,0.124 -0.294,0.154c-0.036,-0.036 -0.058,-0.082 -0.069,-0.137c-0.018,-0.083 0.005,-0.149 0.068,-0.198c0.063,-0.049 0.129,-0.08 0.199,-0.092c0.069,-0.013 0.137,-0.016 0.204,-0.008c0.066,0.008 0.112,0.041 0.136,0.093c-0.12,0.051 -0.201,0.115 -0.244,0.188m-0.247,-3.159c-0.013,-0.068 0.008,-0.123 0.065,-0.163c0.057,-0.04 0.128,-0.068 0.211,-0.085c0.069,-0.012 0.141,-0.012 0.215,0.002c0.075,0.015 0.119,0.056 0.133,0.126c0.028,0.138 -0.029,0.221 -0.167,0.248c-0.07,0.014 -0.149,0.016 -0.237,0.003c-0.088,-0.011 -0.15,-0.028 -0.183,-0.052c-0.018,-0.025 -0.032,-0.051 -0.037,-0.079m1.085,-0.695c0.001,-0.032 -0.002,-0.065 -0.009,-0.096c-0.035,-0.18 -0.115,-0.302 -0.243,-0.363c-0.127,-0.062 -0.273,-0.076 -0.439,-0.045c-0.112,0.022 -0.231,0.053 -0.361,0.093c-0.129,0.038 -0.249,0.069 -0.36,0.092c-0.111,0.021 -0.208,0.026 -0.288,0.011c-0.082,-0.011 -0.141,-0.072 -0.177,-0.18c0.073,0.001 0.136,-0.005 0.192,-0.017c0.055,-0.009 0.112,-0.021 0.167,-0.031c0.277,-0.053 0.498,-0.137 0.663,-0.249c0.165,-0.11 0.336,-0.234 0.511,-0.369c0.229,0.215 0.47,0.402 0.725,0.56c0.253,0.161 0.484,0.363 0.69,0.612c-0.058,0.068 -0.115,0.109 -0.17,0.119c-0.098,0.019 -0.199,-0.005 -0.305,-0.069c-0.107,-0.067 -0.236,-0.085 -0.389,-0.055c-0.028,0.005 -0.093,0.033 -0.2,0.082c-0.005,-0.032 -0.008,-0.063 -0.007,-0.095m-2.735,0.089c0.064,0.029 0.115,0.078 0.157,0.141c-0.083,0.017 -0.139,0.046 -0.167,0.086c-0.03,0.047 -0.057,0.096 -0.081,0.146c-0.022,0.051 -0.048,0.099 -0.078,0.145c-0.029,0.042 -0.084,0.07 -0.167,0.087c0.017,-0.134 0.018,-0.277 0.002,-0.434c-0.016,-0.154 0.049,-0.26 0.197,-0.319c0.028,0.067 0.072,0.117 0.137,0.148m3.077,-1.829c0.179,-0.035 0.327,-0.11 0.441,-0.226c0.114,-0.115 0.241,-0.187 0.378,-0.214c0.098,-0.018 0.205,0.011 0.321,0.089c-0.107,0.049 -0.182,0.121 -0.228,0.216c-0.046,0.097 -0.089,0.191 -0.13,0.286c-0.038,0.092 -0.085,0.181 -0.141,0.264c-0.057,0.083 -0.143,0.149 -0.264,0.203c-0.037,-0.195 -0.113,-0.324 -0.225,-0.389c-0.114,-0.065 -0.235,-0.133 -0.365,-0.209c0.045,0.005 0.115,-0.001 0.213,-0.02m-2.047,0.354c-0.024,-0.125 -0.009,-0.192 0.047,-0.203c0.097,-0.019 0.155,0.02 0.173,0.118c0.02,0.096 -0.046,0.167 -0.195,0.21l-0.025,-0.125Zm-1.917,-0.479c-0.082,0.138 -0.206,0.258 -0.372,0.363c-0.07,-0.059 -0.111,-0.122 -0.124,-0.192c-0.027,-0.138 0.042,-0.263 0.209,-0.374c0.164,-0.113 0.278,-0.23 0.339,-0.358c0.046,0.235 0.029,0.422 -0.052,0.561m3.888,-1.371l-0.174,-0.01c-0.019,0.047 -0.023,0.106 -0.01,0.175c0.022,0.111 0.082,0.195 0.181,0.257c0.097,0.06 0.152,0.124 0.165,0.193c0.01,0.041 -0.018,0.09 -0.079,0.146c-0.146,-0.086 -0.302,-0.115 -0.469,-0.082c-0.153,0.03 -0.302,0.091 -0.45,0.185c-0.147,0.093 -0.297,0.154 -0.45,0.185c-0.027,0.005 -0.076,0.006 -0.149,0.006c-0.072,0 -0.147,-0.013 -0.225,-0.042c-0.076,-0.027 -0.146,-0.068 -0.207,-0.122c-0.061,-0.053 -0.098,-0.121 -0.114,-0.204c-0.027,-0.138 -0,-0.24 0.08,-0.307c0.081,-0.066 0.109,-0.161 0.084,-0.287c-0.01,-0.054 -0.027,-0.101 -0.048,-0.14l-0.196,0.102l-0.162,-0.163c-0.088,0.132 -0.196,0.21 -0.32,0.235c-0.139,0.027 -0.285,-0.006 -0.44,-0.099c-0.155,-0.091 -0.311,-0.172 -0.47,-0.243c0.124,-0.109 0.268,-0.181 0.435,-0.213c0.318,-0.061 0.577,0.011 0.775,0.216l0.155,-0.096l0.178,0.031c0.119,-0.051 0.179,-0.132 0.179,-0.24c0.002,-0.108 0.03,-0.203 0.086,-0.287c0.163,0.027 0.314,0.027 0.453,-0.001c0.194,-0.037 0.36,-0.106 0.499,-0.205c0.14,-0.099 0.347,-0.175 0.625,-0.229c0.021,0.111 0.057,0.198 0.105,0.26c0.047,0.063 0.099,0.125 0.154,0.185c0.054,0.061 0.105,0.123 0.154,0.187c0.05,0.063 0.085,0.15 0.105,0.26c0.014,0.07 -0.036,0.111 -0.147,0.127c-0.113,0.013 -0.21,0.03 -0.294,0.045l-0.009,0.175Zm0.659,-1.715c0.076,0.166 0.128,0.318 0.154,0.457c0.027,0.137 -0.001,0.215 -0.084,0.231c-0.092,-0.097 -0.158,-0.185 -0.203,-0.262c-0.043,-0.079 -0.087,-0.157 -0.131,-0.235c-0.044,-0.077 -0.072,-0.144 -0.081,-0.2c-0.028,-0.137 0.029,-0.249 0.171,-0.334c0.041,0.063 0.099,0.178 0.174,0.343m-4.787,0.078c0.035,-0.007 0.067,0.066 0.097,0.219c-0.153,0.029 -0.232,0.03 -0.238,0.002c-0.005,-0.027 -0.017,-0.089 -0.037,-0.187c0.083,-0.017 0.143,-0.028 0.178,-0.034m4.971,-1.192c0.102,-0.029 0.176,-0.003 0.219,0.075c-0.056,0.084 -0.125,0.132 -0.209,0.148c-0.124,0.025 -0.216,-0.036 -0.273,-0.185c0.073,0.002 0.16,-0.012 0.263,-0.038m-1.153,0.342c-0.139,0.026 -0.25,0.016 -0.331,-0.033c-0.082,-0.049 -0.129,-0.108 -0.142,-0.177c-0.013,-0.07 0.008,-0.143 0.066,-0.219c0.057,-0.075 0.155,-0.127 0.292,-0.154l0.115,0.583Zm2.025,-1.128c0.008,0.042 0.022,0.091 0.038,0.144c0.018,0.054 0.031,0.101 0.04,0.144c0.022,0.111 -0.003,0.173 -0.072,0.186c-0.042,0.008 -0.079,-0.017 -0.113,-0.076c-0.032,-0.058 -0.053,-0.116 -0.064,-0.17c-0.014,-0.069 -0.01,-0.141 0.013,-0.207c0.022,-0.071 0.076,-0.112 0.159,-0.129c-0.011,0.017 -0.012,0.053 -0.001,0.108m-2.132,-0.642c0.242,-0.005 0.45,0.056 0.618,0.18c0.168,0.127 0.319,0.277 0.454,0.452c-0.079,0.031 -0.133,0.073 -0.158,0.128c-0.026,0.055 -0.078,0.105 -0.155,0.149c-0.134,-0.103 -0.279,-0.2 -0.434,-0.294c-0.155,-0.091 -0.258,-0.269 -0.309,-0.533l-0.016,-0.082Zm-1.163,-1.932c0.134,-0.085 0.182,-0.231 0.141,-0.439c-0.014,-0.07 -0.059,-0.129 -0.132,-0.18c-0.075,-0.05 -0.161,-0.065 -0.258,-0.047c-0.069,0.013 -0.121,0.042 -0.156,0.085c-0.033,0.041 -0.061,0.086 -0.083,0.134c-0.019,0.047 -0.042,0.091 -0.07,0.133c-0.028,0.041 -0.068,0.075 -0.121,0.1l-0.02,-0.105c-0.022,-0.111 -0.019,-0.202 0.012,-0.272c0.029,-0.07 0.066,-0.135 0.113,-0.195c0.046,-0.059 0.088,-0.121 0.125,-0.185c0.037,-0.065 0.055,-0.148 0.05,-0.248c0.267,-0.023 0.455,0.013 0.559,0.107c0.106,0.094 0.172,0.218 0.202,0.371c0.033,0.167 0.044,0.351 0.033,0.554c-0.012,0.2 0.002,0.4 0.041,0.596c0.021,0.111 0.062,0.219 0.127,0.322l-0.166,0.033c-0.112,0.021 -0.205,0.057 -0.282,0.107c-0.076,0.052 -0.104,0.133 -0.082,0.244c0.003,0.013 0.007,0.024 0.016,0.03c0.008,0.005 0.015,0.021 0.021,0.048l0.015,0.084c0.018,0.083 0.049,0.141 0.099,0.174c0.053,0.037 0.113,0.062 0.177,0.074c0.067,0.016 0.135,0.031 0.203,0.047c0.067,0.016 0.127,0.041 0.176,0.074c-0.147,0.057 -0.251,0.138 -0.307,0.244c-0.06,0.104 -0.157,0.184 -0.289,0.239c-0.113,-0.064 -0.193,-0.136 -0.236,-0.213c-0.043,-0.075 -0.073,-0.157 -0.09,-0.242c-0.032,-0.165 -0.034,-0.341 -0.005,-0.527c0.028,-0.186 0.026,-0.362 -0.006,-0.527c-0.024,-0.126 -0.074,-0.231 -0.148,-0.317c0.092,-0.12 0.205,-0.221 0.341,-0.303m2.992,1.014c0.111,-0.021 0.22,-0.107 0.328,-0.258c0.108,-0.15 0.208,-0.234 0.306,-0.255c-0.008,0.032 -0.007,0.074 0.003,0.131c0.011,0.054 0.042,0.082 0.093,0.078c0.049,-0.001 0.104,-0.008 0.167,-0.022c0.063,-0.011 0.122,-0.019 0.178,-0.024c0.057,-0.003 0.093,0.029 0.106,0.099c0.011,0.056 -0.031,0.114 -0.128,0.176c-0.095,0.062 -0.208,0.124 -0.341,0.185c-0.128,0.059 -0.251,0.127 -0.371,0.201c-0.115,0.074 -0.187,0.149 -0.215,0.226c-0.042,-0.064 -0.127,-0.137 -0.259,-0.22c-0.131,-0.083 -0.207,-0.179 -0.229,-0.289c-0.013,-0.07 0.02,-0.157 0.101,-0.258c0.077,0.173 0.164,0.249 0.261,0.23m-1.584,-1.257c0.055,0.054 0.089,0.117 0.102,0.185c0.017,0.083 -0.025,0.135 -0.121,0.153c-0.02,-0.025 -0.054,-0.068 -0.101,-0.131c-0.049,-0.063 -0.078,-0.121 -0.089,-0.177c-0.015,-0.083 0.017,-0.133 0.101,-0.149c0.02,0.025 0.056,0.063 0.108,0.119m0.323,-2.394c0.001,-0.109 -0.01,-0.217 -0.032,-0.328l-0.08,-0.417c-0.024,-0.124 -0.028,-0.234 -0.01,-0.331c0.017,-0.097 0.086,-0.165 0.207,-0.204c0.049,0.238 0.151,0.562 0.31,0.977c0.147,0.382 0.296,0.763 0.449,1.143c0.022,0.039 0.081,0.105 0.179,0.202c0.099,0.096 0.155,0.186 0.172,0.269c0.021,0.111 -0.052,0.183 -0.218,0.215c-0.199,-0.58 -0.551,-0.986 -1.058,-1.219c0.054,-0.096 0.081,-0.199 0.081,-0.307m2.65,0.359c-0.017,-0.01 -0.053,-0.01 -0.107,-0c-0.057,0.011 -0.118,0.03 -0.184,0.057c-0.067,0.028 -0.128,0.046 -0.183,0.056c-0.125,0.026 -0.196,-0.004 -0.212,-0.087c0.065,-0.041 0.14,-0.096 0.226,-0.163c0.09,-0.067 0.168,-0.108 0.238,-0.122c0.11,-0.022 0.181,0.044 0.21,0.196l0.012,0.063Zm-0.456,-1.12c-0.015,-0.083 -0.006,-0.145 0.03,-0.19c0.033,-0.042 0.042,-0.112 0.023,-0.209l-0.013,-0.061l0.063,-0.013c0.111,-0.022 0.21,0.021 0.294,0.126c0.085,0.106 0.14,0.215 0.16,0.325c0.018,0.082 0.007,0.142 -0.029,0.178c-0.031,-0.08 -0.115,-0.106 -0.253,-0.08c-0.028,0.006 -0.065,0.017 -0.113,0.033c-0.036,0.013 -0.074,0.024 -0.112,0.032c-0.023,-0.04 -0.039,-0.085 -0.05,-0.141m3.205,22.927c-0.041,-0.064 -0.092,-0.104 -0.152,-0.121c-0.062,-0.018 -0.125,-0.029 -0.192,-0.039c-0.066,-0.008 -0.131,-0.024 -0.192,-0.049c-0.062,-0.023 -0.109,-0.076 -0.139,-0.156c0.003,-0.203 0.011,-0.391 0.019,-0.566c0.01,-0.174 0.125,-0.282 0.347,-0.325c0.155,0.056 0.13,0.298 -0.074,0.726c0.263,0.165 0.454,0.229 0.576,0.19c0.122,-0.038 0.191,-0.015 0.207,0.067c0.023,0.111 -0.029,0.223 -0.151,0.332l-0.099,-0.174l-0.15,0.115Zm-2.094,0.774c-0.1,-0.079 -0.185,-0.176 -0.25,-0.287c-0.065,-0.109 -0.143,-0.22 -0.238,-0.331c0.016,-0.146 0.051,-0.225 0.106,-0.235c0.041,-0.009 0.094,-0.006 0.154,0.013c0.061,0.017 0.133,0.017 0.216,0l0.084,-0.015l0.156,0.14l0.221,-0.085c-0.002,0.144 0.02,0.292 0.065,0.441c0.042,0.149 -0.011,0.247 -0.161,0.29l-0.179,-0.029l-0.174,0.098Zm0.117,-1.728c0.003,-0.058 -0.003,-0.129 -0.02,-0.212c-0.025,-0.139 -0.087,-0.228 -0.18,-0.267c-0.093,-0.038 -0.182,-0.086 -0.266,-0.142c-0.002,-0.159 0.008,-0.29 0.032,-0.395c0.022,-0.106 0.024,-0.208 0.006,-0.303c-0.022,-0.112 -0.101,-0.218 -0.236,-0.322c0.1,-0.149 0.212,-0.235 0.339,-0.26c0.11,-0.021 0.221,-0.004 0.334,0.054c0.111,0.058 0.201,0.134 0.27,0.228c0.068,0.094 0.033,0.188 -0.108,0.28c-0.14,0.091 -0.186,0.299 -0.137,0.621c0.334,0.164 0.515,0.317 0.54,0.455c0.027,0.139 -0.038,0.245 -0.197,0.319l-0.177,-0.139l-0.2,0.083Zm-3.564,-12.561c0.006,-0.117 0.006,-0.196 -0.003,-0.237c-0.038,-0.194 -0.126,-0.316 -0.265,-0.368c-0.141,-0.053 -0.286,-0.064 -0.439,-0.035c-0.138,0.027 -0.248,0.074 -0.328,0.141c-0.081,0.065 -0.109,0.161 -0.085,0.285c0.018,0.097 0.049,0.174 0.088,0.232c0.04,0.056 0.078,0.111 0.117,0.16l0.175,0.01l-0.005,0.195c0.042,0.005 0.086,0.003 0.128,-0.004c0.084,-0.016 0.141,-0.053 0.173,-0.109c0.032,-0.057 0.091,-0.094 0.174,-0.108c0.013,-0.004 0.023,-0.002 0.032,0.003c0.009,0.006 0.026,0.006 0.055,0l0.005,-0.195l0.178,0.03Zm-0.932,0.311l0.017,-0.133c-0.091,-0.025 -0.178,-0.063 -0.258,-0.112c-0.083,-0.048 -0.179,-0.062 -0.29,-0.041c-0.111,0.022 -0.181,0.068 -0.21,0.139c-0.029,0.07 -0.038,0.14 -0.025,0.208c0.025,0.126 0.093,0.235 0.204,0.328c0.112,0.094 0.223,0.13 0.334,0.108c0.125,-0.024 0.188,-0.15 0.186,-0.381l0.042,-0.116Zm15.75,10.516c-0.02,0.046 -0.03,0.092 -0.027,0.134c0.001,0.043 -0.002,0.087 -0.008,0.131l0.035,-0.265Zm2.92,-1.971c0.001,-0.072 0.008,-0.139 0.025,-0.199c0.017,-0.062 0.021,-0.12 0.011,-0.175l-0.036,0.374Zm-11.963,5.196c0.064,-0.041 0.104,-0.098 0.118,-0.174c0.014,-0.073 0.028,-0.149 0.042,-0.223l-0.16,0.397Zm-1.557,-1.014c0.022,-0.032 0.035,-0.071 0.031,-0.114c-0,-0.043 0.003,-0.08 0.013,-0.11l-0.044,0.224Zm-0.053,0.615c-0.006,0.116 -0.006,0.195 0.003,0.237l-0.003,-0.237Zm3.014,-1.6c-0.107,0.049 -0.178,0.084 -0.217,0.107l0.217,-0.107Zm10.397,-1.913c-0.003,0.058 0.007,0.142 0.029,0.252l-0.029,-0.252Zm-8.453,3.585c-0.006,0.04 -0.009,0.08 -0.01,0.121c0,0.036 -0.001,0.083 -0.004,0.141l0.014,-0.262Zm5.725,0.141c-0.076,0.057 -0.139,0.106 -0.189,0.143l0.189,-0.143Zm-8.025,-4.637c0.091,0.098 0.169,0.18 0.231,0.247c0.043,0.044 0.085,0.09 0.126,0.137c-0.034,0.049 -0.049,0.107 -0.042,0.171c0.004,0.063 0.008,0.127 0.014,0.191c0.004,0.064 0.002,0.119 -0.011,0.165c-0.013,0.045 -0.148,0.07 -0.406,0.077l0.088,-0.988Zm4.658,5.419c0.069,0.058 0.127,0.127 0.17,0.206l-0.17,-0.206Zm-10.303,-6.481c0.02,-0.046 0.033,-0.088 0.04,-0.126c0.007,-0.037 0.021,-0.079 0.04,-0.126l-0.08,0.252Zm-2.11,-7.856c0.024,-0.02 0.057,-0.036 0.098,-0.052c0.04,-0.015 0.071,-0.039 0.094,-0.071l-0.192,0.123Zm0.923,-0.136c-0.036,-0.037 -0.065,-0.071 -0.085,-0.103c-0.02,-0.031 -0.049,-0.066 -0.084,-0.102l0.169,0.205Zm-2.088,-0.308c0.011,0.057 0.018,0.113 0.021,0.169c0.004,0.057 0.007,0.122 0.006,0.194l-0.027,-0.363Zm17.019,-7.278c0.136,-0.257 0.279,-0.517 0.431,-0.776c0.157,-0.268 0.309,-0.538 0.457,-0.811c0.154,-0.282 0.307,-0.589 0.457,-0.92c0.054,-0.097 0.101,-0.228 0.141,-0.394c0.039,-0.166 0.095,-0.328 0.165,-0.486c0.067,-0.17 0.162,-0.38 0.287,-0.628c0.126,-0.25 0.25,-0.5 0.373,-0.751c0.123,-0.254 0.222,-0.498 0.3,-0.729c0.077,-0.23 0.104,-0.415 0.075,-0.554c-0.023,-0.124 -0.097,-0.247 -0.221,-0.367c-0.125,-0.12 -0.277,-0.235 -0.456,-0.343c-0.185,-0.112 -0.374,-0.215 -0.568,-0.31c-0.198,-0.099 -0.382,-0.174 -0.55,-0.228c-1.204,-0.415 -2.557,-0.693 -4.059,-0.84c-1.504,-0.147 -3.046,-0.067 -4.627,0.24c-1.443,0.28 -2.801,0.747 -4.078,1.398c-1.277,0.65 -2.433,1.443 -3.466,2.378c-1.035,0.934 -1.941,1.989 -2.72,3.163c-0.779,1.173 -1.403,2.42 -1.873,3.742c-0.471,1.322 -0.764,2.695 -0.884,4.122c-0.118,1.425 -0.038,2.852 0.239,4.281c0.208,1.068 0.488,2.05 0.844,2.945c0.352,0.896 0.773,1.727 1.261,2.496c0.487,0.767 1.033,1.483 1.636,2.143c0.603,0.659 1.264,1.286 1.983,1.88c0.877,0.737 1.819,1.377 2.824,1.923c1.006,0.546 2.061,0.974 3.164,1.284c1.105,0.311 2.257,0.489 3.461,0.537c1.204,0.046 2.451,-0.056 3.738,-0.306c1,-0.195 1.952,-0.456 2.861,-0.782c0.907,-0.328 1.73,-0.708 2.466,-1.138c0.336,-0.195 0.735,-0.438 1.197,-0.73c0.46,-0.29 0.892,-0.608 1.293,-0.953c0.4,-0.343 0.731,-0.698 0.99,-1.066c0.259,-0.368 0.357,-0.717 0.292,-1.05c-0.05,-0.263 -0.181,-0.472 -0.391,-0.625c-0.21,-0.154 -0.383,-0.289 -0.521,-0.406c-0.052,-0.048 -0.106,-0.113 -0.156,-0.197c-0.053,-0.083 -0.108,-0.155 -0.162,-0.216c-0.355,-0.348 -0.743,-0.745 -1.159,-1.189c-0.419,-0.443 -0.825,-0.858 -1.224,-1.241c-0.398,-0.382 -0.759,-0.701 -1.08,-0.955c-0.323,-0.254 -0.568,-0.365 -0.735,-0.333c-0.195,0.039 -0.37,0.113 -0.529,0.222c-0.161,0.113 -0.313,0.236 -0.456,0.369c-0.153,0.143 -0.301,0.29 -0.444,0.443c-0.153,0.161 -0.324,0.303 -0.511,0.423c-0.43,0.299 -0.903,0.568 -1.419,0.804c-0.515,0.238 -1.064,0.412 -1.648,0.526c-0.761,0.148 -1.493,0.193 -2.195,0.135c-0.708,-0.058 -1.417,-0.111 -2.126,-0.158c-0.276,-0.248 -0.552,-0.46 -0.824,-0.639c-0.272,-0.177 -0.536,-0.353 -0.794,-0.526c-0.257,-0.173 -0.508,-0.354 -0.753,-0.544c-0.245,-0.19 -0.48,-0.415 -0.702,-0.673c-0.521,-0.603 -0.94,-1.239 -1.255,-1.904c-0.318,-0.664 -0.543,-1.351 -0.681,-2.058c-0.205,-1.054 -0.208,-2.108 -0.01,-3.162c0.198,-1.051 0.571,-2.013 1.123,-2.882c0.55,-0.87 1.261,-1.621 2.131,-2.25c0.871,-0.629 1.867,-1.053 2.992,-1.272c0.705,-0.138 1.306,-0.179 1.798,-0.123c0.492,0.056 0.942,0.144 1.349,0.267c0.4,0.122 0.799,0.249 1.196,0.382c0.391,0.133 0.848,0.206 1.369,0.219c0.115,-0.275 0.243,-0.545 0.384,-0.807" style="fill:#0a060d;fill-rule:nonzero;"/></g></svg>