<?xml version="1.0" encoding="UTF-8" standalone="no"?><!DOCTYPE svg PUBLIC "-//W3C//DTD SVG 1.1//EN" "http://www.w3.org/Graphics/SVG/1.1/DTD/svg11.dtd"><svg width="100%" height="100%" viewBox="0 0 288 65" version="1.1" xmlns="http://www.w3.org/2000/svg" xmlns:xlink="http://www.w3.org/1999/xlink" xml:space="preserve" xmlns:serif="http://www.serif.com/" style="fill-rule:evenodd;clip-rule:evenodd;stroke-linejoin:round;stroke-miterlimit:2;"><g id="logo-full"><g><path d="M32.009,31.029l-24.989,0l-0,28.952l12.996,-0l-0,-19.977l13.027,0l-0,-0.971l-13.027,-0l-0,-7.032l11.993,-0l-0,-0.972Z" style="fill:#ff98dc;"/><path d="M39.024,59.981l27.613,-0l-0,-1.004l-14.617,0l0,-27.948l-12.996,0l-0,28.952Z" style="fill:#ff98dc;"/><path d="M72.65,56.019l15.796,-0l2.362,3.962l14.489,-0l-17.649,-30.581l-18.671,30.581l1.207,-0l2.466,-3.962Zm0.627,-1.008l14.568,0l-7.126,-11.955l-7.442,11.955Z" style="fill:#ff98dc;"/><path d="M150.147,59.976l-9.512,-29.31l-11.486,16.601l-11.791,-16.581l-9.34,29.295l1.207,-0l4.679,-14.449l9.089,12.182l9.457,-13.313l4.493,15.575l13.204,0Z" style="fill:#ff98dc;"/><rect x="156.009" y="31.029" width="12.996" height="28.952" style="fill:#ff98dc;"/><path d="M204.026,45.787l-26.984,-15.233l-0,29.427l0.988,-0l0,-14.549l27.012,15.248l0,-29.651l-1.016,0l-0,14.758Z" style="fill:#ff98dc;"/><path d="M243.467,45.013c0.006,0.163 0.008,0.328 0.008,0.492c0,8.375 -6.947,15.175 -15.505,15.175c-8.557,0 -15.505,-6.8 -15.505,-15.175c0,-8.376 6.948,-15.175 15.505,-15.175c5.251,-0 9.896,2.56 12.702,6.474l-0.752,0.668c-2.617,-3.71 -6.997,-6.142 -11.95,-6.142c-0.82,-0 -1.626,0.066 -2.409,0.195l0,27.96c0.783,0.129 1.589,0.195 2.409,0.195c7.665,0 13.957,-5.825 14.471,-13.198l-13.431,-0l0,-1.469l14.457,-0Z" style="fill:#ff98dc;"/><path d="M264.919,30.33c8.557,-0 15.505,6.799 15.505,15.175c-0,8.375 -6.948,15.175 -15.505,15.175c-8.558,0 -15.505,-6.8 -15.505,-15.175c-0,-8.376 6.947,-15.175 15.505,-15.175Zm-2.41,29.155l0,-27.96c0.784,-0.129 1.589,-0.195 2.41,-0.195c7.999,-0 14.505,6.345 14.505,14.175c-0,7.83 -6.506,14.175 -14.505,14.175c-0.821,0 -1.626,-0.066 -2.41,-0.195Z" style="fill:#ff98dc;"/></g></g></svg>