<?xml version="1.0" encoding="UTF-8" standalone="no"?><!DOCTYPE svg PUBLIC "-//W3C//DTD SVG 1.1//EN" "http://www.w3.org/Graphics/SVG/1.1/DTD/svg11.dtd"><svg width="100%" height="100%" viewBox="0 0 254 69" version="1.1" xmlns="http://www.w3.org/2000/svg" xmlns:xlink="http://www.w3.org/1999/xlink" xml:space="preserve" xmlns:serif="http://www.serif.com/" style="fill-rule:evenodd;clip-rule:evenodd;stroke-linejoin:round;stroke-miterlimit:2;"><g id="KLAFS"><path d="M60.844,0.347l11.218,-0l-17.703,19.806l18.754,23.136l-11.743,-0l-14.898,-19.28l-0,19.28l-9.114,-0l-0,-42.942l9.114,-0l-0,18.053l14.372,-18.053Zm25.59,35.756l15.249,-0l-0,7.186l-24.188,-0l0,-42.942l8.939,-0l0,35.756Zm81.852,-28.57l0,9.465l15.424,-0l0,7.361l-15.424,0l0,18.93l-8.938,-0l-0,-42.942l24.538,-0l-0,7.186l-15.6,0Zm42.767,2.279c-1.753,-2.104 -3.856,-3.506 -7.011,-3.506c-2.98,0 -5.609,2.103 -5.609,4.908c0,7.186 18.404,4.206 18.404,18.579c-0,8.588 -5.784,14.723 -15.249,14.723c-6.485,-0 -11.042,-3.506 -14.372,-8.413l5.784,-5.259c1.227,3.331 4.557,6.31 8.413,6.31c3.681,0 5.959,-2.979 5.959,-6.31c0,-4.381 -4.382,-5.784 -8.062,-7.011c-5.96,-2.278 -10.341,-5.082 -10.341,-11.743c-0,-7.186 5.784,-12.97 13.671,-12.97c4.206,0 9.815,1.928 12.62,4.732l-4.207,5.96Zm-54.685,33.477l-11.042,-0l-15.074,-26.642l-15.424,26.642l-11.042,-0l25.94,-43.994c0,0 17.528,28.92 26.642,43.994" style="fill:#47414d;fill-rule:nonzero;"/><path d="M140.068,47.495l-19.982,0l9.64,-17.352l10.342,17.352" style="fill:#5b5363;fill-rule:nonzero;"/><path d="M39.461,57.311l3.506,8.062l3.505,-8.062l1.928,10.165l-1.052,0l-1.227,-6.485l-3.154,6.836l-2.98,-6.836l-1.227,6.485l-1.227,0l1.928,-10.165Zm12.97,0.701l1.227,-0l2.454,4.206l2.454,-4.206l1.227,-0l-3.155,5.433l-0,4.031l-1.052,0l0,-4.031l-3.155,-5.433Zm23.487,1.752c-0.351,-0.701 -0.877,-1.051 -1.578,-1.051c-0.876,-0 -1.577,0.526 -1.577,1.402c-0,0.876 0.876,1.227 1.577,1.577l0.701,0.351c1.227,0.526 2.279,1.227 2.279,2.629c-0,1.753 -1.402,2.98 -2.98,2.98c-1.577,-0 -2.629,-1.052 -2.979,-2.454l1.051,-0.351c0.176,1.052 0.877,1.753 1.928,1.753c1.052,0 1.928,-0.876 1.928,-1.928c0,-1.052 -0.876,-1.577 -1.752,-1.928l-0.526,-0.175c-1.052,-0.526 -2.103,-1.052 -2.103,-2.454c-0,-1.402 1.226,-2.454 2.629,-2.454c1.051,0 1.928,0.526 2.453,1.402l-1.051,0.701Zm9.815,0.176l-1.577,3.856l3.155,-0l-1.578,-3.856Zm-2.103,4.907l-1.227,2.629l-1.227,0l4.382,-9.99l4.382,9.99l-1.227,0l-1.052,-2.629l-4.031,0Zm11.918,-1.227c0,0.701 0,1.578 0.351,2.104c0.35,0.525 1.227,0.876 1.928,0.876c0.701,0 1.402,-0.351 1.928,-0.876c0.526,-0.526 0.526,-1.403 0.526,-2.279l-0,-5.609l1.051,0l0,6.135c0,1.052 0,1.928 -0.876,2.629c-0.701,0.701 -1.577,1.052 -2.629,1.052c-0.876,-0 -1.753,-0.351 -2.454,-1.052c-0.876,-0.876 -0.876,-1.753 -0.876,-2.804l-0,-5.96l1.051,0l0,5.784Zm11.218,3.856l1.051,0l0,-7.361l7.537,7.887l0,-9.99l-1.052,-0l0,7.361l-7.536,-7.887l-0,9.99Zm17.702,-7.536l-1.577,3.856l3.155,-0l-1.578,-3.856Zm-2.103,4.907l-1.227,2.629l-1.227,0l4.382,-9.99l4.382,9.99l-1.227,0l-1.052,-2.629l-4.031,0Zm22.084,-4.907l-1.577,3.856l3.155,-0l-1.578,-3.856Zm-1.928,4.907l-1.227,2.629l-1.226,0l4.381,-9.99l4.382,9.99l-1.227,0l-1.051,-2.629l-4.032,0Zm11.043,2.629l1.051,0l0,-7.361l7.537,7.887l-0,-9.99l-1.227,-0l0,7.361l-7.361,-7.887l-0,9.99Zm15.949,-0.876c1.227,0 2.104,-0.175 2.98,-1.052c0.701,-0.701 1.227,-1.752 1.227,-2.804c-0,-1.052 -0.351,-2.103 -1.227,-2.804c-0.876,-0.701 -1.753,-0.877 -2.98,-0.877l-0.701,0l0,7.537l0.701,0Zm-2.103,-8.588l1.928,-0c1.402,-0 2.629,0.175 3.681,1.227c1.051,0.876 1.577,2.278 1.577,3.68c0,1.402 -0.526,2.629 -1.577,3.506c-1.227,1.051 -2.279,1.227 -3.856,1.227l-1.753,-0l0,-9.64Zm23.837,1.752c-0.35,-0.701 -0.876,-1.051 -1.577,-1.051c-0.877,-0 -1.578,0.526 -1.578,1.402c0,0.876 0.877,1.227 1.578,1.577l0.701,0.351c1.227,0.526 2.278,1.227 2.278,2.629c0,1.753 -1.402,2.98 -2.979,2.98c-1.578,-0 -2.629,-1.052 -2.98,-2.454l1.052,-0.351c0.175,1.052 0.876,1.753 1.928,1.753c1.051,0 1.928,-0.876 1.928,-1.928c-0,-1.052 -0.877,-1.577 -1.753,-1.928l-0.526,-0.175c-1.051,-0.526 -2.103,-1.052 -2.103,-2.454c-0,-1.402 1.227,-2.454 2.629,-2.454c1.052,0 1.928,0.526 2.454,1.402l-1.052,0.701Zm7.537,2.629l0.701,0c1.227,0 2.103,-0.35 2.103,-1.752c0,-1.578 -1.227,-1.753 -2.454,-1.753l-0.35,0l-0,3.505Zm0.175,5.083l-1.227,0l0,-9.64l1.578,0c0.876,0 1.752,0 2.454,0.526c0.701,0.526 1.051,1.402 1.051,2.103c0,0.702 -0.35,1.578 -0.876,2.104c-0.701,0.526 -1.402,0.701 -2.279,0.701l-0.701,-0l0,4.206Zm10.867,-7.536l-1.577,3.856l3.155,-0l-1.578,-3.856Zm-2.103,4.907l-1.052,2.629l-1.227,0l4.382,-9.99l4.382,9.99l-1.227,0l-1.052,-2.629l-4.206,0Z" style="fill:#47414d;fill-rule:nonzero;"/></g></svg>