<?xml version="1.0" encoding="UTF-8" standalone="no"?><!DOCTYPE svg PUBLIC "-//W3C//DTD SVG 1.1//EN" "http://www.w3.org/Graphics/SVG/1.1/DTD/svg11.dtd"><svg width="100%" height="100%" viewBox="0 0 288 61" version="1.1" xmlns="http://www.w3.org/2000/svg" xmlns:xlink="http://www.w3.org/1999/xlink" xml:space="preserve" xmlns:serif="http://www.serif.com/" style="fill-rule:evenodd;clip-rule:evenodd;stroke-linejoin:round;stroke-miterlimit:2;"><g id="logo-full"><path d="M287.197,26.213c0,-0.883 -0.351,-1.73 -0.975,-2.354c-0.625,-0.625 -1.472,-0.975 -2.355,-0.975l-279.699,-0c-0.883,-0 -1.73,0.35 -2.354,0.975c-0.625,0.624 -0.976,1.471 -0.976,2.354l0,23.853c0,0.884 0.351,1.731 0.976,2.355c0.624,0.624 1.471,0.975 2.354,0.975l279.699,0c0.883,0 1.73,-0.351 2.355,-0.975c0.624,-0.624 0.975,-1.471 0.975,-2.355l0,-23.853Z" style="fill:#1fe0fd;"/></g></svg>