<?xml version="1.0" encoding="UTF-8" standalone="no"?><!DOCTYPE svg PUBLIC "-//W3C//DTD SVG 1.1//EN" "http://www.w3.org/Graphics/SVG/1.1/DTD/svg11.dtd"><svg width="100%" height="100%" viewBox="0 0 288 61" version="1.1" xmlns="http://www.w3.org/2000/svg" xmlns:xlink="http://www.w3.org/1999/xlink" xml:space="preserve" xmlns:serif="http://www.serif.com/" style="fill-rule:evenodd;clip-rule:evenodd;stroke-linejoin:round;stroke-miterlimit:2;"><g id="logo-full"><g><path d="M79.58,0.002l13.11,19.024l9.33,-10.026l9.71,9.813l14.023,-18.811l-1.608,-0l-7.168,9.469l-8.994,-9.469l-8.359,9.427l-6.84,-9.427l-13.204,-0Z" style="fill:#1fe0fd;"/><rect x="129.564" y="0.002" width="12.95" height="17.995" style="fill:#1fe0fd;"/><path d="M162.412,0.002l-12.95,-0l-0,17.995l27.055,0l0.01,-0.996l-14.115,-0.001l0,-16.998Z" style="fill:#1fe0fd;"/><path d="M181.603,17.997l0,-17.995l12.951,-0l0.106,0c8.998,0.031 16.285,4.051 16.285,8.998c0,4.966 -7.344,8.997 -16.391,8.997l-12.951,0Zm12.951,-16.995c5.178,-0 9.781,1.355 12.628,3.486c1.702,1.274 2.763,2.812 2.763,4.512c0,1.699 -1.061,3.237 -2.763,4.512c-2.847,2.131 -7.45,3.485 -12.628,3.485l-0,-15.995Z" style="fill:#1fe0fd;"/></g><path d="M12.222,53.396l-8.054,0c-0.883,0 -1.73,-0.351 -2.354,-0.975c-0.625,-0.624 -0.976,-1.471 -0.976,-2.355l0,-23.853c0,-0.883 0.351,-1.73 0.976,-2.354c0.624,-0.625 1.471,-0.975 2.354,-0.975l279.699,-0c0.883,-0 1.73,0.35 2.355,0.975c0.624,0.624 0.975,1.471 0.975,2.354l0,23.853c0,0.884 -0.351,1.731 -0.975,2.355c-0.284,0.284 -0.614,0.511 -0.972,0.674c0.247,-1.073 0.376,-2.188 0.376,-3.333c0,-8.376 -6.947,-15.176 -15.505,-15.176c-8.557,0 -15.505,6.8 -15.505,15.176c0,1.253 0.156,2.47 0.449,3.634l-6.835,0c0.293,-1.164 0.448,-2.381 0.448,-3.634c0,-0.164 -0.003,-0.329 -0.008,-0.493l-14.457,0l-0,1.469l13.431,0c-0.063,0.913 -0.215,1.801 -0.448,2.658l-16.432,0l-0,-17.615c0.783,-0.128 1.588,-0.195 2.409,-0.195c4.953,0 9.332,2.433 11.95,6.143l0.751,-0.669c-2.805,-3.913 -7.45,-6.474 -12.701,-6.474c-8.557,0 -15.505,6.8 -15.505,15.176c0,1.253 0.156,2.47 0.448,3.634l-7.871,0l0,-18.11l-1.016,-0l-0,14.757l-26.985,-15.232l0,18.585l-8.036,0l0,-18.11l-12.996,-0l-0,18.11l-9.379,0l-5.995,-18.473l-11.486,16.601l-11.792,-16.581l-5.883,18.453l-12.434,0l-11.392,-19.739l-12.052,19.739l-23.576,0l-0,-18.11l-12.996,-0l-0,18.11l-19.008,0l-0,-9.135l13.026,0l0,-0.972l-13.026,0l-0,-7.031l11.992,-0l0,-0.972l-24.989,-0l0,18.11Zm77.326,0l-7.413,0l3.786,-6.083l3.627,6.083Zm32.25,0l-3.86,0l1.169,-3.608l2.691,3.608Zm17.222,0l-4.733,0l3.366,-4.739l1.367,4.739Zm50.78,0l-6.567,0l-0,-3.707l6.567,3.707Zm77.912,0l0,-17.614c0.784,-0.129 1.589,-0.196 2.409,-0.196c8,0 14.505,6.346 14.505,14.176c0,1.252 -0.166,2.466 -0.478,3.622c-0.093,0.008 -0.187,0.012 -0.281,0.012l-16.155,0Z" style="fill:#1fe0fd;"/><g><path d="M32.009,31.029l-24.989,0l-0,28.952l12.996,-0l-0,-19.977l13.027,0l-0,-0.971l-13.027,-0l-0,-7.032l11.993,-0l-0,-0.972Z" style="fill:#ff98dc;"/><path d="M39.024,59.981l27.613,-0l-0,-1.004l-14.617,0l0,-27.948l-12.996,0l-0,28.952Z" style="fill:#ff98dc;"/><path d="M72.65,56.019l15.796,-0l2.362,3.962l14.489,-0l-17.649,-30.581l-18.671,30.581l1.207,-0l2.466,-3.962Zm0.627,-1.008l14.568,0l-7.126,-11.955l-7.442,11.955Z" style="fill:#ff98dc;"/><path d="M150.147,59.976l-9.512,-29.31l-11.486,16.601l-11.791,-16.581l-9.34,29.295l1.207,-0l4.679,-14.449l9.089,12.182l9.457,-13.313l4.493,15.575l13.204,0Z" style="fill:#ff98dc;"/><rect x="156.009" y="31.029" width="12.996" height="28.952" style="fill:#ff98dc;"/><path d="M204.026,45.787l-26.984,-15.233l-0,29.427l0.988,-0l0,-14.549l27.012,15.248l0,-29.651l-1.016,0l-0,14.758Z" style="fill:#ff98dc;"/><path d="M243.467,45.013c0.006,0.163 0.008,0.328 0.008,0.492c0,8.375 -6.947,15.175 -15.505,15.175c-8.557,0 -15.505,-6.8 -15.505,-15.175c0,-8.376 6.948,-15.175 15.505,-15.175c5.251,-0 9.896,2.56 12.702,6.474l-0.752,0.668c-2.617,-3.71 -6.997,-6.142 -11.95,-6.142c-0.82,-0 -1.626,0.066 -2.409,0.195l0,27.96c0.783,0.129 1.589,0.195 2.409,0.195c7.665,0 13.957,-5.825 14.471,-13.198l-13.431,-0l0,-1.469l14.457,-0Z" style="fill:#ff98dc;"/><path d="M264.919,30.33c8.557,-0 15.505,6.799 15.505,15.175c-0,8.375 -6.948,15.175 -15.505,15.175c-8.558,0 -15.505,-6.8 -15.505,-15.175c-0,-8.376 6.947,-15.175 15.505,-15.175Zm-2.41,29.155l0,-27.96c0.784,-0.129 1.589,-0.195 2.41,-0.195c7.999,-0 14.505,6.345 14.505,14.175c-0,7.83 -6.506,14.175 -14.505,14.175c-0.821,0 -1.626,-0.066 -2.41,-0.195Z" style="fill:#ff98dc;"/></g></g></svg>