<?xml version="1.0" encoding="UTF-8" standalone="no"?><!DOCTYPE svg PUBLIC "-//W3C//DTD SVG 1.1//EN" "http://www.w3.org/Graphics/SVG/1.1/DTD/svg11.dtd"><svg width="100%" height="100%" viewBox="0 0 288 61" version="1.1" xmlns="http://www.w3.org/2000/svg" xmlns:xlink="http://www.w3.org/1999/xlink" xml:space="preserve" xmlns:serif="http://www.serif.com/" style="fill-rule:evenodd;clip-rule:evenodd;stroke-linejoin:round;stroke-miterlimit:2;"><g id="logo-full"><path d="M12.222,53.396l-8.054,0c-0.883,0 -1.73,-0.351 -2.354,-0.975c-0.625,-0.624 -0.976,-1.471 -0.976,-2.355l0,-23.853c0,-0.883 0.351,-1.73 0.976,-2.354c0.624,-0.625 1.471,-0.975 2.354,-0.975l279.699,-0c0.883,-0 1.73,0.35 2.355,0.975c0.624,0.624 0.975,1.471 0.975,2.354l0,23.853c0,0.884 -0.351,1.731 -0.975,2.355c-0.284,0.284 -0.614,0.511 -0.972,0.674c0.247,-1.073 0.376,-2.188 0.376,-3.333c0,-8.376 -6.947,-15.176 -15.505,-15.176c-8.557,0 -15.505,6.8 -15.505,15.176c0,1.253 0.156,2.47 0.449,3.634l-6.835,0c0.293,-1.164 0.448,-2.381 0.448,-3.634c0,-0.164 -0.003,-0.329 -0.008,-0.493l-14.457,0l-0,1.469l13.431,0c-0.063,0.913 -0.215,1.801 -0.448,2.658l-16.432,0l-0,-17.615c0.783,-0.128 1.588,-0.195 2.409,-0.195c4.953,0 9.332,2.433 11.95,6.143l0.751,-0.669c-2.805,-3.913 -7.45,-6.474 -12.701,-6.474c-8.557,0 -15.505,6.8 -15.505,15.176c0,1.253 0.156,2.47 0.448,3.634l-7.871,0l0,-18.11l-1.016,-0l-0,14.757l-26.985,-15.232l0,18.585l-8.036,0l0,-18.11l-12.996,-0l-0,18.11l-9.379,0l-5.995,-18.473l-11.486,16.601l-11.792,-16.581l-5.883,18.453l-12.434,0l-11.392,-19.739l-12.052,19.739l-23.576,0l-0,-18.11l-12.996,-0l-0,18.11l-19.008,0l-0,-9.135l13.026,0l0,-0.972l-13.026,0l-0,-7.031l11.992,-0l0,-0.972l-24.989,-0l0,18.11Zm77.326,0l-7.413,0l3.786,-6.083l3.627,6.083Zm32.25,0l-3.86,0l1.169,-3.608l2.691,3.608Zm17.222,0l-4.733,0l3.366,-4.739l1.367,4.739Zm50.78,0l-6.567,0l-0,-3.707l6.567,3.707Zm77.912,0l0,-17.614c0.784,-0.129 1.589,-0.196 2.409,-0.196c8,0 14.505,6.346 14.505,14.176c0,1.252 -0.166,2.466 -0.478,3.622c-0.093,0.008 -0.187,0.012 -0.281,0.012l-16.155,0Z" style="fill:#1fe0fd;"/></g></svg>