<?xml version="1.0" encoding="UTF-8" standalone="no"?><!DOCTYPE svg PUBLIC "-//W3C//DTD SVG 1.1//EN" "http://www.w3.org/Graphics/SVG/1.1/DTD/svg11.dtd"><svg width="100%" height="100%" viewBox="0 0 277 46" version="1.1" xmlns="http://www.w3.org/2000/svg" xmlns:xlink="http://www.w3.org/1999/xlink" xml:space="preserve" xmlns:serif="http://www.serif.com/" style="fill-rule:evenodd;clip-rule:evenodd;stroke-linejoin:round;stroke-miterlimit:2;"><g id="ALLROUND"><path d="M55.051,26.33c0,1.216 0.95,2.167 2.167,2.167c1.026,-0 1.749,-0.495 2.167,-1.483l2.242,-5.133l12.925,0l2.167,4.981c0.418,1.026 1.178,1.635 2.281,1.635c1.254,-0 2.204,-0.989 2.204,-2.243c0,-0.343 -0.076,-0.647 -0.266,-0.989l-9.883,-22.047c-0.57,-1.179 -1.445,-1.901 -2.775,-1.901l-0.228,-0c-1.331,-0 -2.243,0.722 -2.813,1.901l-9.884,22.047c-0.19,0.418 -0.304,0.76 -0.304,1.065Zm8.363,-8.588l4.676,-10.76l4.675,10.76l-9.351,-0Z" style="fill:#47414d;fill-rule:nonzero;"/><path d="M86.342,25.952c-0,1.329 1.025,2.355 2.355,2.355l14.369,-0c1.179,-0 2.129,-0.95 2.129,-2.127c0,-1.177 -0.95,-2.127 -2.129,-2.127l-12.052,0l-0,-20.227c-0,-1.33 -0.988,-2.319 -2.317,-2.319c-1.33,0 -2.355,0.989 -2.355,2.319l-0,22.126Z" style="fill:#47414d;fill-rule:nonzero;"/><path d="M109.952,25.952c0,1.329 1.026,2.355 2.355,2.355l14.37,-0c1.178,-0 2.129,-0.95 2.129,-2.127c-0,-1.177 -0.951,-2.127 -2.129,-2.127l-12.053,0l0,-20.227c0,-1.33 -0.987,-2.319 -2.317,-2.319c-1.329,0 -2.355,0.989 -2.355,2.319l0,22.126Z" style="fill:#47414d;fill-rule:nonzero;"/><path d="M133.563,26.178c0,1.33 1.026,2.319 2.355,2.319c1.329,-0 2.317,-0.989 2.317,-2.319l-0,-7.148l5.895,-0l6.466,8.25c0.57,0.722 1.216,1.217 2.279,1.217c1.177,-0 2.241,-0.837 2.241,-2.167c-0,-0.723 -0.304,-1.217 -0.76,-1.787l-5.091,-6.425c3.572,-1.139 6.041,-3.646 6.041,-7.945l-0,-0.076c-0,-2.32 -0.798,-4.26 -2.203,-5.741c-1.709,-1.671 -4.333,-2.659 -7.68,-2.659l-9.505,0c-1.329,0 -2.355,1.026 -2.355,2.355l0,22.126Zm4.672,-11.288l-0,-8.939l6.808,-0c3.499,-0 5.515,1.521 5.515,4.412l0,0.076c0,2.739 -2.13,4.451 -5.477,4.451l-6.846,0Z" style="fill:#47414d;fill-rule:nonzero;"/><path d="M173.824,28.763c8.177,-0 13.951,-6.307 13.951,-13.761l0,-0.076c0,-7.492 -5.698,-13.685 -13.875,-13.685c-8.176,-0 -13.951,6.307 -13.951,13.761l0,0.076c0,7.492 5.699,13.685 13.875,13.685Zm0.076,-4.33c-5.324,0 -9.051,-4.259 -9.051,-9.431l-0,-0.076c-0,-5.172 3.689,-9.394 8.975,-9.394c5.324,0 9.051,4.298 9.051,9.47l0,0.076c0,5.172 -3.689,9.355 -8.975,9.355Z" style="fill:#47414d;fill-rule:nonzero;"/><path d="M204.43,28.725c6.96,-0 11.442,-3.988 11.442,-11.934l0,-12.965c0,-1.33 -0.987,-2.319 -2.317,-2.319c-1.329,0 -2.355,0.989 -2.355,2.319l0,13.193c0,4.905 -2.548,7.376 -6.693,7.376c-4.222,0 -6.732,-2.585 -6.732,-7.566l-0,-13.003c-0,-1.33 -0.988,-2.319 -2.317,-2.319c-1.33,0 -2.355,0.989 -2.355,2.319l-0,13.193c-0,7.718 4.444,11.706 11.327,11.706Z" style="fill:#47414d;fill-rule:nonzero;"/><path d="M222.378,26.216c0,1.254 0.988,2.281 2.317,2.281c1.254,-0 2.279,-1.027 2.279,-2.281l0,-16.878l13.692,17.714c0.646,0.875 1.33,1.407 2.431,1.407l0.19,-0c1.33,-0 2.279,-0.989 2.279,-2.319l0,-22.352c0,-1.254 -0.987,-2.281 -2.317,-2.281c-1.253,0 -2.279,1.027 -2.279,2.281l0,16.346l-13.311,-17.256c-0.647,-0.8 -1.255,-1.371 -2.432,-1.371l-0.494,0c-1.329,0 -2.355,1.028 -2.355,2.36l0,22.349Z" style="fill:#47414d;fill-rule:nonzero;"/><path d="M252.491,25.952c-0,1.329 1.025,2.355 2.354,2.355l7.566,-0c8.367,-0 14.142,-5.813 14.142,-13.305l-0,-0.076c-0,-7.492 -5.775,-13.229 -14.142,-13.229l-7.566,0c-1.329,0 -2.354,1.026 -2.354,2.355l-0,21.9Zm4.671,-1.899l0,-18.102l5.249,-0c5.591,-0 9.242,3.841 9.242,9.051l-0,0.076c-0,5.21 -3.651,8.975 -9.242,8.975l-5.249,0Z" style="fill:#47414d;fill-rule:nonzero;"/><path d="M55.051,45.768c0,0.4 0.313,0.713 0.713,0.713c0.337,-0 0.574,-0.163 0.712,-0.488l0.737,-1.687l4.25,-0l0.712,1.637c0.137,0.338 0.387,0.538 0.75,0.538c0.412,-0 0.725,-0.325 0.725,-0.738c-0,-0.112 -0.025,-0.212 -0.088,-0.325l-3.249,-7.248c-0.188,-0.388 -0.475,-0.625 -0.913,-0.625l-0.075,-0c-0.437,-0 -0.737,0.237 -0.924,0.625l-3.25,7.248c-0.062,0.138 -0.1,0.25 -0.1,0.35Zm2.75,-2.823l1.537,-3.538l1.537,3.538l-3.074,-0Z" style="fill:#47414d;fill-rule:nonzero;"/><path d="M76.301,46.556c2.288,-0 3.761,-1.311 3.761,-3.924l0,-4.262c0,-0.438 -0.324,-0.763 -0.761,-0.763c-0.437,0 -0.775,0.325 -0.775,0.763l0,4.337c0,1.613 -0.837,2.426 -2.2,2.426c-1.388,-0 -2.214,-0.851 -2.214,-2.488l0,-4.275c0,-0.438 -0.324,-0.763 -0.761,-0.763c-0.437,0 -0.775,0.325 -0.775,0.763l0,4.337c0,2.538 1.461,3.849 3.725,3.849Z" style="fill:#47414d;fill-rule:nonzero;"/><path d="M91.952,45.718c-0,0.438 0.337,0.763 0.774,0.763c0.437,-0 0.774,-0.325 0.774,-0.763l0,-6.625l2.138,0c0.387,0 0.7,-0.324 0.7,-0.711c-0,-0.387 -0.313,-0.712 -0.7,-0.712l-5.811,-0c-0.4,-0 -0.713,0.325 -0.713,0.712c0,0.387 0.313,0.711 0.713,0.711l2.125,0l-0,6.625Z" style="fill:#47414d;fill-rule:nonzero;"/><path d="M109.226,46.568c2.688,0 4.587,-2.073 4.587,-4.524l-0,-0.025c-0,-2.463 -1.874,-4.499 -4.562,-4.499c-2.688,-0 -4.587,2.074 -4.587,4.524l0,0.025c0,2.463 1.874,4.499 4.562,4.499Zm0.025,-1.423c-1.75,0 -2.976,-1.4 -2.976,-3.101l0,-0.025c0,-1.7 1.213,-3.088 2.951,-3.088c1.751,-0 2.976,1.413 2.976,3.113l-0,0.025c-0,1.701 -1.213,3.076 -2.951,3.076Z" style="fill:#47414d;fill-rule:nonzero;"/><path d="M126.426,46.543c0.438,0 0.725,-0.237 0.888,-0.624l3.074,-7.249c0.038,-0.088 0.075,-0.213 0.075,-0.325c0,-0.413 -0.325,-0.738 -0.762,-0.738c-0.363,0 -0.638,0.238 -0.738,0.5l-2.562,6.362l-2.524,-6.312c-0.138,-0.337 -0.388,-0.55 -0.788,-0.55c-0.437,0 -0.774,0.338 -0.774,0.75c-0,0.138 0.037,0.25 0.087,0.363l3.062,7.199c0.162,0.387 0.437,0.624 0.875,0.624l0.087,0Z" style="fill:#47414d;fill-rule:nonzero;"/><path d="M145.638,46.418c0.388,0 0.688,-0.299 0.688,-0.686c-0,-0.387 -0.3,-0.687 -0.688,-0.687l-4.387,0l-0,-2.352l3.762,0c0.388,0 0.688,-0.287 0.688,-0.674c-0,-0.387 -0.3,-0.699 -0.688,-0.699l-3.762,-0l-0,-2.277l4.325,0c0.387,0 0.687,-0.299 0.687,-0.686c0,-0.387 -0.3,-0.687 -0.687,-0.687l-5.087,-0c-0.437,-0 -0.774,0.337 -0.774,0.774l-0,7.2c-0,0.437 0.337,0.774 0.774,0.774l5.149,0Z" style="fill:#47414d;fill-rule:nonzero;"/><path d="M155.715,45.718c0,0.438 0.337,0.763 0.774,0.763c0.437,-0 0.762,-0.325 0.762,-0.763l-0,-2.35l1.938,0l2.126,2.713c0.187,0.237 0.4,0.4 0.749,0.4c0.387,-0 0.737,-0.275 0.737,-0.713c0,-0.237 -0.1,-0.4 -0.25,-0.587l-1.674,-2.112c1.175,-0.375 1.987,-1.199 1.987,-2.612l-0,-0.025c-0,-0.763 -0.263,-1.401 -0.725,-1.888c-0.562,-0.549 -1.424,-0.874 -2.525,-0.874l-3.125,-0c-0.437,-0 -0.774,0.337 -0.774,0.774l0,7.274Zm1.536,-3.711l-0,-2.939l2.238,0c1.151,0 1.814,0.501 1.814,1.451l-0,0.025c-0,0.901 -0.701,1.463 -1.801,1.463l-2.251,0Z" style="fill:#47414d;fill-rule:nonzero;"/><path d="M172.378,45.73c-0,0.438 0.312,0.751 0.749,0.751c0.437,-0 0.762,-0.313 0.762,-0.751l-0,-5.244l2.125,3.191c0.163,0.251 0.35,0.401 0.638,0.401c0.288,-0 0.488,-0.15 0.65,-0.401l2.138,-3.216l0,5.257c0,0.413 0.35,0.763 0.762,0.763c0.437,-0 0.774,-0.325 0.774,-0.763l0,-7.335c0,-0.438 -0.337,-0.776 -0.774,-0.776l-0.162,0c-0.3,0 -0.537,0.138 -0.7,0.401l-2.663,4.168l-2.651,-4.156c-0.15,-0.237 -0.375,-0.413 -0.712,-0.413l-0.162,0c-0.437,0 -0.774,0.338 -0.774,0.776l-0,7.347Z" style="fill:#47414d;fill-rule:nonzero;"/><path d="M190.941,45.719c-0,0.437 0.337,0.762 0.774,0.762c0.437,-0 0.761,-0.325 0.761,-0.762l0,-7.349c0,-0.438 -0.324,-0.763 -0.761,-0.763c-0.437,0 -0.774,0.325 -0.774,0.763l-0,7.349Z" style="fill:#47414d;fill-rule:nonzero;"/><path d="M208.364,46.418c0.388,0 0.688,-0.299 0.688,-0.686c-0,-0.387 -0.3,-0.687 -0.688,-0.687l-4.387,0l-0,-2.352l3.762,0c0.388,0 0.688,-0.287 0.688,-0.674c-0,-0.387 -0.3,-0.699 -0.688,-0.699l-3.762,-0l-0,-2.277l4.325,0c0.387,0 0.687,-0.299 0.687,-0.686c0,-0.387 -0.3,-0.687 -0.687,-0.687l-5.087,-0c-0.437,-0 -0.774,0.337 -0.774,0.774l-0,7.2c-0,0.437 0.337,0.774 0.774,0.774l5.149,0Z" style="fill:#47414d;fill-rule:nonzero;"/><path d="M220.591,45.718c-0,0.438 0.337,0.763 0.774,0.763c0.437,-0 0.774,-0.325 0.774,-0.763l0,-6.625l2.138,0c0.387,0 0.7,-0.324 0.7,-0.711c-0,-0.387 -0.313,-0.712 -0.7,-0.712l-5.811,-0c-0.4,-0 -0.713,0.325 -0.713,0.712c0,0.387 0.313,0.711 0.713,0.711l2.125,0l-0,6.625Z" style="fill:#47414d;fill-rule:nonzero;"/><path d="M237.753,46.556c2.288,-0 3.762,-1.311 3.762,-3.924l-0,-4.262c-0,-0.438 -0.325,-0.763 -0.762,-0.763c-0.437,0 -0.774,0.325 -0.774,0.763l-0,4.337c-0,1.613 -0.838,2.426 -2.201,2.426c-1.388,-0 -2.213,-0.851 -2.213,-2.488l-0,-4.275c-0,-0.438 -0.325,-0.763 -0.762,-0.763c-0.437,0 -0.774,0.325 -0.774,0.763l-0,4.337c-0,2.538 1.461,3.849 3.724,3.849Z" style="fill:#47414d;fill-rule:nonzero;"/><path d="M251.254,45.731c-0,0.413 0.324,0.75 0.762,0.75c0.412,-0 0.749,-0.337 0.749,-0.75l-0,-5.549l4.501,5.824c0.213,0.287 0.438,0.462 0.8,0.462l0.062,0c0.437,0 0.749,-0.324 0.749,-0.762l0,-7.349c0,-0.412 -0.324,-0.75 -0.761,-0.75c-0.412,0 -0.75,0.338 -0.75,0.75l0,5.374l-4.376,-5.673c-0.213,-0.263 -0.413,-0.451 -0.8,-0.451l-0.162,0c-0.437,0 -0.774,0.338 -0.774,0.776l-0,7.348Z" style="fill:#47414d;fill-rule:nonzero;"/><path d="M272.903,46.568c1.313,0 2.363,-0.449 3.113,-0.948c0.362,-0.225 0.537,-0.55 0.537,-0.975l-0,-2.338c-0,-0.437 -0.338,-0.775 -0.775,-0.775l-2.437,0c-0.388,0 -0.688,0.288 -0.688,0.675c0,0.387 0.3,0.661 0.688,0.661l1.726,0l-0,1.639c-0.538,0.4 -1.276,0.663 -2.114,0.663c-1.788,0 -2.975,-1.326 -2.975,-3.126l-0,-0.025c-0,-1.662 1.237,-3.088 2.838,-3.088c0.95,-0 1.563,0.275 2.126,0.688c0.137,0.087 0.274,0.175 0.474,0.175c0.437,-0 0.762,-0.35 0.762,-0.763c-0,-0.3 -0.162,-0.512 -0.312,-0.625c-0.799,-0.586 -1.675,-0.886 -2.988,-0.886c-2.65,-0 -4.511,2.074 -4.511,4.524l-0,0.025c-0,2.551 1.798,4.499 4.536,4.499Z" style="fill:#47414d;fill-rule:nonzero;"/><path d="M45.834,16.665l-34.577,29.903l23.245,0c6.254,0 11.332,-5.077 11.332,-11.331l-0,-18.572Z" style="fill:#47414d;"/><path d="M13.122,46.568l32.712,-28.331l-0,-5.664c-0,-6.254 -5.078,-11.332 -11.332,-11.332l-22.664,-0c-6.254,-0 -11.332,5.078 -11.332,11.332l0,22.664c0,6.254 5.078,11.331 11.332,11.331l1.284,0Z" style="fill:#5b5363;"/></g></svg>