<?xml version="1.0" encoding="UTF-8" standalone="no"?><!DOCTYPE svg PUBLIC "-//W3C//DTD SVG 1.1//EN" "http://www.w3.org/Graphics/SVG/1.1/DTD/svg11.dtd"><svg width="100%" height="100%" viewBox="0 0 288 65" version="1.1" xmlns="http://www.w3.org/2000/svg" xmlns:xlink="http://www.w3.org/1999/xlink" xml:space="preserve" xmlns:serif="http://www.serif.com/" style="fill-rule:evenodd;clip-rule:evenodd;stroke-linejoin:round;stroke-miterlimit:2;"><g id="logo-full"><g><path d="M79.58,0.002l13.11,19.024l9.33,-10.026l9.71,9.813l14.023,-18.811l-1.608,-0l-7.168,9.469l-8.994,-9.469l-8.359,9.427l-6.84,-9.427l-13.204,-0Z" style="fill:#1fe0fd;"/><rect x="129.564" y="0.002" width="12.95" height="17.995" style="fill:#1fe0fd;"/><path d="M162.412,0.002l-12.95,-0l-0,17.995l27.055,0l0.01,-0.996l-14.115,-0.001l0,-16.998Z" style="fill:#1fe0fd;"/><path d="M181.603,17.997l0,-17.995l12.951,-0l0.106,0c8.998,0.031 16.285,4.051 16.285,8.998c0,4.966 -7.344,8.997 -16.391,8.997l-12.951,0Zm12.951,-16.995c5.178,-0 9.781,1.355 12.628,3.486c1.702,1.274 2.763,2.812 2.763,4.512c0,1.699 -1.061,3.237 -2.763,4.512c-2.847,2.131 -7.45,3.485 -12.628,3.485l-0,-15.995Z" style="fill:#1fe0fd;"/></g></g></svg>