<?xml version="1.0" encoding="UTF-8" standalone="no"?><!DOCTYPE svg PUBLIC "-//W3C//DTD SVG 1.1//EN" "http://www.w3.org/Graphics/SVG/1.1/DTD/svg11.dtd">
<svg width="100%" height="100%" viewBox="0 0 2000 1000" xmlns="http://www.w3.org/2000/svg" > <defs> <filter id="blur-filter" x="-200%" y="-200%" width="500%" height="500%"> <feGaussianBlur in="SourceGraphic" stdDeviation="20" /> </filter> <filter id="blur-filter-sm" x="-100%" y="-100%" width="300%" height="300%"> <feGaussianBlur in="SourceGraphic" stdDeviation="10" /> </filter> </defs> <g transform="rotate(0 1000 1000)"> <rect x="0" y="0" width="2000" height="1000" stroke="none" strokeWidth="0" fill="#200e27" /> </g> <ellipse cx="169.2494567752523" cy="7.978698680012053" rx="1.1666957582780058" ry="1.1146851007105198" fill="#ffffff" opacity="0.6755001321765779" /> <ellipse cx="199.6607967610338" cy="105.16713852408172" rx="1.5192109716071207" ry="1.3349846319118308" fill="#ffffff" opacity="0.5296238441327858" /> <ellipse cx="426.5081011327531" cy="202.9749024048884" rx="2.1426782425325803" ry="1.9378489298311736" fill="#ffffff" opacity="0.9122371017929305" /> <ellipse cx="647.1228030519" cy="183.53890314461518" rx="2.1152756267327644" ry="1.681901914956662" fill="#ffffff" opacity="0.5270778639584541" /> <ellipse cx="861.1386431775326" cy="195.81655619488254" rx="1.9335504035384352" ry="1.455686855728054" fill="#ffffff" opacity="0.22270802491961603" /> <ellipse cx="1042.59011665653" cy="35.653710375226964" rx="1.9890500403809737" ry="1.6860640714246489" fill="#ffffff" opacity="0.5043234168255667" /> <ellipse cx="1202.6052973972025" cy="170.74775996150015" rx="1.917712774285008" ry="1.5405802878315964" fill="#ffffff" opacity="0.292485163162409" /> <ellipse cx="1342.3286208569002" cy="134.76759750444566" rx="2.40734512182494" ry="1.9203681393457241" fill="#ffffff" opacity="-0.11267988182950836" /> <ellipse cx="1560.608709091157" cy="83.70191927500676" rx="2.5624228938817177" ry="2.066199701045754" fill="#ffffff" opacity="0.3047875984379648" /> <ellipse cx="1740.218616879768" cy="128.43098919592438" rx="2.2189029078198357" ry="2.092493674155061" fill="#ffffff" opacity="0.21355325268730718" /> <ellipse cx="1996.5597909240837" cy="131.88461862296197" rx="1.724975677663512" ry="1.2801390538776367" fill="#ffffff" opacity="-0.0011007771644323538" /> <ellipse cx="122.72009710523673" cy="337.6647925418546" rx="1.7769104209671434" ry="1.5330753182660062" fill="#ffffff" opacity="-0.14815563662391254" /> <ellipse cx="303.1800256598369" cy="305.28020454638994" rx="1.647501118346473" ry="1.6233798851254928" fill="#ffffff" opacity="0.7391069966376479" /> <ellipse cx="429.3094841082593" cy="450.867087872718" rx="2.1580920266898245" ry="1.9895416866428697" fill="#ffffff" opacity="0.03249501175009778" /> <ellipse cx="665.4784661849201" cy="362.8013855463392" rx="1.5518434762383255" ry="1.3267878443543082" fill="#ffffff" opacity="0.008139667918672072" /> <ellipse cx="761.7588539828789" cy="348.5693837733524" rx="2.011418266644357" ry="1.7274879766991251" fill="#ffffff" opacity="-0.18774100594006965" /> <ellipse cx="1071.926303990892" cy="487.3817689293171" rx="1.8183822232846987" ry="1.3378940042198573" fill="#ffffff" opacity="0.5231600162313224" /> <ellipse cx="1262.2877985876041" cy="472.5082343496088" rx="1.9548865720458504" ry="1.7302776574403234" fill="#ffffff" opacity="0.3710407547968121" /> <ellipse cx="1338.4008024735178" cy="488.0369142465294" rx="2.079726387072288" ry="1.9483476028995892" fill="#ffffff" opacity="-0.0941644839736" /> <ellipse cx="1614.1126065338126" cy="369.8298064342285" rx="1.8588841494437085" ry="1.5890209301815035" fill="#ffffff" opacity="0.23477903017056562" /> <ellipse cx="1645.2823153393679" cy="319.8347514224718" rx="1.8637316481001573" ry="1.375367580244275" fill="#ffffff" opacity="0.09464852922968595" /> <ellipse cx="1935.804518142526" cy="475.2613678602438" rx="2.122932324789582" ry="1.9545072516192852" fill="#ffffff" opacity="0.9561076973493543" /> <ellipse cx="180.23345980432688" cy="573.3102927654227" rx="1.2918708354347843" ry="1.1508164664434448" fill="#ffffff" opacity="0.34950540705908273" /> <ellipse cx="358.1802286599243" cy="535.3633421888957" rx="1.669406023234655" ry="1.481847995961843" fill="#ffffff" opacity="0.5238300884954996" /> <ellipse cx="383.4564112961226" cy="588.8974255928969" rx="2.2579783818137447" ry="2.0375034896598456" fill="#ffffff" opacity="0.34327032778717953" /> <ellipse cx="572.6500177969617" cy="718.2798362850393" rx="2.237122827566018" ry="2.0459460290095866" fill="#ffffff" opacity="0.50204367000657" /> <ellipse cx="763.0624193391826" cy="600.8609161362533" rx="2.113358575682024" ry="1.6553414394989518" fill="#ffffff" opacity="0.2763587675056235" /> <ellipse cx="1076.9461403790315" cy="529.3725776750475" rx="1.5080571843190729" ry="1.4523389606364288" fill="#ffffff" opacity="0.7061682050917518" /> <ellipse cx="1120.42016563004" cy="646.5976428151446" rx="1.9021595772593467" ry="1.6103035950074451" fill="#ffffff" opacity="0.2141734180388704" /> <ellipse cx="1409.219067839106" cy="569.0761312570296" rx="1.693665622397399" ry="1.429173291833397" fill="#ffffff" opacity="-0.047011189495478806" /> <ellipse cx="1466.323547524624" cy="613.670668220967" rx="2.1785474438332724" ry="1.8587737620257976" fill="#ffffff" opacity="0.7468274242640949" /> <ellipse cx="1651.4189786492318" cy="738.5444217394947" rx="1.8767189279831922" ry="1.3813589845857683" fill="#ffffff" opacity="0.7762103042310853" /> <ellipse cx="1920.8679199901142" cy="748.1988953775284" rx="2.34902404581761" ry="2.036891003855726" fill="#ffffff" opacity="0.5934844574027746" /> <ellipse cx="159.76528697439775" cy="953.5665048805611" rx="2.4336967940187746" ry="2.051458285610913" fill="#ffffff" opacity="0.5256534625006484" /> <ellipse cx="341.4871660375273" cy="976.434836686133" rx="2.239437213825483" ry="1.845266312467833" fill="#ffffff" opacity="0.8556591478448696" /> <ellipse cx="365.47979479499224" cy="885.0956375149624" rx="2.2017101245794146" ry="1.9522759240069616" fill="#ffffff" opacity="0.17613296313635252" /> <ellipse cx="721.7758680881441" cy="840.4891776078196" rx="1.773673699499659" ry="1.3186755372076822" fill="#ffffff" opacity="0.25835605119329375" /> <ellipse cx="776.2134497477177" cy="797.9394801640481" rx="1.511894188558565" ry="1.205754387302277" fill="#ffffff" opacity="0.34714873359411547" /> <ellipse cx="1015.6176619314805" cy="795.8417215766083" rx="1.4549110800488085" ry="1.4002530171818512" fill="#ffffff" opacity="0.5022316544153901" /> <ellipse cx="1136.3996228341362" cy="772.5225514214864" rx="2.238720580594906" ry="1.8562461692721461" fill="#ffffff" opacity="0.17338524652371773" /> <ellipse cx="1370.5862474796593" cy="963.1058179658398" rx="1.5238838127292105" ry="1.4210620504361118" fill="#ffffff" opacity="0.043579000111007904" /> <ellipse cx="1568.8079088229313" cy="837.681236391492" rx="1.6665436635390616" ry="1.4734852340305005" fill="#ffffff" opacity="0.3550028094836475" /> <ellipse cx="1721.3360220506456" cy="858.0495970587297" rx="1.53853668481631" ry="1.378441500916953" fill="#ffffff" opacity="-0.15564956316048653" /> <ellipse cx="1824.1690378926448" cy="817.1767565492291" rx="1.7528781365959016" ry="1.6713344231111926" fill="#ffffff" opacity="0.3086704941252776" /> </svg>